SplineFontDB: 3.2
FontName: Kilroy2-8ptRegular
FullName: Kilroy2 8pt Regular
FamilyName: Kilroy2 8pt
Weight: Regular
Copyright: Copyright 2020 The Roboto Serif Project Authors (https://github.com/googlefonts/RobotoSerif) OFL
Version: 1.008
ItalicAngle: 0
UnderlinePosition: -200
UnderlineWidth: 100
Ascent: 800
Descent: 200
InvalidEm: 0
sfntRevision: 0x0001020c
LayerCount: 2
Layer: 0 1 "Back" 1
Layer: 1 1 "Fore" 0
XUID: [1021 1018 -1064020043 14746]
StyleMap: 0x0040
FSType: 0
OS2Version: 4
OS2_WeightWidthSlopeOnly: 0
OS2_UseTypoMetrics: 1
CreationTime: 1586430965
ModificationTime: 1751690458
PfmFamily: 81
TTFWeight: 400
TTFWidth: 5
LineGap: 0
VLineGap: 0
Panose: 0 0 0 0 0 0 0 0 0 0
OS2TypoAscent: 927
OS2TypoAOffset: 0
OS2TypoDescent: -244
OS2TypoDOffset: 0
OS2TypoLinegap: 0
OS2WinAscent: 1048
OS2WinAOffset: 0
OS2WinDescent: 251
OS2WinDOffset: 0
HheadAscent: 927
HheadAOffset: 0
HheadDescent: -244
HheadDOffset: 0
OS2SubXSize: 650
OS2SubYSize: 600
OS2SubXOff: 0
OS2SubYOff: 75
OS2SupXSize: 650
OS2SupYSize: 600
OS2SupXOff: 0
OS2SupYOff: 350
OS2StrikeYSize: 100
OS2StrikeYPos: 311
OS2CapHeight: 710
OS2XHeight: 518
OS2Vendor: 'COMM'
OS2CodePages: 20000193.00000000
OS2UnicodeRanges: a10000ef.4000267a.00000000.00000000
Lookup: 5 0 0 "'locl' Localized Forms in Latin lookup 0" { "'locl' Localized Forms in Latin lookup 0 subtable"  } ['locl' ('latn' <'AZE ' 'CRT ' 'TRK ' > ) ]
Lookup: 1 0 0 "Single Substitution lookup 1" { "Single Substitution lookup 1 subtable"  } []
Lookup: 5 0 0 "'locl' Localized Forms in Latin lookup 2" { "'locl' Localized Forms in Latin lookup 2 subtable"  } ['locl' ('latn' <'PLK ' > ) ]
Lookup: 1 0 0 "Single Substitution lookup 3" { "Single Substitution lookup 3 subtable"  } []
Lookup: 6 0 0 "'locl' Localized Forms in Latin lookup 4" { "'locl' Localized Forms in Latin lookup 4 subtable"  } ['locl' ('latn' <'CAT ' > ) ]
Lookup: 4 0 0 "Ligature Substitution lookup 5" { "Ligature Substitution lookup 5 subtable"  } []

StartChar: .notdef
Encoding: 65536 -1 0
Width: 400
GlyphClass: 1
Flags: W
LayerCount: 2
Fore
SplineSet
0 0 m 1,0,-1
 0 700 l 1,1,-1
 400 700 l 1,2,-1
 400 0 l 1,3,-1
 0 0 l 1,0,-1
50 650 m 1,4,-1
 50 50 l 1,5,-1
 350 50 l 1,6,-1
 350 650 l 1,7,-1
 50 650 l 1,4,-1
EndSplineSet
EndChar

StartChar: A
Encoding: 65 65 6
Width: 729
GlyphClass: 2
Flags: W
AnchorPoint: "Anchor-2" 577 0 basechar 0
AnchorPoint: "Anchor-1" 364 0 basechar 0
AnchorPoint: "Anchor-0" 364 721 basechar 0
LayerCount: 2
Fore
SplineSet
218 293 m 1,0,-1
 489 293 l 1,1,-1
 508 233 l 1,2,-1
 198 233 l 1,3,-1
 218 293 l 1,0,-1
343 680 m 1,4,-1
 360 671 l 1,5,-1
 170 85 l 2,6,7
 170 79 170 79 181 73.5 c 128,-1,8
 192 68 192 68 212 65 c 128,-1,9
 232 62 232 62 260 62 c 2,10,-1
 270 62 l 1,11,-1
 270 0 l 1,12,-1
 20 0 l 1,13,-1
 20 62 l 1,14,-1
 26 62 l 2,15,16
 57 62 57 62 78 74 c 128,-1,17
 99 86 99 86 112 126 c 2,18,-1
 307 722 l 1,19,-1
 419 722 l 1,20,-1
 617 126 l 2,21,22
 631 86 631 86 651.5 74 c 128,-1,23
 672 62 672 62 703 62 c 2,24,-1
 709 62 l 1,25,-1
 709 0 l 1,26,-1
 441 0 l 1,27,-1
 441 62 l 1,28,-1
 451 62 l 2,29,30
 479 62 479 62 499 63.5 c 128,-1,31
 519 65 519 65 530 67.5 c 128,-1,32
 541 70 541 70 541 73 c 2,33,-1
 343 680 l 1,4,-1
EndSplineSet
EndChar

StartChar: Aogonek
Encoding: 260 260 15
Width: 729
GlyphClass: 1
Flags: W
LayerCount: 2
Fore
SplineSet
218 293 m 1,0,-1
 489 293 l 1,1,-1
 508 233 l 1,2,-1
 198 233 l 1,3,-1
 218 293 l 1,0,-1
580 40 m 1,4,-1
 603 3 l 1,5,6
 554 -34 554 -34 529 -58.5 c 128,-1,7
 504 -83 504 -83 495 -101.5 c 128,-1,8
 486 -120 486 -120 486 -142 c 0,9,10
 486 -169 486 -169 499.5 -182 c 128,-1,11
 513 -195 513 -195 539 -195 c 0,12,13
 570 -195 570 -195 592.5 -178.5 c 128,-1,14
 615 -162 615 -162 628 -143 c 1,15,-1
 669 -177 l 1,16,17
 643 -211 643 -211 607 -231.5 c 128,-1,18
 571 -252 571 -252 519 -252 c 0,19,20
 463 -252 463 -252 423.5 -230 c 128,-1,21
 384 -208 384 -208 384 -156 c 0,22,23
 384 -129 384 -129 392.5 -108.5 c 128,-1,24
 401 -88 401 -88 422.5 -68 c 128,-1,25
 444 -48 444 -48 482.5 -22.5 c 128,-1,26
 521 3 521 3 580 40 c 1,4,-1
709 0 m 1,27,-1
 565 0 l 1,28,-1
 343 680 l 1,29,-1
 360 671 l 1,30,-1
 170 85 l 2,31,32
 170 79 170 79 181 73.5 c 128,-1,33
 192 68 192 68 212 65 c 128,-1,34
 232 62 232 62 260 62 c 2,35,-1
 270 62 l 1,36,-1
 270 0 l 1,37,-1
 20 0 l 1,38,-1
 20 62 l 1,39,-1
 26 62 l 2,40,41
 57 62 57 62 78 74 c 128,-1,42
 99 86 99 86 112 126 c 2,43,-1
 307 722 l 1,44,-1
 419 722 l 1,45,-1
 617 126 l 2,46,47
 631 86 631 86 651.5 74 c 128,-1,48
 672 62 672 62 703 62 c 2,49,-1
 709 62 l 1,50,-1
 709 0 l 1,27,-1
EndSplineSet
EndChar

StartChar: Acaron
Encoding: 461 461 16
Width: 729
GlyphClass: 1
Flags: W
LayerCount: 2
Fore
SplineSet
313 805 m 1,0,-1
 387 805 l 1,1,-1
 522 961 l 1,2,-1
 522 981 l 1,3,-1
 482 981 l 1,4,-1
 296 841 l 1,5,-1
 409 846 l 1,6,-1
 227 981 l 1,7,-1
 177 981 l 1,8,-1
 177 961 l 1,9,-1
 313 805 l 1,0,-1
218 293 m 1,10,-1
 489 293 l 1,11,-1
 508 233 l 1,12,-1
 198 233 l 1,13,-1
 218 293 l 1,10,-1
343 680 m 1,14,-1
 360 671 l 1,15,-1
 170 85 l 2,16,17
 170 79 170 79 181 73.5 c 128,-1,18
 192 68 192 68 212 65 c 128,-1,19
 232 62 232 62 260 62 c 2,20,-1
 270 62 l 1,21,-1
 270 0 l 1,22,-1
 20 0 l 1,23,-1
 20 62 l 1,24,-1
 26 62 l 2,25,26
 57 62 57 62 78 74 c 128,-1,27
 99 86 99 86 112 126 c 2,28,-1
 307 722 l 1,29,-1
 419 722 l 1,30,-1
 617 126 l 2,31,32
 631 86 631 86 651.5 74 c 128,-1,33
 672 62 672 62 703 62 c 2,34,-1
 709 62 l 1,35,-1
 709 0 l 1,36,-1
 441 0 l 1,37,-1
 441 62 l 1,38,-1
 451 62 l 2,39,40
 479 62 479 62 499 63.5 c 128,-1,41
 519 65 519 65 530 67.5 c 128,-1,42
 541 70 541 70 541 73 c 2,43,-1
 343 680 l 1,14,-1
EndSplineSet
EndChar

StartChar: Adblgrave
Encoding: 512 512 18
Width: 729
GlyphClass: 1
Flags: W
LayerCount: 2
Fore
SplineSet
456 924 m 2,0,-1
 504 819 l 1,1,-1
 504 793 l 1,2,-1
 466 793 l 1,3,-1
 393 855 l 2,4,5
 371 873 371 873 357 889 c 128,-1,6
 343 905 343 905 343 927 c 0,7,8
 343 945 343 945 356.5 958 c 128,-1,9
 370 971 370 971 394 971 c 0,10,11
 409 971 409 971 420.5 965.5 c 128,-1,12
 432 960 432 960 440.5 949.5 c 128,-1,13
 449 939 449 939 456 924 c 2,0,-1
257 924 m 2,14,-1
 302 819 l 1,15,-1
 302 793 l 1,16,-1
 264 793 l 1,17,-1
 191 855 l 2,18,19
 169 873 169 873 155 889 c 128,-1,20
 141 905 141 905 141 927 c 0,21,22
 141 945 141 945 154.5 958 c 128,-1,23
 168 971 168 971 192 971 c 0,24,25
 207 971 207 971 219.5 965.5 c 128,-1,26
 232 960 232 960 241 949.5 c 128,-1,27
 250 939 250 939 257 924 c 2,14,-1
218 293 m 1,28,-1
 489 293 l 1,29,-1
 508 233 l 1,30,-1
 198 233 l 1,31,-1
 218 293 l 1,28,-1
343 680 m 1,32,-1
 360 671 l 1,33,-1
 170 85 l 2,34,35
 170 79 170 79 181 73.5 c 128,-1,36
 192 68 192 68 212 65 c 128,-1,37
 232 62 232 62 260 62 c 2,38,-1
 270 62 l 1,39,-1
 270 0 l 1,40,-1
 20 0 l 1,41,-1
 20 62 l 1,42,-1
 26 62 l 2,43,44
 57 62 57 62 78 74 c 128,-1,45
 99 86 99 86 112 126 c 2,46,-1
 307 722 l 1,47,-1
 419 722 l 1,48,-1
 617 126 l 2,49,50
 631 86 631 86 651.5 74 c 128,-1,51
 672 62 672 62 703 62 c 2,52,-1
 709 62 l 1,53,-1
 709 0 l 1,54,-1
 441 0 l 1,55,-1
 441 62 l 1,56,-1
 451 62 l 2,57,58
 479 62 479 62 499 63.5 c 128,-1,59
 519 65 519 65 530 67.5 c 128,-1,60
 541 70 541 70 541 73 c 2,61,-1
 343 680 l 1,32,-1
EndSplineSet
EndChar

StartChar: Ainvertedbreve
Encoding: 514 514 19
Width: 729
GlyphClass: 1
Flags: W
LayerCount: 2
Fore
SplineSet
365 928 m 0,0,1
 309 928 309 928 270.5 911 c 128,-1,2
 232 894 232 894 212 856.5 c 128,-1,3
 192 819 192 819 191 757 c 1,4,-1
 256 757 l 1,5,6
 257 794 257 794 267 814 c 128,-1,7
 277 834 277 834 300.5 841.5 c 128,-1,8
 324 849 324 849 365 849 c 0,9,10
 403 849 403 849 425 841.5 c 128,-1,11
 447 834 447 834 457.5 814 c 128,-1,12
 468 794 468 794 470 757 c 1,13,-1
 540 757 l 1,14,15
 538 819 538 819 517 856.5 c 128,-1,16
 496 894 496 894 457.5 911 c 128,-1,17
 419 928 419 928 365 928 c 0,0,1
218 293 m 1,18,-1
 489 293 l 1,19,-1
 508 233 l 1,20,-1
 198 233 l 1,21,-1
 218 293 l 1,18,-1
343 680 m 1,22,-1
 360 671 l 1,23,-1
 170 85 l 2,24,25
 170 79 170 79 181 73.5 c 128,-1,26
 192 68 192 68 212 65 c 128,-1,27
 232 62 232 62 260 62 c 2,28,-1
 270 62 l 1,29,-1
 270 0 l 1,30,-1
 20 0 l 1,31,-1
 20 62 l 1,32,-1
 26 62 l 2,33,34
 57 62 57 62 78 74 c 128,-1,35
 99 86 99 86 112 126 c 2,36,-1
 307 722 l 1,37,-1
 419 722 l 1,38,-1
 617 126 l 2,39,40
 631 86 631 86 651.5 74 c 128,-1,41
 672 62 672 62 703 62 c 2,42,-1
 709 62 l 1,43,-1
 709 0 l 1,44,-1
 441 0 l 1,45,-1
 441 62 l 1,46,-1
 451 62 l 2,47,48
 479 62 479 62 499 63.5 c 128,-1,49
 519 65 519 65 530 67.5 c 128,-1,50
 541 70 541 70 541 73 c 2,51,-1
 343 680 l 1,22,-1
EndSplineSet
EndChar

StartChar: B
Encoding: 66 66 32
Width: 723
GlyphClass: 2
Flags: W
AnchorPoint: "Anchor-0" 319 741 basechar 0
LayerCount: 2
Fore
SplineSet
402 710 m 2,0,1
 455 710 455 710 496 699 c 128,-1,2
 537 688 537 688 565 665.5 c 128,-1,3
 593 643 593 643 607.5 609 c 128,-1,4
 622 575 622 575 622 530 c 0,5,6
 622 486 622 486 601 450.5 c 128,-1,7
 580 415 580 415 537.5 395 c 128,-1,8
 495 375 495 375 431 375 c 1,9,-1
 441 392 l 1,10,-1
 441 351 l 1,11,-1
 431 371 l 1,12,13
 504 368 504 368 553 346.5 c 128,-1,14
 602 325 602 325 627.5 288 c 128,-1,15
 653 251 653 251 653 199 c 0,16,17
 653 149 653 149 637 111.5 c 128,-1,18
 621 74 621 74 590 49.5 c 128,-1,19
 559 25 559 25 514.5 12.5 c 128,-1,20
 470 0 470 0 412 0 c 2,21,-1
 60 0 l 1,22,-1
 60 62 l 1,23,-1
 71 62 l 2,24,25
 108 62 108 62 132 69 c 128,-1,26
 156 76 156 76 156 98 c 2,27,-1
 156 612 l 2,28,29
 156 634 156 634 132 641 c 128,-1,30
 108 648 108 648 71 648 c 2,31,-1
 60 648 l 1,32,-1
 60 710 l 1,33,-1
 402 710 l 2,0,1
207 402 m 1,34,-1
 398 402 l 2,35,36
 443 402 443 402 471.5 415.5 c 128,-1,37
 500 429 500 429 513 457.5 c 128,-1,38
 526 486 526 486 526 529 c 0,39,40
 526 567 526 567 513 593.5 c 128,-1,41
 500 620 500 620 472.5 634 c 128,-1,42
 445 648 445 648 399 648 c 2,43,-1
 249 648 l 1,44,-1
 249 62 l 1,45,-1
 409 62 l 2,46,47
 460 62 460 62 492.5 78 c 128,-1,48
 525 94 525 94 540 125 c 128,-1,49
 555 156 555 156 555 200 c 0,50,51
 555 247 555 247 538.5 278.5 c 128,-1,52
 522 310 522 310 487.5 326 c 128,-1,53
 453 342 453 342 398 342 c 2,54,-1
 207 342 l 1,55,-1
 207 402 l 1,34,-1
EndSplineSet
EndChar

StartChar: C
Encoding: 67 67 33
Width: 794
GlyphClass: 2
Flags: W
AnchorPoint: "Anchor-1" 420 0 basechar 0
AnchorPoint: "Anchor-0" 420 741 basechar 0
LayerCount: 2
Fore
SplineSet
405 671 m 0,0,1
 346 671 346 671 301 652.5 c 128,-1,2
 256 634 256 634 225 596 c 128,-1,3
 194 558 194 558 178 498 c 128,-1,4
 162 438 162 438 162 355 c 256,5,6
 162 272 162 272 178 212 c 128,-1,7
 194 152 194 152 225.5 114 c 128,-1,8
 257 76 257 76 304 57.5 c 128,-1,9
 351 39 351 39 414 39 c 0,10,11
 488 39 488 39 538.5 66 c 128,-1,12
 589 93 589 93 621.5 139.5 c 128,-1,13
 654 186 654 186 674 243 c 1,14,-1
 737 217 l 1,15,16
 713 141 713 141 668.5 87 c 128,-1,17
 624 33 624 33 559.5 4 c 128,-1,18
 495 -25 495 -25 410 -25 c 0,19,20
 331 -25 331 -25 267 -1 c 128,-1,21
 203 23 203 23 157 71 c 128,-1,22
 111 119 111 119 86.5 190 c 128,-1,23
 62 261 62 261 62 355 c 0,24,25
 62 450 62 450 87 521 c 128,-1,26
 112 592 112 592 158 639.5 c 128,-1,27
 204 687 204 687 267 711 c 128,-1,28
 330 735 330 735 405 735 c 0,29,30
 475 735 475 735 528.5 708.5 c 128,-1,31
 582 682 582 682 616 629.5 c 128,-1,32
 650 577 650 577 660 498 c 1,33,-1
 639 549 l 1,34,-1
 651 720 l 1,35,-1
 721 720 l 1,36,-1
 721 458 l 1,37,-1
 648 458 l 1,38,39
 630 524 630 524 596.5 572 c 128,-1,40
 563 620 563 620 515 645.5 c 128,-1,41
 467 671 467 671 405 671 c 0,0,1
EndSplineSet
EndChar

StartChar: Ccaron
Encoding: 268 268 38
Width: 794
GlyphClass: 1
Flags: W
LayerCount: 2
Fore
SplineSet
363 805 m 1,0,-1
 437 805 l 1,1,-1
 572 961 l 1,2,-1
 572 981 l 1,3,-1
 532 981 l 1,4,-1
 346 841 l 1,5,-1
 459 846 l 1,6,-1
 277 981 l 1,7,-1
 227 981 l 1,8,-1
 227 961 l 1,9,-1
 363 805 l 1,0,-1
405 671 m 0,10,11
 346 671 346 671 301 652.5 c 128,-1,12
 256 634 256 634 225 596 c 128,-1,13
 194 558 194 558 178 498 c 128,-1,14
 162 438 162 438 162 355 c 256,15,16
 162 272 162 272 178 212 c 128,-1,17
 194 152 194 152 225.5 114 c 128,-1,18
 257 76 257 76 304 57.5 c 128,-1,19
 351 39 351 39 414 39 c 0,20,21
 488 39 488 39 538.5 66 c 128,-1,22
 589 93 589 93 621.5 139.5 c 128,-1,23
 654 186 654 186 674 243 c 1,24,-1
 737 217 l 1,25,26
 713 141 713 141 668.5 87 c 128,-1,27
 624 33 624 33 559.5 4 c 128,-1,28
 495 -25 495 -25 410 -25 c 0,29,30
 331 -25 331 -25 267 -1 c 128,-1,31
 203 23 203 23 157 71 c 128,-1,32
 111 119 111 119 86.5 190 c 128,-1,33
 62 261 62 261 62 355 c 0,34,35
 62 450 62 450 87 521 c 128,-1,36
 112 592 112 592 158 639.5 c 128,-1,37
 204 687 204 687 267 711 c 128,-1,38
 330 735 330 735 405 735 c 0,39,40
 475 735 475 735 528.5 708.5 c 128,-1,41
 582 682 582 682 616 629.5 c 128,-1,42
 650 577 650 577 660 498 c 1,43,-1
 639 549 l 1,44,-1
 651 720 l 1,45,-1
 721 720 l 1,46,-1
 721 458 l 1,47,-1
 648 458 l 1,48,49
 630 524 630 524 596.5 572 c 128,-1,50
 563 620 563 620 515 645.5 c 128,-1,51
 467 671 467 671 405 671 c 0,10,11
EndSplineSet
EndChar

StartChar: D
Encoding: 68 68 40
Width: 815
GlyphClass: 2
Flags: W
AnchorPoint: "Anchor-1" 410 0 basechar 0
AnchorPoint: "Anchor-0" 410 741 basechar 0
LayerCount: 2
Fore
SplineSet
60 648 m 1,0,-1
 60 710 l 1,1,-1
 369 710 l 2,2,3
 460 710 460 710 531.5 688.5 c 128,-1,4
 603 667 603 667 652.5 623.5 c 128,-1,5
 702 580 702 580 727.5 514 c 128,-1,6
 753 448 753 448 753 359 c 0,7,8
 753 271 753 271 727.5 203.5 c 128,-1,9
 702 136 702 136 652.5 91 c 128,-1,10
 603 46 603 46 531.5 23 c 128,-1,11
 460 0 460 0 369 0 c 2,12,-1
 60 0 l 1,13,-1
 60 62 l 1,14,-1
 71 62 l 2,15,16
 108 62 108 62 132 69 c 128,-1,17
 156 76 156 76 156 98 c 2,18,-1
 156 612 l 2,19,20
 156 634 156 634 132 641 c 128,-1,21
 108 648 108 648 71 648 c 2,22,-1
 60 648 l 1,0,-1
369 648 m 2,23,-1
 249 648 l 1,24,-1
 249 62 l 1,25,-1
 369 62 l 2,26,27
 441 62 441 62 494.5 79.5 c 128,-1,28
 548 97 548 97 583 133.5 c 128,-1,29
 618 170 618 170 635.5 226 c 128,-1,30
 653 282 653 282 653 359 c 256,31,32
 653 436 653 436 635.5 491 c 128,-1,33
 618 546 618 546 583 580.5 c 128,-1,34
 548 615 548 615 494.5 631.5 c 128,-1,35
 441 648 441 648 369 648 c 2,23,-1
EndSplineSet
EndChar

StartChar: Dcaron
Encoding: 270 270 41
Width: 815
GlyphClass: 1
Flags: W
LayerCount: 2
Fore
SplineSet
364 805 m 1,0,-1
 438 805 l 1,1,-1
 573 961 l 1,2,-1
 573 981 l 1,3,-1
 533 981 l 1,4,-1
 347 841 l 1,5,-1
 460 846 l 1,6,-1
 278 981 l 1,7,-1
 228 981 l 1,8,-1
 228 961 l 1,9,-1
 364 805 l 1,0,-1
60 648 m 1,10,-1
 60 710 l 1,11,-1
 369 710 l 2,12,13
 460 710 460 710 531.5 688.5 c 128,-1,14
 603 667 603 667 652.5 623.5 c 128,-1,15
 702 580 702 580 727.5 514 c 128,-1,16
 753 448 753 448 753 359 c 0,17,18
 753 271 753 271 727.5 203.5 c 128,-1,19
 702 136 702 136 652.5 91 c 128,-1,20
 603 46 603 46 531.5 23 c 128,-1,21
 460 0 460 0 369 0 c 2,22,-1
 60 0 l 1,23,-1
 60 62 l 1,24,-1
 71 62 l 2,25,26
 108 62 108 62 132 69 c 128,-1,27
 156 76 156 76 156 98 c 2,28,-1
 156 612 l 2,29,30
 156 634 156 634 132 641 c 128,-1,31
 108 648 108 648 71 648 c 2,32,-1
 60 648 l 1,10,-1
369 648 m 2,33,-1
 249 648 l 1,34,-1
 249 62 l 1,35,-1
 369 62 l 2,36,37
 441 62 441 62 494.5 79.5 c 128,-1,38
 548 97 548 97 583 133.5 c 128,-1,39
 618 170 618 170 635.5 226 c 128,-1,40
 653 282 653 282 653 359 c 256,41,42
 653 436 653 436 635.5 491 c 128,-1,43
 618 546 618 546 583 580.5 c 128,-1,44
 548 615 548 615 494.5 631.5 c 128,-1,45
 441 648 441 648 369 648 c 2,33,-1
EndSplineSet
EndChar

StartChar: E
Encoding: 69 69 44
Width: 719
GlyphClass: 2
Flags: W
AnchorPoint: "Anchor-2" 497 0 basechar 0
AnchorPoint: "Anchor-1" 425 0 basechar 0
AnchorPoint: "Anchor-0" 425 741 basechar 0
LayerCount: 2
Fore
SplineSet
644 227 m 1,0,-1
 644 0 l 1,1,-1
 60 0 l 1,2,-1
 60 62 l 1,3,-1
 71 62 l 2,4,5
 108 62 108 62 132 69 c 128,-1,6
 156 76 156 76 156 98 c 2,7,-1
 156 612 l 2,8,9
 156 634 156 634 132 641 c 128,-1,10
 108 648 108 648 71 648 c 2,11,-1
 60 648 l 1,12,-1
 60 710 l 1,13,-1
 625 710 l 1,14,-1
 625 508 l 1,15,-1
 561 508 l 1,16,-1
 548 603 l 2,17,18
 546 621 546 621 532.5 630.5 c 128,-1,19
 519 640 519 640 492.5 644 c 128,-1,20
 466 648 466 648 423 648 c 2,21,-1
 249 648 l 1,22,-1
 249 62 l 1,23,-1
 438 62 l 2,24,25
 470 62 470 62 493 64 c 128,-1,26
 516 66 516 66 531 71 c 128,-1,27
 546 76 546 76 553.5 85 c 128,-1,28
 561 94 561 94 563 107 c 2,29,-1
 578 227 l 1,30,-1
 644 227 l 1,0,-1
232 394 m 1,31,32
 281 397 281 397 329.5 399.5 c 128,-1,33
 378 402 378 402 427 404.5 c 128,-1,34
 476 407 476 407 524 409 c 1,35,-1
 524 321 l 1,36,37
 476 324 476 324 427 326.5 c 128,-1,38
 378 329 378 329 329.5 331.5 c 128,-1,39
 281 334 281 334 232 336 c 1,40,-1
 232 394 l 1,31,32
EndSplineSet
Substitution2: "'ss01' Style Set 1 lookup 61 subtable" E.alt
EndChar

StartChar: Ecaron
Encoding: 282 282 53
Width: 719
GlyphClass: 1
Flags: W
LayerCount: 2
Fore
SplineSet
334 805 m 1,0,-1
 408 805 l 1,1,-1
 543 961 l 1,2,-1
 543 981 l 1,3,-1
 503 981 l 1,4,-1
 317 841 l 1,5,-1
 430 846 l 1,6,-1
 248 981 l 1,7,-1
 198 981 l 1,8,-1
 198 961 l 1,9,-1
 334 805 l 1,0,-1
644 227 m 1,10,-1
 644 0 l 1,11,-1
 60 0 l 1,12,-1
 60 62 l 1,13,-1
 71 62 l 2,14,15
 108 62 108 62 132 69 c 128,-1,16
 156 76 156 76 156 98 c 2,17,-1
 156 612 l 2,18,19
 156 634 156 634 132 641 c 128,-1,20
 108 648 108 648 71 648 c 2,21,-1
 60 648 l 1,22,-1
 60 710 l 1,23,-1
 625 710 l 1,24,-1
 625 508 l 1,25,-1
 561 508 l 1,26,-1
 548 603 l 2,27,28
 546 621 546 621 532.5 630.5 c 128,-1,29
 519 640 519 640 492.5 644 c 128,-1,30
 466 648 466 648 423 648 c 2,31,-1
 249 648 l 1,32,-1
 249 62 l 1,33,-1
 438 62 l 2,34,35
 470 62 470 62 493 64 c 128,-1,36
 516 66 516 66 531 71 c 128,-1,37
 546 76 546 76 553.5 85 c 128,-1,38
 561 94 561 94 563 107 c 2,39,-1
 578 227 l 1,40,-1
 644 227 l 1,10,-1
232 394 m 1,41,42
 281 397 281 397 329.5 399.5 c 128,-1,43
 378 402 378 402 427 404.5 c 128,-1,44
 476 407 476 407 524 409 c 1,45,-1
 524 321 l 1,46,47
 476 324 476 324 427 326.5 c 128,-1,48
 378 329 378 329 329.5 331.5 c 128,-1,49
 281 334 281 334 232 336 c 1,50,-1
 232 394 l 1,41,42
EndSplineSet
Substitution2: "'ss01' Style Set 1 lookup 61 subtable" Ecaron.alt
EndChar

StartChar: Edblgrave
Encoding: 516 516 54
Width: 719
GlyphClass: 1
Flags: W
LayerCount: 2
Fore
SplineSet
443 924 m 2,0,-1
 491 819 l 1,1,-1
 491 793 l 1,2,-1
 453 793 l 1,3,-1
 380 855 l 2,4,5
 358 873 358 873 344 889 c 128,-1,6
 330 905 330 905 330 927 c 0,7,8
 330 945 330 945 344 958 c 128,-1,9
 358 971 358 971 381 971 c 0,10,11
 397 971 397 971 408.5 965.5 c 128,-1,12
 420 960 420 960 428.5 949.5 c 128,-1,13
 437 939 437 939 443 924 c 2,0,-1
244 924 m 2,14,-1
 289 819 l 1,15,-1
 289 793 l 1,16,-1
 251 793 l 1,17,-1
 178 855 l 2,18,19
 156 873 156 873 142 889 c 128,-1,20
 128 905 128 905 128 927 c 0,21,22
 128 945 128 945 142 958 c 128,-1,23
 156 971 156 971 179 971 c 0,24,25
 195 971 195 971 207 965.5 c 128,-1,26
 219 960 219 960 228.5 949.5 c 128,-1,27
 238 939 238 939 244 924 c 2,14,-1
644 227 m 1,28,-1
 644 0 l 1,29,-1
 60 0 l 1,30,-1
 60 62 l 1,31,-1
 71 62 l 2,32,33
 108 62 108 62 132 69 c 128,-1,34
 156 76 156 76 156 98 c 2,35,-1
 156 612 l 2,36,37
 156 634 156 634 132 641 c 128,-1,38
 108 648 108 648 71 648 c 2,39,-1
 60 648 l 1,40,-1
 60 710 l 1,41,-1
 625 710 l 1,42,-1
 625 508 l 1,43,-1
 561 508 l 1,44,-1
 548 603 l 2,45,46
 546 621 546 621 532.5 630.5 c 128,-1,47
 519 640 519 640 492.5 644 c 128,-1,48
 466 648 466 648 423 648 c 2,49,-1
 249 648 l 1,50,-1
 249 62 l 1,51,-1
 438 62 l 2,52,53
 470 62 470 62 493 64 c 128,-1,54
 516 66 516 66 531 71 c 128,-1,55
 546 76 546 76 553.5 85 c 128,-1,56
 561 94 561 94 563 107 c 2,57,-1
 578 227 l 1,58,-1
 644 227 l 1,28,-1
232 394 m 1,59,60
 281 397 281 397 329.5 399.5 c 128,-1,61
 378 402 378 402 427 404.5 c 128,-1,62
 476 407 476 407 524 409 c 1,63,-1
 524 321 l 1,64,65
 476 324 476 324 427 326.5 c 128,-1,66
 378 329 378 329 329.5 331.5 c 128,-1,67
 281 334 281 334 232 336 c 1,68,-1
 232 394 l 1,59,60
EndSplineSet
Substitution2: "'ss01' Style Set 1 lookup 61 subtable" Edblgrave.alt
EndChar

StartChar: Einvertedbreve
Encoding: 518 518 55
Width: 719
GlyphClass: 1
Flags: W
LayerCount: 2
Fore
SplineSet
352 928 m 256,0,1
 297 928 297 928 258.5 911 c 128,-1,2
 220 894 220 894 199.5 856.5 c 128,-1,3
 179 819 179 819 178 757 c 1,4,-1
 243 757 l 1,5,6
 245 794 245 794 255 814 c 128,-1,7
 265 834 265 834 288 841.5 c 128,-1,8
 311 849 311 849 352 849 c 0,9,10
 391 849 391 849 413 841.5 c 128,-1,11
 435 834 435 834 445 814 c 128,-1,12
 455 794 455 794 457 757 c 1,13,-1
 527 757 l 1,14,15
 526 819 526 819 505 856.5 c 128,-1,16
 484 894 484 894 445.5 911 c 128,-1,17
 407 928 407 928 352 928 c 256,0,1
644 227 m 1,18,-1
 644 0 l 1,19,-1
 60 0 l 1,20,-1
 60 62 l 1,21,-1
 71 62 l 2,22,23
 108 62 108 62 132 69 c 128,-1,24
 156 76 156 76 156 98 c 2,25,-1
 156 612 l 2,26,27
 156 634 156 634 132 641 c 128,-1,28
 108 648 108 648 71 648 c 2,29,-1
 60 648 l 1,30,-1
 60 710 l 1,31,-1
 625 710 l 1,32,-1
 625 508 l 1,33,-1
 561 508 l 1,34,-1
 548 603 l 2,35,36
 546 621 546 621 532.5 630.5 c 128,-1,37
 519 640 519 640 492.5 644 c 128,-1,38
 466 648 466 648 423 648 c 2,39,-1
 249 648 l 1,40,-1
 249 62 l 1,41,-1
 438 62 l 2,42,43
 470 62 470 62 493 64 c 128,-1,44
 516 66 516 66 531 71 c 128,-1,45
 546 76 546 76 553.5 85 c 128,-1,46
 561 94 561 94 563 107 c 2,47,-1
 578 227 l 1,48,-1
 644 227 l 1,18,-1
232 394 m 1,49,50
 281 397 281 397 329.5 399.5 c 128,-1,51
 378 402 378 402 427 404.5 c 128,-1,52
 476 407 476 407 524 409 c 1,53,-1
 524 321 l 1,54,55
 476 324 476 324 427 326.5 c 128,-1,56
 378 329 378 329 329.5 331.5 c 128,-1,57
 281 334 281 334 232 336 c 1,58,-1
 232 394 l 1,49,50
EndSplineSet
Substitution2: "'ss01' Style Set 1 lookup 61 subtable" Einvertedbreve.alt
EndChar

StartChar: F
Encoding: 70 70 67
Width: 690
GlyphClass: 2
Flags: W
AnchorPoint: "Anchor-0" 312 741 basechar 0
LayerCount: 2
Fore
SplineSet
249 648 m 1,0,-1
 249 72 l 2,1,2
 249 69 249 69 257 67.5 c 128,-1,3
 265 66 265 66 278.5 64.5 c 128,-1,4
 292 63 292 63 309 62.5 c 128,-1,5
 326 62 326 62 344 62 c 2,6,-1
 364 62 l 1,7,-1
 364 0 l 1,8,-1
 60 0 l 1,9,-1
 60 62 l 1,10,-1
 71 62 l 2,11,12
 108 62 108 62 132 69 c 128,-1,13
 156 76 156 76 156 98 c 2,14,-1
 156 612 l 2,15,16
 156 634 156 634 132 641 c 128,-1,17
 108 648 108 648 71 648 c 2,18,-1
 60 648 l 1,19,-1
 60 710 l 1,20,-1
 625 710 l 1,21,-1
 625 504 l 1,22,-1
 561 504 l 1,23,-1
 548 603 l 2,24,25
 546 621 546 621 532.5 630.5 c 128,-1,26
 519 640 519 640 492.5 644 c 128,-1,27
 466 648 466 648 423 648 c 2,28,-1
 249 648 l 1,0,-1
232 384 m 1,29,30
 281 387 281 387 329.5 389.5 c 128,-1,31
 378 392 378 392 427 394.5 c 128,-1,32
 476 397 476 397 524 399 c 1,33,-1
 524 311 l 1,34,35
 476 314 476 314 427 316.5 c 128,-1,36
 378 319 378 319 329.5 321.5 c 128,-1,37
 281 324 281 324 232 326 c 1,38,-1
 232 384 l 1,29,30
EndSplineSet
Substitution2: "'ss01' Style Set 1 lookup 61 subtable" F.alt
EndChar

StartChar: G
Encoding: 71 71 68
Width: 846
GlyphClass: 2
Flags: W
AnchorPoint: "Anchor-1" 431 0 basechar 0
AnchorPoint: "Anchor-0" 431 741 basechar 0
LayerCount: 2
Fore
SplineSet
712 237 m 2,0,-1
 712 104 l 1,1,2
 697 85 697 85 670.5 62.5 c 128,-1,3
 644 40 644 40 606 20 c 128,-1,4
 568 0 568 0 520 -12.5 c 128,-1,5
 472 -25 472 -25 416 -25 c 0,6,7
 335 -25 335 -25 269.5 -1 c 128,-1,8
 204 23 204 23 158 71 c 128,-1,9
 112 119 112 119 87 190 c 128,-1,10
 62 261 62 261 62 355 c 0,11,12
 62 450 62 450 88.5 521 c 128,-1,13
 115 592 115 592 162.5 639.5 c 128,-1,14
 210 687 210 687 273 711 c 128,-1,15
 336 735 336 735 409 735 c 0,16,17
 476 735 476 735 528 711 c 128,-1,18
 580 687 580 687 613.5 640.5 c 128,-1,19
 647 594 647 594 657 526 c 1,20,-1
 636 577 l 1,21,-1
 648 720 l 1,22,-1
 718 720 l 1,23,-1
 718 486 l 1,24,-1
 645 486 l 1,25,26
 628 541 628 541 595 582.5 c 128,-1,27
 562 624 562 624 515.5 647.5 c 128,-1,28
 469 671 469 671 410 671 c 0,29,30
 352 671 352 671 306 652.5 c 128,-1,31
 260 634 260 634 227.5 596 c 128,-1,32
 195 558 195 558 178.5 498 c 128,-1,33
 162 438 162 438 162 355 c 256,34,35
 162 272 162 272 179 212 c 128,-1,36
 196 152 196 152 228.5 114 c 128,-1,37
 261 76 261 76 308 57.5 c 128,-1,38
 355 39 355 39 416 39 c 0,39,40
 481 39 481 39 522 52.5 c 128,-1,41
 563 66 563 66 587 84 c 128,-1,42
 611 102 611 102 622 114 c 1,43,-1
 622 237 l 2,44,45
 622 262 622 262 593.5 269.5 c 128,-1,46
 565 277 565 277 526 277 c 2,47,-1
 495 277 l 1,48,-1
 495 339 l 1,49,-1
 812 339 l 1,50,-1
 812 277 l 1,51,-1
 787 277 l 2,52,53
 750 277 750 277 731 269.5 c 128,-1,54
 712 262 712 262 712 237 c 2,0,-1
EndSplineSet
EndChar

StartChar: Gcaron
Encoding: 486 486 73
Width: 846
GlyphClass: 1
Flags: W
LayerCount: 2
Fore
SplineSet
384 805 m 1,0,-1
 458 805 l 1,1,-1
 593 961 l 1,2,-1
 593 981 l 1,3,-1
 553 981 l 1,4,-1
 367 841 l 1,5,-1
 480 846 l 1,6,-1
 298 981 l 1,7,-1
 248 981 l 1,8,-1
 248 961 l 1,9,-1
 384 805 l 1,0,-1
712 237 m 2,10,-1
 712 104 l 1,11,12
 697 85 697 85 670.5 62.5 c 128,-1,13
 644 40 644 40 606 20 c 128,-1,14
 568 0 568 0 520 -12.5 c 128,-1,15
 472 -25 472 -25 416 -25 c 0,16,17
 335 -25 335 -25 269.5 -1 c 128,-1,18
 204 23 204 23 158 71 c 128,-1,19
 112 119 112 119 87 190 c 128,-1,20
 62 261 62 261 62 355 c 0,21,22
 62 450 62 450 88.5 521 c 128,-1,23
 115 592 115 592 162.5 639.5 c 128,-1,24
 210 687 210 687 273 711 c 128,-1,25
 336 735 336 735 409 735 c 0,26,27
 476 735 476 735 528 711 c 128,-1,28
 580 687 580 687 613.5 640.5 c 128,-1,29
 647 594 647 594 657 526 c 1,30,-1
 636 577 l 1,31,-1
 648 720 l 1,32,-1
 718 720 l 1,33,-1
 718 486 l 1,34,-1
 645 486 l 1,35,36
 628 541 628 541 595 582.5 c 128,-1,37
 562 624 562 624 515.5 647.5 c 128,-1,38
 469 671 469 671 410 671 c 0,39,40
 352 671 352 671 306 652.5 c 128,-1,41
 260 634 260 634 227.5 596 c 128,-1,42
 195 558 195 558 178.5 498 c 128,-1,43
 162 438 162 438 162 355 c 256,44,45
 162 272 162 272 179 212 c 128,-1,46
 196 152 196 152 228.5 114 c 128,-1,47
 261 76 261 76 308 57.5 c 128,-1,48
 355 39 355 39 416 39 c 0,49,50
 481 39 481 39 522 52.5 c 128,-1,51
 563 66 563 66 587 84 c 128,-1,52
 611 102 611 102 622 114 c 1,53,-1
 622 237 l 2,54,55
 622 262 622 262 593.5 269.5 c 128,-1,56
 565 277 565 277 526 277 c 2,57,-1
 495 277 l 1,58,-1
 495 339 l 1,59,-1
 812 339 l 1,60,-1
 812 277 l 1,61,-1
 787 277 l 2,62,63
 750 277 750 277 731 269.5 c 128,-1,64
 712 262 712 262 712 237 c 2,10,-1
EndSplineSet
EndChar

StartChar: H
Encoding: 72 72 75
Width: 873
GlyphClass: 2
Flags: W
AnchorPoint: "Anchor-1" 437 0 basechar 0
AnchorPoint: "Anchor-0" 437 741 basechar 0
LayerCount: 2
Fore
SplineSet
229 397 m 1,0,-1
 644 397 l 1,1,-1
 644 335 l 1,2,-1
 229 335 l 1,3,-1
 229 397 l 1,0,-1
60 0 m 1,4,-1
 60 62 l 1,5,-1
 71 62 l 2,6,7
 108 62 108 62 132 69 c 128,-1,8
 156 76 156 76 156 98 c 2,9,-1
 156 612 l 2,10,11
 156 634 156 634 132 641 c 128,-1,12
 108 648 108 648 71 648 c 2,13,-1
 60 648 l 1,14,-1
 60 710 l 1,15,-1
 345 710 l 1,16,-1
 345 648 l 1,17,-1
 336 648 l 2,18,19
 322 648 322 648 306.5 647.5 c 128,-1,20
 291 647 291 647 278 645.5 c 128,-1,21
 265 644 265 644 257 642.5 c 128,-1,22
 249 641 249 641 249 638 c 2,23,-1
 249 72 l 2,24,25
 249 69 249 69 257 67.5 c 128,-1,26
 265 66 265 66 278 64.5 c 128,-1,27
 291 63 291 63 306.5 62.5 c 128,-1,28
 322 62 322 62 336 62 c 2,29,-1
 345 62 l 1,30,-1
 345 0 l 1,31,-1
 60 0 l 1,4,-1
528 0 m 1,32,-1
 528 62 l 1,33,-1
 537 62 l 2,34,35
 551 62 551 62 566.5 62.5 c 128,-1,36
 582 63 582 63 595 64.5 c 128,-1,37
 608 66 608 66 616 67.5 c 128,-1,38
 624 69 624 69 624 72 c 2,39,-1
 624 638 l 2,40,41
 624 641 624 641 616 642.5 c 128,-1,42
 608 644 608 644 595 645.5 c 128,-1,43
 582 647 582 647 566.5 647.5 c 128,-1,44
 551 648 551 648 537 648 c 2,45,-1
 528 648 l 1,46,-1
 528 710 l 1,47,-1
 813 710 l 1,48,-1
 813 648 l 1,49,-1
 802 648 l 2,50,51
 765 648 765 648 741 641 c 128,-1,52
 717 634 717 634 717 612 c 2,53,-1
 717 98 l 2,54,55
 717 76 717 76 741 69 c 128,-1,56
 765 62 765 62 802 62 c 2,57,-1
 813 62 l 1,58,-1
 813 0 l 1,59,-1
 528 0 l 1,32,-1
EndSplineSet
EndChar

StartChar: I
Encoding: 73 73 79
Width: 423
GlyphClass: 2
Flags: W
AnchorPoint: "Anchor-2" 279 0 basechar 0
AnchorPoint: "Anchor-1" 212 0 basechar 0
AnchorPoint: "Anchor-0" 212 741 basechar 0
LayerCount: 2
Fore
SplineSet
165 98 m 2,0,-1
 165 612 l 2,1,2
 165 634 165 634 141 641 c 128,-1,3
 117 648 117 648 80 648 c 2,4,-1
 60 648 l 1,5,-1
 60 710 l 1,6,-1
 363 710 l 1,7,-1
 363 648 l 1,8,-1
 343 648 l 2,9,10
 306 648 306 648 282 641 c 128,-1,11
 258 634 258 634 258 612 c 2,12,-1
 258 98 l 2,13,14
 258 76 258 76 282 69 c 128,-1,15
 306 62 306 62 343 62 c 2,16,-1
 363 62 l 1,17,-1
 363 0 l 1,18,-1
 60 0 l 1,19,-1
 60 62 l 1,20,-1
 80 62 l 2,21,22
 117 62 117 62 141 69 c 128,-1,23
 165 76 165 76 165 98 c 2,0,-1
EndSplineSet
EndChar

StartChar: Icaron
Encoding: 463 463 89
Width: 423
GlyphClass: 1
Flags: W
LayerCount: 2
Fore
SplineSet
175 805 m 1,0,-1
 249 805 l 1,1,-1
 384 961 l 1,2,-1
 384 981 l 1,3,-1
 344 981 l 1,4,-1
 158 841 l 1,5,-1
 271 846 l 1,6,-1
 89 981 l 1,7,-1
 39 981 l 1,8,-1
 39 961 l 1,9,-1
 175 805 l 1,0,-1
165 98 m 2,10,-1
 165 612 l 2,11,12
 165 634 165 634 141 641 c 128,-1,13
 117 648 117 648 80 648 c 2,14,-1
 60 648 l 1,15,-1
 60 710 l 1,16,-1
 363 710 l 1,17,-1
 363 648 l 1,18,-1
 343 648 l 2,19,20
 306 648 306 648 282 641 c 128,-1,21
 258 634 258 634 258 612 c 2,22,-1
 258 98 l 2,23,24
 258 76 258 76 282 69 c 128,-1,25
 306 62 306 62 343 62 c 2,26,-1
 363 62 l 1,27,-1
 363 0 l 1,28,-1
 60 0 l 1,29,-1
 60 62 l 1,30,-1
 80 62 l 2,31,32
 117 62 117 62 141 69 c 128,-1,33
 165 76 165 76 165 98 c 2,10,-1
EndSplineSet
EndChar

StartChar: Idblgrave
Encoding: 520 520 90
Width: 423
GlyphClass: 1
Flags: W
LayerCount: 2
Fore
SplineSet
303 924 m 2,0,-1
 351 819 l 1,1,-1
 351 793 l 1,2,-1
 313 793 l 1,3,-1
 240 855 l 2,4,5
 218 873 218 873 204 889 c 128,-1,6
 190 905 190 905 190 927 c 0,7,8
 190 945 190 945 203.5 958 c 128,-1,9
 217 971 217 971 241 971 c 0,10,11
 256 971 256 971 267.5 965.5 c 128,-1,12
 279 960 279 960 287.5 949.5 c 128,-1,13
 296 939 296 939 303 924 c 2,0,-1
104 924 m 2,14,-1
 149 819 l 1,15,-1
 149 793 l 1,16,-1
 111 793 l 1,17,-1
 38 855 l 2,18,19
 16 873 16 873 2 889 c 128,-1,20
 -12 905 -12 905 -12 927 c 0,21,22
 -12 945 -12 945 1.5 958 c 128,-1,23
 15 971 15 971 39 971 c 0,24,25
 54 971 54 971 66.5 965.5 c 128,-1,26
 79 960 79 960 88 949.5 c 128,-1,27
 97 939 97 939 104 924 c 2,14,-1
165 98 m 2,28,-1
 165 612 l 2,29,30
 165 634 165 634 141 641 c 128,-1,31
 117 648 117 648 80 648 c 2,32,-1
 60 648 l 1,33,-1
 60 710 l 1,34,-1
 363 710 l 1,35,-1
 363 648 l 1,36,-1
 343 648 l 2,37,38
 306 648 306 648 282 641 c 128,-1,39
 258 634 258 634 258 612 c 2,40,-1
 258 98 l 2,41,42
 258 76 258 76 282 69 c 128,-1,43
 306 62 306 62 343 62 c 2,44,-1
 363 62 l 1,45,-1
 363 0 l 1,46,-1
 60 0 l 1,47,-1
 60 62 l 1,48,-1
 80 62 l 2,49,50
 117 62 117 62 141 69 c 128,-1,51
 165 76 165 76 165 98 c 2,28,-1
EndSplineSet
EndChar

StartChar: Iinvertedbreve
Encoding: 522 522 91
Width: 423
GlyphClass: 1
Flags: W
LayerCount: 2
Fore
SplineSet
212 928 m 0,0,1
 156 928 156 928 117.5 911 c 128,-1,2
 79 894 79 894 59 856.5 c 128,-1,3
 39 819 39 819 38 757 c 1,4,-1
 103 757 l 1,5,6
 104 794 104 794 114 814 c 128,-1,7
 124 834 124 834 147.5 841.5 c 128,-1,8
 171 849 171 849 212 849 c 0,9,10
 250 849 250 849 272 841.5 c 128,-1,11
 294 834 294 834 304.5 814 c 128,-1,12
 315 794 315 794 317 757 c 1,13,-1
 387 757 l 1,14,15
 385 819 385 819 364 856.5 c 128,-1,16
 343 894 343 894 304.5 911 c 128,-1,17
 266 928 266 928 212 928 c 0,0,1
165 98 m 2,18,-1
 165 612 l 2,19,20
 165 634 165 634 141 641 c 128,-1,21
 117 648 117 648 80 648 c 2,22,-1
 60 648 l 1,23,-1
 60 710 l 1,24,-1
 363 710 l 1,25,-1
 363 648 l 1,26,-1
 343 648 l 2,27,28
 306 648 306 648 282 641 c 128,-1,29
 258 634 258 634 258 612 c 2,30,-1
 258 98 l 2,31,32
 258 76 258 76 282 69 c 128,-1,33
 306 62 306 62 343 62 c 2,34,-1
 363 62 l 1,35,-1
 363 0 l 1,36,-1
 60 0 l 1,37,-1
 60 62 l 1,38,-1
 80 62 l 2,39,40
 117 62 117 62 141 69 c 128,-1,41
 165 76 165 76 165 98 c 2,18,-1
EndSplineSet
EndChar

StartChar: J
Encoding: 74 74 94
Width: 672
GlyphClass: 2
Flags: W
AnchorPoint: "Anchor-0" 452 741 basechar 0
LayerCount: 2
Fore
SplineSet
317 710 m 1,0,-1
 624 710 l 1,1,-1
 624 648 l 1,2,-1
 604 648 l 2,3,4
 567 648 567 648 543 641 c 128,-1,5
 519 634 519 634 519 612 c 2,6,-1
 519 209 l 2,7,8
 519 146 519 146 501.5 101 c 128,-1,9
 484 56 484 56 451.5 28.5 c 128,-1,10
 419 1 419 1 374.5 -12 c 128,-1,11
 330 -25 330 -25 275 -25 c 0,12,13
 217 -25 217 -25 174 -11.5 c 128,-1,14
 131 2 131 2 102 20.5 c 128,-1,15
 73 39 73 39 55 54 c 1,16,-1
 55 226 l 1,17,-1
 160 226 l 1,18,-1
 160 56 l 1,19,20
 142 61 142 61 130.5 68.5 c 128,-1,21
 119 76 119 76 115 82.5 c 128,-1,22
 111 89 111 89 114 91.5 c 128,-1,23
 117 94 117 94 128 91 c 1,24,25
 142 79 142 79 162.5 66.5 c 128,-1,26
 183 54 183 54 211 45.5 c 128,-1,27
 239 37 239 37 275 37 c 0,28,29
 324 37 324 37 357.5 50.5 c 128,-1,30
 391 64 391 64 408.5 101.5 c 128,-1,31
 426 139 426 139 426 209 c 2,32,-1
 426 612 l 2,33,34
 426 627 426 627 415 634.5 c 128,-1,35
 404 642 404 642 385 645 c 128,-1,36
 366 648 366 648 341 648 c 2,37,-1
 317 648 l 1,38,-1
 317 710 l 1,0,-1
EndSplineSet
EndChar

StartChar: K
Encoding: 75 75 96
Width: 793
GlyphClass: 2
Flags: W
AnchorPoint: "Anchor-1" 408 0 basechar 0
AnchorPoint: "Anchor-0" 408 741 basechar 0
LayerCount: 2
Fore
SplineSet
60 0 m 1,0,-1
 60 62 l 1,1,-1
 71 62 l 2,2,3
 108 62 108 62 132 69 c 128,-1,4
 156 76 156 76 156 98 c 2,5,-1
 156 612 l 2,6,7
 156 634 156 634 132 641 c 128,-1,8
 108 648 108 648 71 648 c 2,9,-1
 60 648 l 1,10,-1
 60 710 l 1,11,-1
 340 710 l 1,12,-1
 340 648 l 1,13,-1
 331 648 l 2,14,15
 319 648 319 648 304.5 647.5 c 128,-1,16
 290 647 290 647 277.5 645.5 c 128,-1,17
 265 644 265 644 257 642.5 c 128,-1,18
 249 641 249 641 249 638 c 2,19,-1
 249 72 l 2,20,21
 249 69 249 69 257 67.5 c 128,-1,22
 265 66 265 66 277.5 64.5 c 128,-1,23
 290 63 290 63 304.5 62.5 c 128,-1,24
 319 62 319 62 331 62 c 2,25,-1
 340 62 l 1,26,-1
 340 0 l 1,27,-1
 60 0 l 1,0,-1
463 0 m 1,28,-1
 463 62 l 1,29,-1
 472 62 l 2,30,31
 493 62 493 62 512.5 63 c 128,-1,32
 532 64 532 64 544.5 66.5 c 128,-1,33
 557 69 557 69 557 72 c 2,34,-1
 299 343 l 1,35,-1
 299 373 l 1,36,-1
 569 637 l 2,37,38
 569 641 569 641 557 643 c 128,-1,39
 545 645 545 645 526 646.5 c 128,-1,40
 507 648 507 648 486 648 c 2,41,-1
 477 648 l 1,42,-1
 477 710 l 1,43,-1
 737 710 l 1,44,-1
 737 648 l 1,45,-1
 706 648 l 2,46,47
 690 648 690 648 677 645 c 128,-1,48
 664 642 664 642 653 636.5 c 128,-1,49
 642 631 642 631 631 619 c 2,50,-1
 360 356 l 1,51,-1
 368 399 l 1,52,-1
 671 83 l 2,53,54
 680 74 680 74 690.5 69.5 c 128,-1,55
 701 65 701 65 714.5 63.5 c 128,-1,56
 728 62 728 62 745 62 c 2,57,-1
 763 62 l 1,58,-1
 763 0 l 1,59,-1
 463 0 l 1,28,-1
EndSplineSet
EndChar

StartChar: L
Encoding: 76 76 98
Width: 664
GlyphClass: 2
Flags: W
AnchorPoint: "Anchor-2" 505 710 basechar 0
AnchorPoint: "Anchor-1" 407 0 basechar 0
AnchorPoint: "Anchor-0" 407 741 basechar 0
LayerCount: 2
Fore
SplineSet
356 710 m 1,0,-1
 60 710 l 1,1,-1
 60 648 l 1,2,-1
 71 648 l 2,3,4
 108 648 108 648 132 641 c 128,-1,5
 156 634 156 634 156 612 c 2,6,-1
 156 98 l 2,7,8
 156 76 156 76 132 69 c 128,-1,9
 108 62 108 62 71 62 c 2,10,-1
 60 62 l 1,11,-1
 60 0 l 1,12,-1
 614 0 l 1,13,-1
 614 236 l 1,14,-1
 548 236 l 1,15,-1
 533 107 l 2,16,17
 531 89 531 89 518 79 c 128,-1,18
 505 69 505 69 478 65.5 c 128,-1,19
 451 62 451 62 408 62 c 2,20,-1
 249 62 l 1,21,-1
 249 612 l 2,22,23
 249 634 249 634 275 641 c 128,-1,24
 301 648 301 648 340 648 c 2,25,-1
 356 648 l 1,26,-1
 356 710 l 1,0,-1
EndSplineSet
EndChar

StartChar: M
Encoding: 77 77 104
Width: 1004
GlyphClass: 2
Flags: W
AnchorPoint: "Anchor-1" 490 0 basechar 0
LayerCount: 2
Fore
SplineSet
62 0 m 1,0,-1
 62 62 l 1,1,-1
 73 62 l 2,2,3
 98 62 98 62 117 65 c 128,-1,4
 136 68 136 68 147 76 c 128,-1,5
 158 84 158 84 158 98 c 2,6,-1
 158 612 l 2,7,8
 158 627 158 627 147 634.5 c 128,-1,9
 136 642 136 642 117 645 c 128,-1,10
 98 648 98 648 73 648 c 2,11,-1
 62 648 l 1,12,-1
 62 710 l 1,13,-1
 312 710 l 1,14,-1
 510 95 l 1,15,-1
 496 88 l 1,16,-1
 699 710 l 1,17,-1
 942 710 l 1,18,-1
 942 648 l 1,19,-1
 931 648 l 2,20,21
 894 648 894 648 870 641 c 128,-1,22
 846 634 846 634 846 612 c 2,23,-1
 846 98 l 2,24,25
 846 76 846 76 870 69 c 128,-1,26
 894 62 894 62 931 62 c 2,27,-1
 942 62 l 1,28,-1
 942 0 l 1,29,-1
 669 0 l 1,30,-1
 669 62 l 1,31,-1
 678 62 l 2,32,33
 692 62 692 62 710 63 c 128,-1,34
 728 64 728 64 741.5 66.5 c 128,-1,35
 755 69 755 69 755 72 c 2,36,-1
 755 691 l 1,37,-1
 764 702 l 1,38,-1
 524 -2 l 1,39,-1
 458 -2 l 1,40,-1
 218 701 l 1,41,-1
 228 699 l 1,42,-1
 228 72 l 2,43,44
 228 69 228 69 241 66.5 c 128,-1,45
 254 64 254 64 271.5 63 c 128,-1,46
 289 62 289 62 300 62 c 2,47,-1
 304 62 l 1,48,-1
 304 0 l 1,49,-1
 62 0 l 1,0,-1
EndSplineSet
EndChar

StartChar: N
Encoding: 78 78 106
Width: 848
GlyphClass: 2
Flags: W
AnchorPoint: "Anchor-1" 434 0 basechar 0
AnchorPoint: "Anchor-0" 434 741 basechar 0
LayerCount: 2
Fore
SplineSet
62 0 m 1,0,-1
 62 62 l 1,1,-1
 73 62 l 2,2,3
 98 62 98 62 117 65 c 128,-1,4
 136 68 136 68 147 76 c 128,-1,5
 158 84 158 84 158 98 c 2,6,-1
 158 612 l 2,7,8
 158 627 158 627 147 634.5 c 128,-1,9
 136 642 136 642 117 645 c 128,-1,10
 98 648 98 648 73 648 c 2,11,-1
 62 648 l 1,12,-1
 62 710 l 1,13,-1
 287 710 l 1,14,-1
 645 92 l 1,15,-1
 632 86 l 1,16,-1
 632 638 l 2,17,18
 632 642 632 642 618.5 644 c 128,-1,19
 605 646 605 646 586 647 c 128,-1,20
 567 648 567 648 550 648 c 2,21,-1
 536 648 l 1,22,-1
 536 710 l 1,23,-1
 798 710 l 1,24,-1
 798 648 l 1,25,-1
 787 648 l 2,26,27
 763 648 763 648 743.5 645 c 128,-1,28
 724 642 724 642 713 634.5 c 128,-1,29
 702 627 702 627 702 612 c 2,30,-1
 702 0 l 1,31,-1
 597 0 l 1,32,-1
 212 666 l 1,33,-1
 228 669 l 1,34,-1
 228 72 l 2,35,36
 228 69 228 69 241.5 66.5 c 128,-1,37
 255 64 255 64 274.5 63 c 128,-1,38
 294 62 294 62 310 62 c 2,39,-1
 324 62 l 1,40,-1
 324 0 l 1,41,-1
 62 0 l 1,0,-1
EndSplineSet
EndChar

StartChar: Ncaron
Encoding: 327 327 110
Width: 848
GlyphClass: 1
Flags: W
LayerCount: 2
Fore
SplineSet
397 805 m 1,0,-1
 471 805 l 1,1,-1
 606 961 l 1,2,-1
 606 981 l 1,3,-1
 566 981 l 1,4,-1
 380 841 l 1,5,-1
 493 846 l 1,6,-1
 311 981 l 1,7,-1
 261 981 l 1,8,-1
 261 961 l 1,9,-1
 397 805 l 1,0,-1
62 0 m 1,10,-1
 62 62 l 1,11,-1
 73 62 l 2,12,13
 98 62 98 62 117 65 c 128,-1,14
 136 68 136 68 147 76 c 128,-1,15
 158 84 158 84 158 98 c 2,16,-1
 158 612 l 2,17,18
 158 627 158 627 147 634.5 c 128,-1,19
 136 642 136 642 117 645 c 128,-1,20
 98 648 98 648 73 648 c 2,21,-1
 62 648 l 1,22,-1
 62 710 l 1,23,-1
 287 710 l 1,24,-1
 645 92 l 1,25,-1
 632 86 l 1,26,-1
 632 638 l 2,27,28
 632 642 632 642 618.5 644 c 128,-1,29
 605 646 605 646 586 647 c 128,-1,30
 567 648 567 648 550 648 c 2,31,-1
 536 648 l 1,32,-1
 536 710 l 1,33,-1
 798 710 l 1,34,-1
 798 648 l 1,35,-1
 787 648 l 2,36,37
 763 648 763 648 743.5 645 c 128,-1,38
 724 642 724 642 713 634.5 c 128,-1,39
 702 627 702 627 702 612 c 2,40,-1
 702 0 l 1,41,-1
 597 0 l 1,42,-1
 212 666 l 1,43,-1
 228 669 l 1,44,-1
 228 72 l 2,45,46
 228 69 228 69 241.5 66.5 c 128,-1,47
 255 64 255 64 274.5 63 c 128,-1,48
 294 62 294 62 310 62 c 2,49,-1
 324 62 l 1,50,-1
 324 0 l 1,51,-1
 62 0 l 1,10,-1
EndSplineSet
EndChar

StartChar: O
Encoding: 79 79 114
Width: 832
GlyphClass: 2
Flags: W
AnchorPoint: "Anchor-2" 458 0 basechar 0
AnchorPoint: "Anchor-1" 416 0 basechar 0
AnchorPoint: "Anchor-0" 416 741 basechar 0
LayerCount: 2
Fore
SplineSet
416 -25 m 0,0,1
 337 -25 337 -25 272 -0.5 c 128,-1,2
 207 24 207 24 160 72.5 c 128,-1,3
 113 121 113 121 87.5 192 c 128,-1,4
 62 263 62 263 62 355 c 0,5,6
 62 448 62 448 87.5 518.5 c 128,-1,7
 113 589 113 589 160 637.5 c 128,-1,8
 207 686 207 686 272 710.5 c 128,-1,9
 337 735 337 735 416 735 c 0,10,11
 496 735 496 735 561 710.5 c 128,-1,12
 626 686 626 686 672.5 637.5 c 128,-1,13
 719 589 719 589 744.5 518.5 c 128,-1,14
 770 448 770 448 770 355 c 0,15,16
 770 263 770 263 744.5 192 c 128,-1,17
 719 121 719 121 672.5 72.5 c 128,-1,18
 626 24 626 24 561 -0.5 c 128,-1,19
 496 -25 496 -25 416 -25 c 0,0,1
416 39 m 256,20,21
 478 39 478 39 525.5 58 c 128,-1,22
 573 77 573 77 605 115.5 c 128,-1,23
 637 154 637 154 653.5 214 c 128,-1,24
 670 274 670 274 670 355 c 256,25,26
 670 436 670 436 653.5 496 c 128,-1,27
 637 556 637 556 605 594.5 c 128,-1,28
 573 633 573 633 525.5 652 c 128,-1,29
 478 671 478 671 416 671 c 256,30,31
 354 671 354 671 306.5 652 c 128,-1,32
 259 633 259 633 227 594.5 c 128,-1,33
 195 556 195 556 178.5 496 c 128,-1,34
 162 436 162 436 162 355 c 256,35,36
 162 274 162 274 178.5 214 c 128,-1,37
 195 154 195 154 227 115.5 c 128,-1,38
 259 77 259 77 306.5 58 c 128,-1,39
 354 39 354 39 416 39 c 256,20,21
EndSplineSet
EndChar

StartChar: Ohorn
Encoding: 416 416 123
Width: 881
GlyphClass: 2
Flags: W
AnchorPoint: "Anchor-1" 437 -35 basechar 0
AnchorPoint: "Anchor-0" 437 742 basechar 0
LayerCount: 2
Fore
SplineSet
416 39 m 256,0,1
 478 39 478 39 525.5 58 c 128,-1,2
 573 77 573 77 605 115.5 c 128,-1,3
 637 154 637 154 653.5 214 c 128,-1,4
 670 274 670 274 670 355 c 256,5,6
 670 436 670 436 653.5 496 c 128,-1,7
 637 556 637 556 605 594.5 c 128,-1,8
 573 633 573 633 525.5 652 c 128,-1,9
 478 671 478 671 416 671 c 256,10,11
 354 671 354 671 306.5 652 c 128,-1,12
 259 633 259 633 227 594.5 c 128,-1,13
 195 556 195 556 178.5 496 c 128,-1,14
 162 436 162 436 162 355 c 256,15,16
 162 274 162 274 178.5 214 c 128,-1,17
 195 154 195 154 227 115.5 c 128,-1,18
 259 77 259 77 306.5 58 c 128,-1,19
 354 39 354 39 416 39 c 256,0,1
618 630 m 1,20,-1
 582 668 l 1,21,22
 623 648 623 648 657 619.5 c 128,-1,23
 691 591 691 591 716.5 553 c 128,-1,24
 742 515 742 515 756 466 c 128,-1,25
 770 417 770 417 770 355 c 0,26,27
 770 263 770 263 744.5 192 c 128,-1,28
 719 121 719 121 672.5 72.5 c 128,-1,29
 626 24 626 24 561 -0.5 c 128,-1,30
 496 -25 496 -25 416 -25 c 0,31,32
 337 -25 337 -25 272 -0.5 c 128,-1,33
 207 24 207 24 160 72.5 c 128,-1,34
 113 121 113 121 87.5 192 c 128,-1,35
 62 263 62 263 62 355 c 0,36,37
 62 448 62 448 87.5 518.5 c 128,-1,38
 113 589 113 589 160 637.5 c 128,-1,39
 207 686 207 686 272 710.5 c 128,-1,40
 337 735 337 735 416 735 c 0,41,42
 467 735 467 735 504 729 c 128,-1,43
 541 723 541 723 570 714.5 c 128,-1,44
 599 706 599 706 624.5 700 c 128,-1,45
 650 694 650 694 678 694 c 0,46,47
 710 694 710 694 734 708 c 128,-1,48
 758 722 758 722 774.5 748.5 c 128,-1,49
 791 775 791 775 801 813 c 128,-1,50
 811 851 811 851 814 899 c 1,51,-1
 901 899 l 1,52,53
 898 827 898 827 882.5 775.5 c 128,-1,54
 867 724 867 724 841.5 691 c 128,-1,55
 816 658 816 658 785 642.5 c 128,-1,56
 754 627 754 627 721 627 c 0,57,58
 702 627 702 627 683.5 630.5 c 128,-1,59
 665 634 665 634 647.5 640.5 c 128,-1,60
 630 647 630 647 612 655.5 c 128,-1,61
 594 664 594 664 574 673 c 1,62,-1
 618 663 l 1,63,-1
 618 630 l 1,20,-1
EndSplineSet
EndChar

StartChar: Ocaron
Encoding: 465 465 124
Width: 832
GlyphClass: 1
Flags: W
LayerCount: 2
Fore
SplineSet
379 805 m 1,0,-1
 453 805 l 1,1,-1
 588 961 l 1,2,-1
 588 981 l 1,3,-1
 548 981 l 1,4,-1
 362 841 l 1,5,-1
 475 846 l 1,6,-1
 293 981 l 1,7,-1
 243 981 l 1,8,-1
 243 961 l 1,9,-1
 379 805 l 1,0,-1
416 -25 m 0,10,11
 336 -25 336 -25 271 -0.5 c 128,-1,12
 206 24 206 24 159 72.5 c 128,-1,13
 112 121 112 121 87 192 c 128,-1,14
 62 263 62 263 62 355 c 0,15,16
 62 448 62 448 87 518.5 c 128,-1,17
 112 589 112 589 159 637.5 c 128,-1,18
 206 686 206 686 271 710.5 c 128,-1,19
 336 735 336 735 416 735 c 0,20,21
 495 735 495 735 560 710.5 c 128,-1,22
 625 686 625 686 672 637.5 c 128,-1,23
 719 589 719 589 744.5 518.5 c 128,-1,24
 770 448 770 448 770 355 c 0,25,26
 770 263 770 263 744.5 192 c 128,-1,27
 719 121 719 121 672 72.5 c 128,-1,28
 625 24 625 24 560 -0.5 c 128,-1,29
 495 -25 495 -25 416 -25 c 0,10,11
416 39 m 256,30,31
 478 39 478 39 525.5 58 c 128,-1,32
 573 77 573 77 605 115.5 c 128,-1,33
 637 154 637 154 653.5 214 c 128,-1,34
 670 274 670 274 670 355 c 256,35,36
 670 436 670 436 653.5 496 c 128,-1,37
 637 556 637 556 605 594.5 c 128,-1,38
 573 633 573 633 525.5 652 c 128,-1,39
 478 671 478 671 416 671 c 256,40,41
 354 671 354 671 306.5 652 c 128,-1,42
 259 633 259 633 226.5 594.5 c 128,-1,43
 194 556 194 556 178 496 c 128,-1,44
 162 436 162 436 162 355 c 256,45,46
 162 274 162 274 178 214 c 128,-1,47
 194 154 194 154 226.5 115.5 c 128,-1,48
 259 77 259 77 306.5 58 c 128,-1,49
 354 39 354 39 416 39 c 256,30,31
EndSplineSet
EndChar

StartChar: Oogonek
Encoding: 490 490 125
Width: 832
GlyphClass: 1
Flags: W
LayerCount: 2
Fore
SplineSet
416 39 m 256,0,1
 478 39 478 39 525.5 58 c 128,-1,2
 573 77 573 77 605 115.5 c 128,-1,3
 637 154 637 154 653.5 214 c 128,-1,4
 670 274 670 274 670 355 c 256,5,6
 670 436 670 436 653.5 496 c 128,-1,7
 637 556 637 556 605 594.5 c 128,-1,8
 573 633 573 633 525.5 652 c 128,-1,9
 478 671 478 671 416 671 c 256,10,11
 354 671 354 671 306.5 652 c 128,-1,12
 259 633 259 633 227 594.5 c 128,-1,13
 195 556 195 556 178.5 496 c 128,-1,14
 162 436 162 436 162 355 c 256,15,16
 162 274 162 274 178.5 214 c 128,-1,17
 195 154 195 154 227 115.5 c 128,-1,18
 259 77 259 77 306.5 58 c 128,-1,19
 354 39 354 39 416 39 c 256,0,1
668 68 m 0,20,21
 647 47 647 47 620 27 c 128,-1,22
 593 7 593 7 564.5 -13 c 128,-1,23
 536 -33 536 -33 512 -54.5 c 128,-1,24
 488 -76 488 -76 473 -99.5 c 128,-1,25
 458 -123 458 -123 458 -150 c 0,26,27
 458 -172 458 -172 471 -183.5 c 128,-1,28
 484 -195 484 -195 508 -195 c 0,29,30
 540 -195 540 -195 562.5 -179 c 128,-1,31
 585 -163 585 -163 598 -147 c 1,32,-1
 636 -182 l 1,33,34
 619 -202 619 -202 597.5 -218 c 128,-1,35
 576 -234 576 -234 549 -243 c 128,-1,36
 522 -252 522 -252 485 -252 c 0,37,38
 449 -252 449 -252 419.5 -242.5 c 128,-1,39
 390 -233 390 -233 373 -213 c 128,-1,40
 356 -193 356 -193 356 -162 c 0,41,42
 356 -138 356 -138 364.5 -119.5 c 128,-1,43
 373 -101 373 -101 395 -81 c 128,-1,44
 417 -61 417 -61 456 -34 c 128,-1,45
 495 -7 495 -7 556 33 c 1,46,-1
 540 -7 l 1,47,48
 521 -13 521 -13 501 -17 c 128,-1,49
 481 -21 481 -21 460 -23 c 128,-1,50
 439 -25 439 -25 416 -25 c 0,51,52
 337 -25 337 -25 272 -0.5 c 128,-1,53
 207 24 207 24 160 72.5 c 128,-1,54
 113 121 113 121 87.5 192 c 128,-1,55
 62 263 62 263 62 355 c 0,56,57
 62 448 62 448 87.5 518.5 c 128,-1,58
 113 589 113 589 160 637.5 c 128,-1,59
 207 686 207 686 272 710.5 c 128,-1,60
 337 735 337 735 416 735 c 0,61,62
 496 735 496 735 561 710.5 c 128,-1,63
 626 686 626 686 672.5 637.5 c 128,-1,64
 719 589 719 589 744.5 518.5 c 128,-1,65
 770 448 770 448 770 355 c 0,66,67
 770 292 770 292 758 239 c 128,-1,68
 746 186 746 186 723.5 143.5 c 128,-1,69
 701 101 701 101 668 68 c 0,20,21
EndSplineSet
EndChar

StartChar: Odblgrave
Encoding: 524 524 126
Width: 832
GlyphClass: 1
Flags: W
LayerCount: 2
Fore
SplineSet
507 924 m 2,0,-1
 555 819 l 1,1,-1
 555 793 l 1,2,-1
 517 793 l 1,3,-1
 444 855 l 2,4,5
 422 873 422 873 408 889 c 128,-1,6
 394 905 394 905 394 927 c 0,7,8
 394 945 394 945 408 958 c 128,-1,9
 422 971 422 971 445 971 c 0,10,11
 461 971 461 971 472.5 965.5 c 128,-1,12
 484 960 484 960 492.5 949.5 c 128,-1,13
 501 939 501 939 507 924 c 2,0,-1
308 924 m 2,14,-1
 353 819 l 1,15,-1
 353 793 l 1,16,-1
 315 793 l 1,17,-1
 242 855 l 2,18,19
 220 873 220 873 206 889 c 128,-1,20
 192 905 192 905 192 927 c 0,21,22
 192 945 192 945 206 958 c 128,-1,23
 220 971 220 971 243 971 c 0,24,25
 259 971 259 971 271 965.5 c 128,-1,26
 283 960 283 960 292.5 949.5 c 128,-1,27
 302 939 302 939 308 924 c 2,14,-1
416 -25 m 0,28,29
 337 -25 337 -25 272 -0.5 c 128,-1,30
 207 24 207 24 160 72.5 c 128,-1,31
 113 121 113 121 87.5 192 c 128,-1,32
 62 263 62 263 62 355 c 0,33,34
 62 448 62 448 87.5 518.5 c 128,-1,35
 113 589 113 589 160 637.5 c 128,-1,36
 207 686 207 686 272 710.5 c 128,-1,37
 337 735 337 735 416 735 c 0,38,39
 496 735 496 735 561 710.5 c 128,-1,40
 626 686 626 686 672.5 637.5 c 128,-1,41
 719 589 719 589 744.5 518.5 c 128,-1,42
 770 448 770 448 770 355 c 0,43,44
 770 263 770 263 744.5 192 c 128,-1,45
 719 121 719 121 672.5 72.5 c 128,-1,46
 626 24 626 24 561 -0.5 c 128,-1,47
 496 -25 496 -25 416 -25 c 0,28,29
416 39 m 256,48,49
 478 39 478 39 525.5 58 c 128,-1,50
 573 77 573 77 605 115.5 c 128,-1,51
 637 154 637 154 653.5 214 c 128,-1,52
 670 274 670 274 670 355 c 256,53,54
 670 436 670 436 653.5 496 c 128,-1,55
 637 556 637 556 605 594.5 c 128,-1,56
 573 633 573 633 525.5 652 c 128,-1,57
 478 671 478 671 416 671 c 256,58,59
 354 671 354 671 306.5 652 c 128,-1,60
 259 633 259 633 227 594.5 c 128,-1,61
 195 556 195 556 178.5 496 c 128,-1,62
 162 436 162 436 162 355 c 256,63,64
 162 274 162 274 178.5 214 c 128,-1,65
 195 154 195 154 227 115.5 c 128,-1,66
 259 77 259 77 306.5 58 c 128,-1,67
 354 39 354 39 416 39 c 256,48,49
EndSplineSet
EndChar

StartChar: Oinvertedbreve
Encoding: 526 526 127
Width: 832
GlyphClass: 1
Flags: W
LayerCount: 2
Fore
SplineSet
416 928 m 256,0,1
 361 928 361 928 322.5 911 c 128,-1,2
 284 894 284 894 263.5 856.5 c 128,-1,3
 243 819 243 819 242 757 c 1,4,-1
 307 757 l 1,5,6
 309 794 309 794 319 814 c 128,-1,7
 329 834 329 834 352 841.5 c 128,-1,8
 375 849 375 849 416 849 c 0,9,10
 455 849 455 849 477 841.5 c 128,-1,11
 499 834 499 834 509 814 c 128,-1,12
 519 794 519 794 521 757 c 1,13,-1
 591 757 l 1,14,15
 590 819 590 819 569 856.5 c 128,-1,16
 548 894 548 894 509.5 911 c 128,-1,17
 471 928 471 928 416 928 c 256,0,1
416 -25 m 0,18,19
 337 -25 337 -25 272 -0.5 c 128,-1,20
 207 24 207 24 160 72.5 c 128,-1,21
 113 121 113 121 87.5 192 c 128,-1,22
 62 263 62 263 62 355 c 0,23,24
 62 448 62 448 87.5 518.5 c 128,-1,25
 113 589 113 589 160 637.5 c 128,-1,26
 207 686 207 686 272 710.5 c 128,-1,27
 337 735 337 735 416 735 c 0,28,29
 496 735 496 735 561 710.5 c 128,-1,30
 626 686 626 686 672.5 637.5 c 128,-1,31
 719 589 719 589 744.5 518.5 c 128,-1,32
 770 448 770 448 770 355 c 0,33,34
 770 263 770 263 744.5 192 c 128,-1,35
 719 121 719 121 672.5 72.5 c 128,-1,36
 626 24 626 24 561 -0.5 c 128,-1,37
 496 -25 496 -25 416 -25 c 0,18,19
416 39 m 256,38,39
 478 39 478 39 525.5 58 c 128,-1,40
 573 77 573 77 605 115.5 c 128,-1,41
 637 154 637 154 653.5 214 c 128,-1,42
 670 274 670 274 670 355 c 256,43,44
 670 436 670 436 653.5 496 c 128,-1,45
 637 556 637 556 605 594.5 c 128,-1,46
 573 633 573 633 525.5 652 c 128,-1,47
 478 671 478 671 416 671 c 256,48,49
 354 671 354 671 306.5 652 c 128,-1,50
 259 633 259 633 227 594.5 c 128,-1,51
 195 556 195 556 178.5 496 c 128,-1,52
 162 436 162 436 162 355 c 256,53,54
 162 274 162 274 178.5 214 c 128,-1,55
 195 154 195 154 227 115.5 c 128,-1,56
 259 77 259 77 306.5 58 c 128,-1,57
 354 39 354 39 416 39 c 256,38,39
EndSplineSet
EndChar

StartChar: P
Encoding: 80 80 147
Width: 702
GlyphClass: 2
Flags: W
AnchorPoint: "Anchor-0" 319 741 basechar 0
LayerCount: 2
Fore
SplineSet
249 72 m 2,0,-1
 249 648 l 1,1,-1
 397 648 l 2,2,3
 447 648 447 648 479.5 631.5 c 128,-1,4
 512 615 512 615 527.5 582 c 128,-1,5
 543 549 543 549 543 498 c 0,6,7
 543 446 543 446 527.5 412 c 128,-1,8
 512 378 512 378 479.5 361 c 128,-1,9
 447 344 447 344 397 344 c 2,10,-1
 223 344 l 1,11,-1
 223 282 l 1,12,-1
 397 282 l 2,13,14
 470 282 470 282 525 306 c 128,-1,15
 580 330 580 330 611 378.5 c 128,-1,16
 642 427 642 427 642 498 c 0,17,18
 642 608 642 608 577 659 c 128,-1,19
 512 710 512 710 397 710 c 2,20,-1
 60 710 l 1,21,-1
 60 648 l 1,22,-1
 71 648 l 2,23,24
 108 648 108 648 132 641 c 128,-1,25
 156 634 156 634 156 612 c 2,26,-1
 156 98 l 2,27,28
 156 76 156 76 132 69 c 128,-1,29
 108 62 108 62 71 62 c 2,30,-1
 60 62 l 1,31,-1
 60 0 l 1,32,-1
 364 0 l 1,33,-1
 364 62 l 1,34,-1
 344 62 l 2,35,36
 326 62 326 62 309 62.5 c 128,-1,37
 292 63 292 63 278.5 64.5 c 128,-1,38
 265 66 265 66 257 67.5 c 128,-1,39
 249 69 249 69 249 72 c 2,0,-1
EndSplineSet
EndChar

StartChar: Q
Encoding: 81 81 148
Width: 832
GlyphClass: 1
Flags: W
LayerCount: 2
Fore
SplineSet
377 -3 m 1,0,-1
 447 10 l 1,1,2
 449 -50 449 -50 464.5 -87 c 128,-1,3
 480 -124 480 -124 513.5 -141.5 c 128,-1,4
 547 -159 547 -159 602 -159 c 0,5,6
 635 -159 635 -159 664 -155 c 128,-1,7
 693 -151 693 -151 719.5 -144.5 c 128,-1,8
 746 -138 746 -138 769 -132 c 1,9,-1
 769 -224 l 1,10,11
 738 -230 738 -230 695 -234.5 c 128,-1,12
 652 -239 652 -239 610 -239 c 0,13,14
 531 -239 531 -239 479.5 -212 c 128,-1,15
 428 -185 428 -185 402.5 -132 c 128,-1,16
 377 -79 377 -79 377 -3 c 1,0,-1
416 -25 m 0,17,18
 337 -25 337 -25 272 -0.5 c 128,-1,19
 207 24 207 24 160 72.5 c 128,-1,20
 113 121 113 121 87.5 192 c 128,-1,21
 62 263 62 263 62 355 c 0,22,23
 62 448 62 448 87.5 518.5 c 128,-1,24
 113 589 113 589 160 637.5 c 128,-1,25
 207 686 207 686 272 710.5 c 128,-1,26
 337 735 337 735 416 735 c 0,27,28
 496 735 496 735 561 710.5 c 128,-1,29
 626 686 626 686 672.5 637.5 c 128,-1,30
 719 589 719 589 744.5 518.5 c 128,-1,31
 770 448 770 448 770 355 c 0,32,33
 770 263 770 263 744.5 192 c 128,-1,34
 719 121 719 121 672.5 72.5 c 128,-1,35
 626 24 626 24 561 -0.5 c 128,-1,36
 496 -25 496 -25 416 -25 c 0,17,18
416 39 m 256,37,38
 478 39 478 39 525 58 c 128,-1,39
 572 77 572 77 603.5 115.5 c 128,-1,40
 635 154 635 154 652 214 c 128,-1,41
 669 274 669 274 670 355 c 0,42,43
 672 436 672 436 655.5 496 c 128,-1,44
 639 556 639 556 606.5 594.5 c 128,-1,45
 574 633 574 633 526 652 c 128,-1,46
 478 671 478 671 416 671 c 256,47,48
 354 671 354 671 306.5 652 c 128,-1,49
 259 633 259 633 227 594.5 c 128,-1,50
 195 556 195 556 178.5 496 c 128,-1,51
 162 436 162 436 162 355 c 256,52,53
 162 274 162 274 178.5 214 c 128,-1,54
 195 154 195 154 227 115.5 c 128,-1,55
 259 77 259 77 306.5 58 c 128,-1,56
 354 39 354 39 416 39 c 256,37,38
EndSplineSet
EndChar

StartChar: R
Encoding: 82 82 149
Width: 771
GlyphClass: 2
Flags: W
AnchorPoint: "Anchor-1" 432 0 basechar 0
AnchorPoint: "Anchor-0" 432 741 basechar 0
LayerCount: 2
Fore
SplineSet
397 321 m 1,0,-1
 581 0 l 1,1,-1
 736 0 l 1,2,-1
 736 62 l 1,3,-1
 726 62 l 2,4,5
 703 62 703 62 684.5 66.5 c 128,-1,6
 666 71 666 71 650 84.5 c 128,-1,7
 634 98 634 98 618 123 c 2,8,-1
 483 349 l 1,9,-1
 397 321 l 1,0,-1
249 72 m 2,10,-1
 249 648 l 1,11,-1
 397 648 l 2,12,13
 447 648 447 648 479.5 632.5 c 128,-1,14
 512 617 512 617 527.5 586 c 128,-1,15
 543 555 543 555 543 508 c 0,16,17
 543 462 543 462 527 428.5 c 128,-1,18
 511 395 511 395 477.5 377 c 128,-1,19
 444 359 444 359 391 359 c 2,20,-1
 239 359 l 1,21,-1
 239 300 l 1,22,-1
 432 300 l 2,23,24
 436 300 436 300 439 302.5 c 128,-1,25
 442 305 442 305 446.5 309.5 c 128,-1,26
 451 314 451 314 457 318 c 0,27,28
 513 332 513 332 554.5 359 c 128,-1,29
 596 386 596 386 619 426.5 c 128,-1,30
 642 467 642 467 642 519 c 0,31,32
 642 582 642 582 613 624.5 c 128,-1,33
 584 667 584 667 530 688.5 c 128,-1,34
 476 710 476 710 399 710 c 2,35,-1
 60 710 l 1,36,-1
 60 648 l 1,37,-1
 71 648 l 2,38,39
 108 648 108 648 132 641 c 128,-1,40
 156 634 156 634 156 612 c 2,41,-1
 156 98 l 2,42,43
 156 76 156 76 132 69 c 128,-1,44
 108 62 108 62 71 62 c 2,45,-1
 60 62 l 1,46,-1
 60 0 l 1,47,-1
 364 0 l 1,48,-1
 364 62 l 1,49,-1
 344 62 l 2,50,51
 326 62 326 62 309 62.5 c 128,-1,52
 292 63 292 63 278.5 64.5 c 128,-1,53
 265 66 265 66 257 67.5 c 128,-1,54
 249 69 249 69 249 72 c 2,10,-1
EndSplineSet
EndChar

StartChar: Rcaron
Encoding: 344 344 152
Width: 771
GlyphClass: 1
Flags: W
LayerCount: 2
Fore
SplineSet
335 805 m 1,0,-1
 409 805 l 1,1,-1
 544 961 l 1,2,-1
 544 981 l 1,3,-1
 504 981 l 1,4,-1
 318 841 l 1,5,-1
 431 846 l 1,6,-1
 249 981 l 1,7,-1
 199 981 l 1,8,-1
 199 961 l 1,9,-1
 335 805 l 1,0,-1
397 321 m 1,10,-1
 581 0 l 1,11,-1
 736 0 l 1,12,-1
 736 62 l 1,13,-1
 726 62 l 2,14,15
 703 62 703 62 684.5 66.5 c 128,-1,16
 666 71 666 71 650 84.5 c 128,-1,17
 634 98 634 98 618 123 c 2,18,-1
 483 349 l 1,19,-1
 397 321 l 1,10,-1
249 72 m 2,20,-1
 249 648 l 1,21,-1
 397 648 l 2,22,23
 447 648 447 648 479.5 632.5 c 128,-1,24
 512 617 512 617 527.5 586 c 128,-1,25
 543 555 543 555 543 508 c 0,26,27
 543 462 543 462 527 428.5 c 128,-1,28
 511 395 511 395 477.5 377 c 128,-1,29
 444 359 444 359 391 359 c 2,30,-1
 239 359 l 1,31,-1
 239 300 l 1,32,-1
 432 300 l 2,33,34
 436 300 436 300 439 302.5 c 128,-1,35
 442 305 442 305 446.5 309.5 c 128,-1,36
 451 314 451 314 457 318 c 0,37,38
 513 332 513 332 554.5 359 c 128,-1,39
 596 386 596 386 619 426.5 c 128,-1,40
 642 467 642 467 642 519 c 0,41,42
 642 582 642 582 613 624.5 c 128,-1,43
 584 667 584 667 530 688.5 c 128,-1,44
 476 710 476 710 399 710 c 2,45,-1
 60 710 l 1,46,-1
 60 648 l 1,47,-1
 71 648 l 2,48,49
 108 648 108 648 132 641 c 128,-1,50
 156 634 156 634 156 612 c 2,51,-1
 156 98 l 2,52,53
 156 76 156 76 132 69 c 128,-1,54
 108 62 108 62 71 62 c 2,55,-1
 60 62 l 1,56,-1
 60 0 l 1,57,-1
 364 0 l 1,58,-1
 364 62 l 1,59,-1
 344 62 l 2,60,61
 326 62 326 62 309 62.5 c 128,-1,62
 292 63 292 63 278.5 64.5 c 128,-1,63
 265 66 265 66 257 67.5 c 128,-1,64
 249 69 249 69 249 72 c 2,20,-1
EndSplineSet
EndChar

StartChar: Rdblgrave
Encoding: 528 528 153
Width: 771
GlyphClass: 1
Flags: W
LayerCount: 2
Fore
SplineSet
468 924 m 2,0,-1
 516 819 l 1,1,-1
 516 793 l 1,2,-1
 478 793 l 1,3,-1
 405 855 l 2,4,5
 383 873 383 873 369 889 c 128,-1,6
 355 905 355 905 355 927 c 0,7,8
 355 945 355 945 369 958 c 128,-1,9
 383 971 383 971 406 971 c 0,10,11
 422 971 422 971 433.5 965.5 c 128,-1,12
 445 960 445 960 453.5 949.5 c 128,-1,13
 462 939 462 939 468 924 c 2,0,-1
269 924 m 2,14,-1
 314 819 l 1,15,-1
 314 793 l 1,16,-1
 276 793 l 1,17,-1
 203 855 l 2,18,19
 181 873 181 873 167 889 c 128,-1,20
 153 905 153 905 153 927 c 0,21,22
 153 945 153 945 167 958 c 128,-1,23
 181 971 181 971 204 971 c 0,24,25
 220 971 220 971 232 965.5 c 128,-1,26
 244 960 244 960 253.5 949.5 c 128,-1,27
 263 939 263 939 269 924 c 2,14,-1
397 321 m 1,28,-1
 581 0 l 1,29,-1
 736 0 l 1,30,-1
 736 62 l 1,31,-1
 726 62 l 2,32,33
 703 62 703 62 684.5 66.5 c 128,-1,34
 666 71 666 71 650 84.5 c 128,-1,35
 634 98 634 98 618 123 c 2,36,-1
 483 349 l 1,37,-1
 397 321 l 1,28,-1
249 72 m 2,38,-1
 249 648 l 1,39,-1
 397 648 l 2,40,41
 447 648 447 648 479.5 632.5 c 128,-1,42
 512 617 512 617 527.5 586 c 128,-1,43
 543 555 543 555 543 508 c 0,44,45
 543 462 543 462 527 428.5 c 128,-1,46
 511 395 511 395 477.5 377 c 128,-1,47
 444 359 444 359 391 359 c 2,48,-1
 239 359 l 1,49,-1
 239 300 l 1,50,-1
 432 300 l 2,51,52
 436 300 436 300 439 302.5 c 128,-1,53
 442 305 442 305 446.5 309.5 c 128,-1,54
 451 314 451 314 457 318 c 0,55,56
 513 332 513 332 554.5 359 c 128,-1,57
 596 386 596 386 619 426.5 c 128,-1,58
 642 467 642 467 642 519 c 0,59,60
 642 582 642 582 613 624.5 c 128,-1,61
 584 667 584 667 530 688.5 c 128,-1,62
 476 710 476 710 399 710 c 2,63,-1
 60 710 l 1,64,-1
 60 648 l 1,65,-1
 71 648 l 2,66,67
 108 648 108 648 132 641 c 128,-1,68
 156 634 156 634 156 612 c 2,69,-1
 156 98 l 2,70,71
 156 76 156 76 132 69 c 128,-1,72
 108 62 108 62 71 62 c 2,73,-1
 60 62 l 1,74,-1
 60 0 l 1,75,-1
 364 0 l 1,76,-1
 364 62 l 1,77,-1
 344 62 l 2,78,79
 326 62 326 62 309 62.5 c 128,-1,80
 292 63 292 63 278.5 64.5 c 128,-1,81
 265 66 265 66 257 67.5 c 128,-1,82
 249 69 249 69 249 72 c 2,38,-1
EndSplineSet
EndChar

StartChar: Rinvertedbreve
Encoding: 530 530 154
Width: 771
GlyphClass: 1
Flags: W
LayerCount: 2
Fore
SplineSet
372 928 m 256,0,1
 317 928 317 928 278.5 911 c 128,-1,2
 240 894 240 894 219.5 856.5 c 128,-1,3
 199 819 199 819 198 757 c 1,4,-1
 263 757 l 1,5,6
 265 794 265 794 275 814 c 128,-1,7
 285 834 285 834 308 841.5 c 128,-1,8
 331 849 331 849 372 849 c 0,9,10
 411 849 411 849 433 841.5 c 128,-1,11
 455 834 455 834 465 814 c 128,-1,12
 475 794 475 794 477 757 c 1,13,-1
 547 757 l 1,14,15
 546 819 546 819 525 856.5 c 128,-1,16
 504 894 504 894 465.5 911 c 128,-1,17
 427 928 427 928 372 928 c 256,0,1
397 321 m 1,18,-1
 581 0 l 1,19,-1
 736 0 l 1,20,-1
 736 62 l 1,21,-1
 726 62 l 2,22,23
 703 62 703 62 684.5 66.5 c 128,-1,24
 666 71 666 71 650 84.5 c 128,-1,25
 634 98 634 98 618 123 c 2,26,-1
 483 349 l 1,27,-1
 397 321 l 1,18,-1
249 72 m 2,28,-1
 249 648 l 1,29,-1
 397 648 l 2,30,31
 447 648 447 648 479.5 632.5 c 128,-1,32
 512 617 512 617 527.5 586 c 128,-1,33
 543 555 543 555 543 508 c 0,34,35
 543 462 543 462 527 428.5 c 128,-1,36
 511 395 511 395 477.5 377 c 128,-1,37
 444 359 444 359 391 359 c 2,38,-1
 239 359 l 1,39,-1
 239 300 l 1,40,-1
 432 300 l 2,41,42
 436 300 436 300 439 302.5 c 128,-1,43
 442 305 442 305 446.5 309.5 c 128,-1,44
 451 314 451 314 457 318 c 0,45,46
 513 332 513 332 554.5 359 c 128,-1,47
 596 386 596 386 619 426.5 c 128,-1,48
 642 467 642 467 642 519 c 0,49,50
 642 582 642 582 613 624.5 c 128,-1,51
 584 667 584 667 530 688.5 c 128,-1,52
 476 710 476 710 399 710 c 2,53,-1
 60 710 l 1,54,-1
 60 648 l 1,55,-1
 71 648 l 2,56,57
 108 648 108 648 132 641 c 128,-1,58
 156 634 156 634 156 612 c 2,59,-1
 156 98 l 2,60,61
 156 76 156 76 132 69 c 128,-1,62
 108 62 108 62 71 62 c 2,63,-1
 60 62 l 1,64,-1
 60 0 l 1,65,-1
 364 0 l 1,66,-1
 364 62 l 1,67,-1
 344 62 l 2,68,69
 326 62 326 62 309 62.5 c 128,-1,70
 292 63 292 63 278.5 64.5 c 128,-1,71
 265 66 265 66 257 67.5 c 128,-1,72
 249 69 249 69 249 72 c 2,28,-1
EndSplineSet
EndChar

StartChar: S
Encoding: 83 83 157
Width: 671
GlyphClass: 2
Flags: W
AnchorPoint: "Anchor-1" 368 0 basechar 0
AnchorPoint: "Anchor-0" 368 741 basechar 0
LayerCount: 2
Fore
SplineSet
374 37 m 0,0,1
 430 37 430 37 464.5 49 c 128,-1,2
 499 61 499 61 514.5 89.5 c 128,-1,3
 530 118 530 118 530 168 c 0,4,5
 530 211 530 211 511.5 238 c 128,-1,6
 493 265 493 265 462.5 281.5 c 128,-1,7
 432 298 432 298 394.5 308.5 c 128,-1,8
 357 319 357 319 318 328 c 0,9,10
 270 340 270 340 228 353.5 c 128,-1,11
 186 367 186 367 154 389 c 128,-1,12
 122 411 122 411 104 448.5 c 128,-1,13
 86 486 86 486 86 545 c 256,14,15
 86 604 86 604 111 646.5 c 128,-1,16
 136 689 136 689 186 712 c 128,-1,17
 236 735 236 735 311 735 c 0,18,19
 372 735 372 735 415.5 716 c 128,-1,20
 459 697 459 697 485 653.5 c 128,-1,21
 511 610 511 610 517 538 c 1,22,-1
 504 587 l 1,23,-1
 514 720 l 1,24,-1
 581 720 l 1,25,-1
 581 498 l 1,26,-1
 511 498 l 1,27,28
 497 557 497 557 470.5 596.5 c 128,-1,29
 444 636 444 636 404.5 655.5 c 128,-1,30
 365 675 365 675 311 675 c 256,31,32
 257 675 257 675 226 661 c 128,-1,33
 195 647 195 647 182.5 619.5 c 128,-1,34
 170 592 170 592 170 553 c 0,35,36
 170 513 170 513 185 488.5 c 128,-1,37
 200 464 200 464 227.5 450 c 128,-1,38
 255 436 255 436 292 426 c 128,-1,39
 329 416 329 416 374 404 c 0,40,41
 417 393 417 393 460.5 379.5 c 128,-1,42
 504 366 504 366 540 343 c 128,-1,43
 576 320 576 320 597.5 283 c 128,-1,44
 619 246 619 246 619 189 c 0,45,46
 619 112 619 112 587.5 65 c 128,-1,47
 556 18 556 18 501 -3.5 c 128,-1,48
 446 -25 446 -25 374 -25 c 0,49,50
 305 -25 305 -25 252 -4.5 c 128,-1,51
 199 16 199 16 167.5 65.5 c 128,-1,52
 136 115 136 115 130 200 c 1,53,-1
 147 147 l 1,54,-1
 138 -10 l 1,55,-1
 68 -10 l 1,56,-1
 68 239 l 1,57,-1
 140 239 l 1,58,59
 154 166 154 166 184.5 121.5 c 128,-1,60
 215 77 215 77 262.5 57 c 128,-1,61
 310 37 310 37 374 37 c 0,0,1
EndSplineSet
EndChar

StartChar: Scaron
Encoding: 352 352 161
Width: 671
GlyphClass: 1
Flags: W
LayerCount: 2
Fore
SplineSet
307 805 m 1,0,-1
 381 805 l 1,1,-1
 516 961 l 1,2,-1
 516 981 l 1,3,-1
 476 981 l 1,4,-1
 290 841 l 1,5,-1
 403 846 l 1,6,-1
 221 981 l 1,7,-1
 171 981 l 1,8,-1
 171 961 l 1,9,-1
 307 805 l 1,0,-1
374 37 m 0,10,11
 430 37 430 37 464.5 49 c 128,-1,12
 499 61 499 61 514.5 89.5 c 128,-1,13
 530 118 530 118 530 168 c 0,14,15
 530 211 530 211 511.5 238 c 128,-1,16
 493 265 493 265 462.5 281.5 c 128,-1,17
 432 298 432 298 394.5 308.5 c 128,-1,18
 357 319 357 319 318 328 c 0,19,20
 270 340 270 340 228 353.5 c 128,-1,21
 186 367 186 367 154 389 c 128,-1,22
 122 411 122 411 104 448.5 c 128,-1,23
 86 486 86 486 86 545 c 256,24,25
 86 604 86 604 111 646.5 c 128,-1,26
 136 689 136 689 186 712 c 128,-1,27
 236 735 236 735 311 735 c 0,28,29
 372 735 372 735 415.5 716 c 128,-1,30
 459 697 459 697 485 653.5 c 128,-1,31
 511 610 511 610 517 538 c 1,32,-1
 504 587 l 1,33,-1
 514 720 l 1,34,-1
 581 720 l 1,35,-1
 581 498 l 1,36,-1
 511 498 l 1,37,38
 497 557 497 557 470.5 596.5 c 128,-1,39
 444 636 444 636 404.5 655.5 c 128,-1,40
 365 675 365 675 311 675 c 256,41,42
 257 675 257 675 226 661 c 128,-1,43
 195 647 195 647 182.5 619.5 c 128,-1,44
 170 592 170 592 170 553 c 0,45,46
 170 513 170 513 185 488.5 c 128,-1,47
 200 464 200 464 227.5 450 c 128,-1,48
 255 436 255 436 292 426 c 128,-1,49
 329 416 329 416 374 404 c 0,50,51
 417 393 417 393 460.5 379.5 c 128,-1,52
 504 366 504 366 540 343 c 128,-1,53
 576 320 576 320 597.5 283 c 128,-1,54
 619 246 619 246 619 189 c 0,55,56
 619 112 619 112 587.5 65 c 128,-1,57
 556 18 556 18 501 -3.5 c 128,-1,58
 446 -25 446 -25 374 -25 c 0,59,60
 305 -25 305 -25 252 -4.5 c 128,-1,61
 199 16 199 16 167.5 65.5 c 128,-1,62
 136 115 136 115 130 200 c 1,63,-1
 147 147 l 1,64,-1
 138 -10 l 1,65,-1
 68 -10 l 1,66,-1
 68 239 l 1,67,-1
 140 239 l 1,68,69
 154 166 154 166 184.5 121.5 c 128,-1,70
 215 77 215 77 262.5 57 c 128,-1,71
 310 37 310 37 374 37 c 0,10,11
EndSplineSet
EndChar

StartChar: Scarondotaccent
Encoding: 7782 7782 166
Width: 671
GlyphClass: 1
Flags: W
LayerCount: 2
Fore
SplineSet
302 805 m 1,0,-1
 376 805 l 1,1,-1
 511 961 l 1,2,-1
 511 981 l 1,3,-1
 471 981 l 1,4,-1
 285 841 l 1,5,-1
 398 846 l 1,6,-1
 216 981 l 1,7,-1
 166 981 l 1,8,-1
 166 961 l 1,9,-1
 302 805 l 1,0,-1
374 37 m 0,10,11
 430 37 430 37 464.5 49 c 128,-1,12
 499 61 499 61 514.5 89.5 c 128,-1,13
 530 118 530 118 530 168 c 0,14,15
 530 211 530 211 511.5 238 c 128,-1,16
 493 265 493 265 462.5 281.5 c 128,-1,17
 432 298 432 298 394.5 308.5 c 128,-1,18
 357 319 357 319 318 328 c 0,19,20
 270 340 270 340 228 353.5 c 128,-1,21
 186 367 186 367 154 389 c 128,-1,22
 122 411 122 411 104 448.5 c 128,-1,23
 86 486 86 486 86 545 c 256,24,25
 86 604 86 604 111 646.5 c 128,-1,26
 136 689 136 689 186 712 c 128,-1,27
 236 735 236 735 311 735 c 0,28,29
 372 735 372 735 415.5 716 c 128,-1,30
 459 697 459 697 485 653.5 c 128,-1,31
 511 610 511 610 517 538 c 1,32,-1
 504 587 l 1,33,-1
 514 720 l 1,34,-1
 581 720 l 1,35,-1
 581 498 l 1,36,-1
 511 498 l 1,37,38
 497 557 497 557 470.5 596.5 c 128,-1,39
 444 636 444 636 404.5 655.5 c 128,-1,40
 365 675 365 675 311 675 c 256,41,42
 257 675 257 675 226 661 c 128,-1,43
 195 647 195 647 182.5 619.5 c 128,-1,44
 170 592 170 592 170 553 c 0,45,46
 170 513 170 513 185 488.5 c 128,-1,47
 200 464 200 464 227.5 450 c 128,-1,48
 255 436 255 436 292 426 c 128,-1,49
 329 416 329 416 374 404 c 0,50,51
 417 393 417 393 460.5 379.5 c 128,-1,52
 504 366 504 366 540 343 c 128,-1,53
 576 320 576 320 597.5 283 c 128,-1,54
 619 246 619 246 619 189 c 0,55,56
 619 112 619 112 587.5 65 c 128,-1,57
 556 18 556 18 501 -3.5 c 128,-1,58
 446 -25 446 -25 374 -25 c 0,59,60
 305 -25 305 -25 252 -4.5 c 128,-1,61
 199 16 199 16 167.5 65.5 c 128,-1,62
 136 115 136 115 130 200 c 1,63,-1
 147 147 l 1,64,-1
 138 -10 l 1,65,-1
 68 -10 l 1,66,-1
 68 239 l 1,67,-1
 140 239 l 1,68,69
 154 166 154 166 184.5 121.5 c 128,-1,70
 215 77 215 77 262.5 57 c 128,-1,71
 310 37 310 37 374 37 c 0,10,11
339 1013 m 0,72,73
 308 1013 308 1013 289 1029 c 128,-1,74
 270 1045 270 1045 270 1080 c 0,75,76
 270 1114 270 1114 289 1130 c 128,-1,77
 308 1146 308 1146 339 1146 c 0,78,79
 369 1146 369 1146 388.5 1130 c 128,-1,80
 408 1114 408 1114 408 1080 c 0,81,82
 408 1045 408 1045 388.5 1029 c 128,-1,83
 369 1013 369 1013 339 1013 c 0,72,73
EndSplineSet
EndChar

StartChar: T
Encoding: 84 84 168
Width: 739
GlyphClass: 2
Flags: W
AnchorPoint: "Anchor-1" 374 0 basechar 0
AnchorPoint: "Anchor-0" 374 741 basechar 0
LayerCount: 2
Fore
SplineSet
323 98 m 2,0,-1
 323 648 l 1,1,-1
 267 648 l 2,2,3
 219 648 219 648 190 642.5 c 128,-1,4
 161 637 161 637 147.5 625 c 128,-1,5
 134 613 134 613 132 595 c 2,6,-1
 119 469 l 1,7,-1
 55 469 l 1,8,-1
 55 710 l 1,9,-1
 684 710 l 1,10,-1
 684 469 l 1,11,-1
 620 469 l 1,12,-1
 607 595 l 2,13,14
 605 613 605 613 591.5 625 c 128,-1,15
 578 637 578 637 549 642.5 c 128,-1,16
 520 648 520 648 472 648 c 2,17,-1
 416 648 l 1,18,-1
 416 98 l 2,19,20
 416 76 416 76 442.5 69 c 128,-1,21
 469 62 469 62 506 62 c 2,22,-1
 526 62 l 1,23,-1
 526 0 l 1,24,-1
 213 0 l 1,25,-1
 213 62 l 1,26,-1
 233 62 l 2,27,28
 270 62 270 62 296.5 69 c 128,-1,29
 323 76 323 76 323 98 c 2,0,-1
EndSplineSet
EndChar

StartChar: Tcaron
Encoding: 356 356 170
Width: 739
GlyphClass: 1
Flags: W
LayerCount: 2
Fore
SplineSet
327 805 m 1,0,-1
 401 805 l 1,1,-1
 536 961 l 1,2,-1
 536 981 l 1,3,-1
 496 981 l 1,4,-1
 310 841 l 1,5,-1
 423 846 l 1,6,-1
 241 981 l 1,7,-1
 191 981 l 1,8,-1
 191 961 l 1,9,-1
 327 805 l 1,0,-1
323 98 m 2,10,-1
 323 648 l 1,11,-1
 267 648 l 2,12,13
 219 648 219 648 190 642.5 c 128,-1,14
 161 637 161 637 147.5 625 c 128,-1,15
 134 613 134 613 132 595 c 2,16,-1
 119 469 l 1,17,-1
 55 469 l 1,18,-1
 55 710 l 1,19,-1
 684 710 l 1,20,-1
 684 469 l 1,21,-1
 620 469 l 1,22,-1
 607 595 l 2,23,24
 605 613 605 613 591.5 625 c 128,-1,25
 578 637 578 637 549 642.5 c 128,-1,26
 520 648 520 648 472 648 c 2,27,-1
 416 648 l 1,28,-1
 416 98 l 2,29,30
 416 76 416 76 442.5 69 c 128,-1,31
 469 62 469 62 506 62 c 2,32,-1
 526 62 l 1,33,-1
 526 0 l 1,34,-1
 213 0 l 1,35,-1
 213 62 l 1,36,-1
 233 62 l 2,37,38
 270 62 270 62 296.5 69 c 128,-1,39
 323 76 323 76 323 98 c 2,10,-1
EndSplineSet
EndChar

StartChar: U
Encoding: 85 85 174
Width: 834
GlyphClass: 2
Flags: W
AnchorPoint: "Anchor-2" 478 0 basechar 0
AnchorPoint: "Anchor-1" 422 0 basechar 0
AnchorPoint: "Anchor-0" 422 741 basechar 0
LayerCount: 2
Fore
SplineSet
241 256 m 2,0,1
 241 198 241 198 255 158 c 128,-1,2
 269 118 269 118 294 94 c 128,-1,3
 319 70 319 70 353.5 59.5 c 128,-1,4
 388 49 388 49 429 49 c 256,5,6
 470 49 470 49 504 59.5 c 128,-1,7
 538 70 538 70 563 94 c 128,-1,8
 588 118 588 118 602 158 c 128,-1,9
 616 198 616 198 616 256 c 2,10,-1
 616 629 l 2,11,12
 616 634 616 634 608 637.5 c 128,-1,13
 600 641 600 641 587 643 c 128,-1,14
 574 645 574 645 558.5 646.5 c 128,-1,15
 543 648 543 648 529 648 c 2,16,-1
 520 648 l 1,17,-1
 520 710 l 1,18,-1
 782 710 l 1,19,-1
 782 648 l 1,20,-1
 771 648 l 2,21,22
 747 648 747 648 727.5 644 c 128,-1,23
 708 640 708 640 697 630 c 128,-1,24
 686 620 686 620 686 603 c 2,25,-1
 686 256 l 2,26,27
 686 181 686 181 665.5 127.5 c 128,-1,28
 645 74 645 74 608.5 40 c 128,-1,29
 572 6 572 6 524 -9.5 c 128,-1,30
 476 -25 476 -25 421 -25 c 0,31,32
 362 -25 362 -25 312 -9 c 128,-1,33
 262 7 262 7 225.5 40.5 c 128,-1,34
 189 74 189 74 168.5 127.5 c 128,-1,35
 148 181 148 181 148 256 c 2,36,-1
 148 612 l 2,37,38
 148 634 148 634 124 641 c 128,-1,39
 100 648 100 648 63 648 c 2,40,-1
 52 648 l 1,41,-1
 52 710 l 1,42,-1
 337 710 l 1,43,-1
 337 648 l 1,44,-1
 328 648 l 2,45,46
 314 648 314 648 298.5 647.5 c 128,-1,47
 283 647 283 647 270 645.5 c 128,-1,48
 257 644 257 644 249 642.5 c 128,-1,49
 241 641 241 641 241 638 c 2,50,-1
 241 256 l 2,0,1
EndSplineSet
EndChar

StartChar: Uogonek
Encoding: 370 370 184
Width: 834
GlyphClass: 1
Flags: W
LayerCount: 2
Fore
SplineSet
533 31 m 1,0,-1
 534 -6 l 1,1,2
 509 -16 509 -16 480.5 -20.5 c 128,-1,3
 452 -25 452 -25 421 -25 c 0,4,5
 362 -25 362 -25 312 -9 c 128,-1,6
 262 7 262 7 225.5 40.5 c 128,-1,7
 189 74 189 74 168.5 127.5 c 128,-1,8
 148 181 148 181 148 256 c 2,9,-1
 148 612 l 2,10,11
 148 634 148 634 124 641 c 128,-1,12
 100 648 100 648 63 648 c 2,13,-1
 52 648 l 1,14,-1
 52 710 l 1,15,-1
 337 710 l 1,16,-1
 337 648 l 1,17,-1
 328 648 l 2,18,19
 314 648 314 648 298.5 647.5 c 128,-1,20
 283 647 283 647 270 645.5 c 128,-1,21
 257 644 257 644 249 642.5 c 128,-1,22
 241 641 241 641 241 638 c 2,23,-1
 241 256 l 2,24,25
 241 198 241 198 255 158 c 128,-1,26
 269 118 269 118 294 94 c 128,-1,27
 319 70 319 70 353.5 59.5 c 128,-1,28
 388 49 388 49 429 49 c 256,29,30
 470 49 470 49 504 59.5 c 128,-1,31
 538 70 538 70 563 94 c 128,-1,32
 588 118 588 118 602 158 c 128,-1,33
 616 198 616 198 616 256 c 2,34,-1
 616 629 l 2,35,36
 616 634 616 634 608 637.5 c 128,-1,37
 600 641 600 641 587 643 c 128,-1,38
 574 645 574 645 558.5 646.5 c 128,-1,39
 543 648 543 648 529 648 c 2,40,-1
 520 648 l 1,41,-1
 520 710 l 1,42,-1
 782 710 l 1,43,-1
 782 648 l 1,44,-1
 771 648 l 2,45,46
 747 648 747 648 727.5 644 c 128,-1,47
 708 640 708 640 697 630 c 128,-1,48
 686 620 686 620 686 603 c 2,49,-1
 686 256 l 2,50,51
 686 207 686 207 677 167.5 c 128,-1,52
 668 128 668 128 652 97.5 c 128,-1,53
 636 67 636 67 613 44 c 0,54,55
 594 25 594 25 564.5 3.5 c 128,-1,56
 535 -18 535 -18 506.5 -42 c 128,-1,57
 478 -66 478 -66 458.5 -93 c 128,-1,58
 439 -120 439 -120 439 -150 c 0,59,60
 439 -172 439 -172 452 -183.5 c 128,-1,61
 465 -195 465 -195 489 -195 c 0,62,63
 521 -195 521 -195 543.5 -179 c 128,-1,64
 566 -163 566 -163 579 -147 c 1,65,-1
 617 -182 l 1,66,67
 591 -213 591 -213 556 -232.5 c 128,-1,68
 521 -252 521 -252 466 -252 c 0,69,70
 430 -252 430 -252 400.5 -242.5 c 128,-1,71
 371 -233 371 -233 354 -213 c 128,-1,72
 337 -193 337 -193 337 -162 c 0,73,74
 337 -138 337 -138 345.5 -119.5 c 128,-1,75
 354 -101 354 -101 375.5 -81.5 c 128,-1,76
 397 -62 397 -62 435.5 -35.5 c 128,-1,77
 474 -9 474 -9 533 31 c 1,0,-1
EndSplineSet
EndChar

StartChar: Uhorn
Encoding: 431 431 185
Width: 944
GlyphClass: 2
Flags: W
AnchorPoint: "Anchor-1" 476 -35 basechar 0
AnchorPoint: "Anchor-0" 476 663 basechar 0
LayerCount: 2
Fore
SplineSet
148 256 m 2,0,-1
 148 612 l 2,1,2
 148 634 148 634 124 641 c 128,-1,3
 100 648 100 648 63 648 c 2,4,-1
 52 648 l 1,5,-1
 52 710 l 1,6,-1
 337 710 l 1,7,-1
 337 648 l 1,8,-1
 328 648 l 2,9,10
 314 648 314 648 298.5 647.5 c 128,-1,11
 283 647 283 647 270 645.5 c 128,-1,12
 257 644 257 644 249 642.5 c 128,-1,13
 241 641 241 641 241 638 c 2,14,-1
 241 256 l 2,15,16
 241 198 241 198 255 158 c 128,-1,17
 269 118 269 118 294 94 c 128,-1,18
 319 70 319 70 353.5 59.5 c 128,-1,19
 388 49 388 49 429 49 c 0,20,21
 483 49 483 49 525.5 68.5 c 128,-1,22
 568 88 568 88 592 133.5 c 128,-1,23
 616 179 616 179 616 256 c 2,24,-1
 616 629 l 2,25,26
 616 634 616 634 608 637.5 c 128,-1,27
 600 641 600 641 587 643 c 128,-1,28
 574 645 574 645 558.5 646.5 c 128,-1,29
 543 648 543 648 529 648 c 2,30,-1
 520 648 l 1,31,-1
 520 710 l 1,32,-1
 758 710 l 2,33,34
 801 710 801 710 827.5 722.5 c 128,-1,35
 854 735 854 735 868.5 759.5 c 128,-1,36
 883 784 883 784 889.5 819 c 128,-1,37
 896 854 896 854 899 899 c 1,38,-1
 986 899 l 1,39,40
 984 846 984 846 974 806 c 128,-1,41
 964 766 964 766 946 737 c 128,-1,42
 928 708 928 708 901 689 c 128,-1,43
 874 670 874 670 839 660 c 128,-1,44
 804 650 804 650 760 648 c 0,45,46
 741 647 741 647 724 643 c 128,-1,47
 707 639 707 639 696.5 629.5 c 128,-1,48
 686 620 686 620 686 603 c 2,49,-1
 686 256 l 2,50,51
 686 181 686 181 665.5 127.5 c 128,-1,52
 645 74 645 74 608.5 40 c 128,-1,53
 572 6 572 6 524 -9.5 c 128,-1,54
 476 -25 476 -25 421 -25 c 0,55,56
 362 -25 362 -25 312 -9 c 128,-1,57
 262 7 262 7 225.5 40.5 c 128,-1,58
 189 74 189 74 168.5 127.5 c 128,-1,59
 148 181 148 181 148 256 c 2,0,-1
EndSplineSet
EndChar

StartChar: Ucaron
Encoding: 467 467 186
Width: 834
GlyphClass: 1
Flags: W
LayerCount: 2
Fore
SplineSet
388 805 m 1,0,-1
 462 805 l 1,1,-1
 597 961 l 1,2,-1
 597 981 l 1,3,-1
 557 981 l 1,4,-1
 371 841 l 1,5,-1
 484 846 l 1,6,-1
 302 981 l 1,7,-1
 252 981 l 1,8,-1
 252 961 l 1,9,-1
 388 805 l 1,0,-1
241 256 m 2,10,11
 241 198 241 198 255 158 c 128,-1,12
 269 118 269 118 294 94 c 128,-1,13
 319 70 319 70 353.5 59.5 c 128,-1,14
 388 49 388 49 429 49 c 256,15,16
 470 49 470 49 504 59.5 c 128,-1,17
 538 70 538 70 563 94 c 128,-1,18
 588 118 588 118 602 158 c 128,-1,19
 616 198 616 198 616 256 c 2,20,-1
 616 629 l 2,21,22
 616 634 616 634 608 637.5 c 128,-1,23
 600 641 600 641 587 643 c 128,-1,24
 574 645 574 645 558.5 646.5 c 128,-1,25
 543 648 543 648 529 648 c 2,26,-1
 520 648 l 1,27,-1
 520 710 l 1,28,-1
 782 710 l 1,29,-1
 782 648 l 1,30,-1
 771 648 l 2,31,32
 747 648 747 648 727.5 644 c 128,-1,33
 708 640 708 640 697 630 c 128,-1,34
 686 620 686 620 686 603 c 2,35,-1
 686 256 l 2,36,37
 686 181 686 181 665.5 127.5 c 128,-1,38
 645 74 645 74 608.5 40 c 128,-1,39
 572 6 572 6 524 -9.5 c 128,-1,40
 476 -25 476 -25 421 -25 c 0,41,42
 362 -25 362 -25 312 -9 c 128,-1,43
 262 7 262 7 225.5 40.5 c 128,-1,44
 189 74 189 74 168.5 127.5 c 128,-1,45
 148 181 148 181 148 256 c 2,46,-1
 148 612 l 2,47,48
 148 634 148 634 124 641 c 128,-1,49
 100 648 100 648 63 648 c 2,50,-1
 52 648 l 1,51,-1
 52 710 l 1,52,-1
 337 710 l 1,53,-1
 337 648 l 1,54,-1
 328 648 l 2,55,56
 314 648 314 648 298.5 647.5 c 128,-1,57
 283 647 283 647 270 645.5 c 128,-1,58
 257 644 257 644 249 642.5 c 128,-1,59
 241 641 241 641 241 638 c 2,60,-1
 241 256 l 2,10,11
EndSplineSet
EndChar

StartChar: Udieresiscaron
Encoding: 473 473 187
Width: 834
GlyphClass: 1
Flags: W
LayerCount: 2
Fore
SplineSet
395 994 m 1,0,-1
 469 994 l 1,1,-1
 604 1150 l 1,2,-1
 604 1170 l 1,3,-1
 564 1170 l 1,4,-1
 378 1030 l 1,5,-1
 491 1035 l 1,6,-1
 309 1170 l 1,7,-1
 259 1170 l 1,8,-1
 259 1150 l 1,9,-1
 395 994 l 1,0,-1
241 256 m 2,10,11
 241 198 241 198 255 158 c 128,-1,12
 269 118 269 118 294 94 c 128,-1,13
 319 70 319 70 353.5 59.5 c 128,-1,14
 388 49 388 49 429 49 c 256,15,16
 470 49 470 49 504 59.5 c 128,-1,17
 538 70 538 70 563 94 c 128,-1,18
 588 118 588 118 602 158 c 128,-1,19
 616 198 616 198 616 256 c 2,20,-1
 616 629 l 2,21,22
 616 634 616 634 608 637.5 c 128,-1,23
 600 641 600 641 587 643 c 128,-1,24
 574 645 574 645 558.5 646.5 c 128,-1,25
 543 648 543 648 529 648 c 2,26,-1
 520 648 l 1,27,-1
 520 710 l 1,28,-1
 782 710 l 1,29,-1
 782 648 l 1,30,-1
 771 648 l 2,31,32
 747 648 747 648 727.5 644 c 128,-1,33
 708 640 708 640 697 630 c 128,-1,34
 686 620 686 620 686 603 c 2,35,-1
 686 256 l 2,36,37
 686 181 686 181 665.5 127.5 c 128,-1,38
 645 74 645 74 608.5 40 c 128,-1,39
 572 6 572 6 524 -9.5 c 128,-1,40
 476 -25 476 -25 421 -25 c 0,41,42
 362 -25 362 -25 312 -9 c 128,-1,43
 262 7 262 7 225.5 40.5 c 128,-1,44
 189 74 189 74 168.5 127.5 c 128,-1,45
 148 181 148 181 148 256 c 2,46,-1
 148 612 l 2,47,48
 148 634 148 634 124 641 c 128,-1,49
 100 648 100 648 63 648 c 2,50,-1
 52 648 l 1,51,-1
 52 710 l 1,52,-1
 337 710 l 1,53,-1
 337 648 l 1,54,-1
 328 648 l 2,55,56
 314 648 314 648 298.5 647.5 c 128,-1,57
 283 647 283 647 270 645.5 c 128,-1,58
 257 644 257 644 249 642.5 c 128,-1,59
 241 641 241 641 241 638 c 2,60,-1
 241 256 l 2,10,11
370 889 m 0,61,62
 370 854 370 854 350.5 838 c 128,-1,63
 331 822 331 822 301 822 c 0,64,65
 270 822 270 822 251 838 c 128,-1,66
 232 854 232 854 232 889 c 0,67,68
 232 923 232 923 251 939 c 128,-1,69
 270 955 270 955 301 955 c 0,70,71
 331 955 331 955 350.5 939 c 128,-1,72
 370 923 370 923 370 889 c 0,61,62
630 889 m 0,73,74
 630 854 630 854 610.5 838 c 128,-1,75
 591 822 591 822 561 822 c 0,76,77
 530 822 530 822 511 838 c 128,-1,78
 492 854 492 854 492 889 c 0,79,80
 492 923 492 923 511 939 c 128,-1,81
 530 955 530 955 561 955 c 0,82,83
 591 955 591 955 610.5 939 c 128,-1,84
 630 923 630 923 630 889 c 0,73,74
EndSplineSet
EndChar

StartChar: Udblgrave
Encoding: 532 532 188
Width: 834
GlyphClass: 1
Flags: W
LayerCount: 2
Fore
SplineSet
508 924 m 2,0,-1
 556 819 l 1,1,-1
 556 793 l 1,2,-1
 518 793 l 1,3,-1
 445 855 l 2,4,5
 423 873 423 873 409 889 c 128,-1,6
 395 905 395 905 395 927 c 0,7,8
 395 945 395 945 409 958 c 128,-1,9
 423 971 423 971 446 971 c 0,10,11
 462 971 462 971 473.5 965.5 c 128,-1,12
 485 960 485 960 493.5 949.5 c 128,-1,13
 502 939 502 939 508 924 c 2,0,-1
309 924 m 2,14,-1
 354 819 l 1,15,-1
 354 793 l 1,16,-1
 316 793 l 1,17,-1
 243 855 l 2,18,19
 221 873 221 873 207 889 c 128,-1,20
 193 905 193 905 193 927 c 0,21,22
 193 945 193 945 207 958 c 128,-1,23
 221 971 221 971 244 971 c 0,24,25
 260 971 260 971 272 965.5 c 128,-1,26
 284 960 284 960 293.5 949.5 c 128,-1,27
 303 939 303 939 309 924 c 2,14,-1
241 256 m 2,28,29
 241 198 241 198 255 158 c 128,-1,30
 269 118 269 118 294 94 c 128,-1,31
 319 70 319 70 353.5 59.5 c 128,-1,32
 388 49 388 49 429 49 c 256,33,34
 470 49 470 49 504 59.5 c 128,-1,35
 538 70 538 70 563 94 c 128,-1,36
 588 118 588 118 602 158 c 128,-1,37
 616 198 616 198 616 256 c 2,38,-1
 616 629 l 2,39,40
 616 634 616 634 608 637.5 c 128,-1,41
 600 641 600 641 587 643 c 128,-1,42
 574 645 574 645 558.5 646.5 c 128,-1,43
 543 648 543 648 529 648 c 2,44,-1
 520 648 l 1,45,-1
 520 710 l 1,46,-1
 782 710 l 1,47,-1
 782 648 l 1,48,-1
 771 648 l 2,49,50
 747 648 747 648 727.5 644 c 128,-1,51
 708 640 708 640 697 630 c 128,-1,52
 686 620 686 620 686 603 c 2,53,-1
 686 256 l 2,54,55
 686 181 686 181 665.5 127.5 c 128,-1,56
 645 74 645 74 608.5 40 c 128,-1,57
 572 6 572 6 524 -9.5 c 128,-1,58
 476 -25 476 -25 421 -25 c 0,59,60
 362 -25 362 -25 312 -9 c 128,-1,61
 262 7 262 7 225.5 40.5 c 128,-1,62
 189 74 189 74 168.5 127.5 c 128,-1,63
 148 181 148 181 148 256 c 2,64,-1
 148 612 l 2,65,66
 148 634 148 634 124 641 c 128,-1,67
 100 648 100 648 63 648 c 2,68,-1
 52 648 l 1,69,-1
 52 710 l 1,70,-1
 337 710 l 1,71,-1
 337 648 l 1,72,-1
 328 648 l 2,73,74
 314 648 314 648 298.5 647.5 c 128,-1,75
 283 647 283 647 270 645.5 c 128,-1,76
 257 644 257 644 249 642.5 c 128,-1,77
 241 641 241 641 241 638 c 2,78,-1
 241 256 l 2,28,29
EndSplineSet
EndChar

StartChar: Uinvertedbreve
Encoding: 534 534 189
Width: 834
GlyphClass: 1
Flags: W
LayerCount: 2
Fore
SplineSet
417 928 m 256,0,1
 362 928 362 928 323.5 911 c 128,-1,2
 285 894 285 894 264.5 856.5 c 128,-1,3
 244 819 244 819 243 757 c 1,4,-1
 308 757 l 1,5,6
 310 794 310 794 320 814 c 128,-1,7
 330 834 330 834 353 841.5 c 128,-1,8
 376 849 376 849 417 849 c 0,9,10
 456 849 456 849 478 841.5 c 128,-1,11
 500 834 500 834 510 814 c 128,-1,12
 520 794 520 794 522 757 c 1,13,-1
 592 757 l 1,14,15
 591 819 591 819 570 856.5 c 128,-1,16
 549 894 549 894 510.5 911 c 128,-1,17
 472 928 472 928 417 928 c 256,0,1
241 256 m 2,18,19
 241 198 241 198 255 158 c 128,-1,20
 269 118 269 118 294 94 c 128,-1,21
 319 70 319 70 353.5 59.5 c 128,-1,22
 388 49 388 49 429 49 c 256,23,24
 470 49 470 49 504 59.5 c 128,-1,25
 538 70 538 70 563 94 c 128,-1,26
 588 118 588 118 602 158 c 128,-1,27
 616 198 616 198 616 256 c 2,28,-1
 616 629 l 2,29,30
 616 634 616 634 608 637.5 c 128,-1,31
 600 641 600 641 587 643 c 128,-1,32
 574 645 574 645 558.5 646.5 c 128,-1,33
 543 648 543 648 529 648 c 2,34,-1
 520 648 l 1,35,-1
 520 710 l 1,36,-1
 782 710 l 1,37,-1
 782 648 l 1,38,-1
 771 648 l 2,39,40
 747 648 747 648 727.5 644 c 128,-1,41
 708 640 708 640 697 630 c 128,-1,42
 686 620 686 620 686 603 c 2,43,-1
 686 256 l 2,44,45
 686 181 686 181 665.5 127.5 c 128,-1,46
 645 74 645 74 608.5 40 c 128,-1,47
 572 6 572 6 524 -9.5 c 128,-1,48
 476 -25 476 -25 421 -25 c 0,49,50
 362 -25 362 -25 312 -9 c 128,-1,51
 262 7 262 7 225.5 40.5 c 128,-1,52
 189 74 189 74 168.5 127.5 c 128,-1,53
 148 181 148 181 148 256 c 2,54,-1
 148 612 l 2,55,56
 148 634 148 634 124 641 c 128,-1,57
 100 648 100 648 63 648 c 2,58,-1
 52 648 l 1,59,-1
 52 710 l 1,60,-1
 337 710 l 1,61,-1
 337 648 l 1,62,-1
 328 648 l 2,63,64
 314 648 314 648 298.5 647.5 c 128,-1,65
 283 647 283 647 270 645.5 c 128,-1,66
 257 644 257 644 249 642.5 c 128,-1,67
 241 641 241 641 241 638 c 2,68,-1
 241 256 l 2,18,19
EndSplineSet
EndChar

StartChar: V
Encoding: 86 86 199
Width: 755
GlyphClass: 2
Flags: W
AnchorPoint: "Anchor-0" 360 741 basechar 0
LayerCount: 2
Fore
SplineSet
399 30 m 1,0,-1
 384 44 l 1,1,-1
 585 625 l 2,2,3
 585 632 585 632 574 637 c 128,-1,4
 563 642 563 642 543 645 c 128,-1,5
 523 648 523 648 495 648 c 2,6,-1
 482 648 l 1,7,-1
 482 710 l 1,8,-1
 735 710 l 1,9,-1
 735 648 l 1,10,-1
 729 648 l 2,11,12
 698 648 698 648 677.5 636 c 128,-1,13
 657 624 657 624 643 584 c 2,14,-1
 435 -12 l 1,15,-1
 323 -12 l 1,16,-1
 112 584 l 2,17,18
 98 624 98 624 77.5 636 c 128,-1,19
 57 648 57 648 26 648 c 2,20,-1
 20 648 l 1,21,-1
 20 710 l 1,22,-1
 290 710 l 1,23,-1
 290 648 l 1,24,-1
 278 648 l 2,25,26
 250 648 250 648 230 646.5 c 128,-1,27
 210 645 210 645 199 643 c 128,-1,28
 188 641 188 641 188 637 c 2,29,-1
 399 30 l 1,0,-1
EndSplineSet
EndChar

StartChar: W
Encoding: 87 87 200
Width: 1051
GlyphClass: 2
Flags: W
AnchorPoint: "Anchor-0" 540 741 basechar 0
LayerCount: 2
Fore
SplineSet
20 710 m 1,0,-1
 275 710 l 1,1,-1
 275 648 l 1,2,-1
 258 648 l 2,3,4
 243 648 243 648 225.5 646.5 c 128,-1,5
 208 645 208 645 196 643 c 128,-1,6
 184 641 184 641 184 637 c 2,7,-1
 331 52 l 1,8,-1
 315 52 l 1,9,-1
 486 710 l 1,10,-1
 592 710 l 1,11,-1
 763 55 l 1,12,-1
 747 55 l 1,13,-1
 893 624 l 2,14,15
 893 631 893 631 881.5 636.5 c 128,-1,16
 870 642 870 642 853.5 645 c 128,-1,17
 837 648 837 648 822 648 c 2,18,-1
 807 648 l 1,19,-1
 807 710 l 1,20,-1
 1031 710 l 1,21,-1
 1031 648 l 1,22,-1
 1024 648 l 2,23,24
 996 648 996 648 977.5 637 c 128,-1,25
 959 626 959 626 953 603 c 2,26,-1
 798 0 l 1,27,-1
 693 0 l 1,28,-1
 518 656 l 1,29,-1
 534 656 l 1,30,-1
 367 0 l 1,31,-1
 260 0 l 1,32,-1
 96 615 l 2,33,34
 89 639 89 639 72.5 643.5 c 128,-1,35
 56 648 56 648 27 648 c 2,36,-1
 20 648 l 1,37,-1
 20 710 l 1,0,-1
EndSplineSet
EndChar

StartChar: X
Encoding: 88 88 205
Width: 772
GlyphClass: 2
Flags: W
AnchorPoint: "Anchor-1" 355 0 basechar 0
AnchorPoint: "Anchor-0" 378 741 basechar 0
LayerCount: 2
Fore
SplineSet
44 648 m 1,0,-1
 44 710 l 1,1,-1
 326 710 l 1,2,-1
 326 648 l 1,3,-1
 309 648 l 2,4,5
 291 648 291 648 272 647 c 128,-1,6
 253 646 253 646 240 644 c 128,-1,7
 227 642 227 642 227 639 c 2,8,-1
 413 391 l 1,9,-1
 422 389 l 1,10,-1
 641 96 l 2,11,12
 658 74 658 74 675.5 68 c 128,-1,13
 693 62 693 62 721 62 c 2,14,-1
 742 62 l 1,15,-1
 742 0 l 1,16,-1
 454 0 l 1,17,-1
 454 62 l 1,18,-1
 471 62 l 2,19,20
 489 62 489 62 508 63 c 128,-1,21
 527 64 527 64 540 66.5 c 128,-1,22
 553 69 553 69 553 72 c 2,23,-1
 354 338 l 1,24,-1
 345 341 l 1,25,-1
 140 614 l 2,26,27
 123 637 123 637 105 642.5 c 128,-1,28
 87 648 87 648 59 648 c 2,29,-1
 44 648 l 1,0,-1
30 0 m 1,30,-1
 30 62 l 1,31,-1
 50 62 l 2,32,33
 77 62 77 62 96.5 71 c 128,-1,34
 116 80 116 80 136 108 c 2,35,-1
 335 379 l 1,36,-1
 377 334 l 1,37,-1
 192 79 l 2,38,39
 192 75 192 75 204.5 71 c 128,-1,40
 217 67 217 67 236 64.5 c 128,-1,41
 255 62 255 62 273 62 c 2,42,-1
 292 62 l 1,43,-1
 292 0 l 1,44,-1
 30 0 l 1,30,-1
434 355 m 1,45,-1
 391 397 l 1,46,-1
 567 631 l 2,47,48
 567 636 567 636 554 640 c 128,-1,49
 541 644 541 644 522 646 c 128,-1,50
 503 648 503 648 484 648 c 2,51,-1
 469 648 l 1,52,-1
 469 710 l 1,53,-1
 727 710 l 1,54,-1
 727 648 l 1,55,-1
 712 648 l 2,56,57
 684 648 684 648 664 639.5 c 128,-1,58
 644 631 644 631 623 603 c 2,59,-1
 434 355 l 1,45,-1
EndSplineSet
EndChar

StartChar: Y
Encoding: 89 89 206
Width: 722
GlyphClass: 2
Flags: W
AnchorPoint: "Anchor-1" 365 0 basechar 0
AnchorPoint: "Anchor-0" 365 741 basechar 0
LayerCount: 2
Fore
SplineSet
318 309 m 1,0,-1
 324 264 l 1,1,-1
 116 614 l 2,2,3
 107 629 107 629 97 636.5 c 128,-1,4
 87 644 87 644 74 646 c 128,-1,5
 61 648 61 648 43 648 c 2,6,-1
 30 648 l 1,7,-1
 30 710 l 1,8,-1
 282 710 l 1,9,-1
 282 648 l 1,10,-1
 265 648 l 2,11,12
 250 648 250 648 234 646.5 c 128,-1,13
 218 645 218 645 207 643 c 128,-1,14
 196 641 196 641 196 637 c 2,15,-1
 386 308 l 1,16,-1
 367 308 l 1,17,-1
 543 625 l 2,18,19
 543 632 543 632 532 637 c 128,-1,20
 521 642 521 642 504.5 645 c 128,-1,21
 488 648 488 648 473 648 c 2,22,-1
 462 648 l 1,23,-1
 462 710 l 1,24,-1
 692 710 l 1,25,-1
 692 648 l 1,26,-1
 679 648 l 2,27,28
 662 648 662 648 648.5 643.5 c 128,-1,29
 635 639 635 639 624 629 c 128,-1,30
 613 619 613 619 602 601 c 2,31,-1
 404 263 l 1,32,-1
 411 309 l 1,33,-1
 411 98 l 2,34,35
 411 76 411 76 436 69 c 128,-1,36
 461 62 461 62 499 62 c 2,37,-1
 520 62 l 1,38,-1
 520 0 l 1,39,-1
 209 0 l 1,40,-1
 209 62 l 1,41,-1
 230 62 l 2,42,43
 268 62 268 62 293 69 c 128,-1,44
 318 76 318 76 318 98 c 2,45,-1
 318 309 l 1,0,-1
EndSplineSet
EndChar

StartChar: Z
Encoding: 90 90 216
Width: 685
GlyphClass: 2
Flags: W
AnchorPoint: "Anchor-1" 362 0 basechar 0
AnchorPoint: "Anchor-0" 362 741 basechar 0
LayerCount: 2
Fore
SplineSet
282 648 m 2,0,1
 250 648 250 648 227 646 c 128,-1,2
 204 644 204 644 189 639 c 128,-1,3
 174 634 174 634 166.5 625.5 c 128,-1,4
 159 617 159 617 157 603 c 2,5,-1
 144 503 l 1,6,-1
 80 503 l 1,7,-1
 80 710 l 1,8,-1
 604 710 l 1,9,-1
 604 637 l 1,10,-1
 132 25 l 1,11,-1
 120 62 l 1,12,-1
 414 62 l 2,13,14
 457 62 457 62 484 65.5 c 128,-1,15
 511 69 511 69 524 79 c 128,-1,16
 537 89 537 89 539 107 c 2,17,-1
 554 231 l 1,18,-1
 620 231 l 1,19,-1
 620 0 l 1,20,-1
 65 0 l 1,21,-1
 65 76 l 1,22,-1
 524 672 l 1,23,-1
 542 648 l 1,24,-1
 282 648 l 2,0,1
EndSplineSet
EndChar

StartChar: Zcaron
Encoding: 381 381 219
Width: 685
GlyphClass: 1
Flags: W
LayerCount: 2
Fore
SplineSet
300 805 m 1,0,-1
 374 805 l 1,1,-1
 509 961 l 1,2,-1
 509 981 l 1,3,-1
 469 981 l 1,4,-1
 283 841 l 1,5,-1
 396 846 l 1,6,-1
 214 981 l 1,7,-1
 164 981 l 1,8,-1
 164 961 l 1,9,-1
 300 805 l 1,0,-1
282 648 m 2,10,11
 250 648 250 648 227 646 c 128,-1,12
 204 644 204 644 189 639 c 128,-1,13
 174 634 174 634 166.5 625.5 c 128,-1,14
 159 617 159 617 157 603 c 2,15,-1
 144 503 l 1,16,-1
 80 503 l 1,17,-1
 80 710 l 1,18,-1
 604 710 l 1,19,-1
 604 637 l 1,20,-1
 132 25 l 1,21,-1
 120 62 l 1,22,-1
 414 62 l 2,23,24
 457 62 457 62 484 65.5 c 128,-1,25
 511 69 511 69 524 79 c 128,-1,26
 537 89 537 89 539 107 c 2,27,-1
 554 231 l 1,28,-1
 620 231 l 1,29,-1
 620 0 l 1,30,-1
 65 0 l 1,31,-1
 65 76 l 1,32,-1
 524 672 l 1,33,-1
 542 648 l 1,34,-1
 282 648 l 2,10,11
EndSplineSet
EndChar

StartChar: AE
Encoding: 198 198 221
Width: 1106
GlyphClass: 2
Flags: W
AnchorPoint: "Anchor-0" 682 741 basechar 0
LayerCount: 2
Fore
SplineSet
247 293 m 1,0,-1
 581 293 l 1,1,-1
 600 233 l 1,2,-1
 227 233 l 1,3,-1
 247 293 l 1,0,-1
623 394 m 1,4,5
 669 395 669 395 716 397 c 128,-1,6
 763 399 763 399 812 402 c 128,-1,7
 861 405 861 405 911 409 c 1,8,-1
 911 321 l 1,9,10
 863 323 863 323 815 325.5 c 128,-1,11
 767 328 767 328 719 330.5 c 128,-1,12
 671 333 671 333 623 336 c 1,13,-1
 623 394 l 1,4,5
452 0 m 1,14,-1
 452 62 l 1,15,-1
 458 62 l 2,16,17
 486 62 486 62 506 65 c 128,-1,18
 526 68 526 68 537 73.5 c 128,-1,19
 548 79 548 79 548 85 c 2,20,-1
 548 656 l 1,21,-1
 526 656 l 1,22,-1
 169 85 l 2,23,24
 169 79 169 79 180 73.5 c 128,-1,25
 191 68 191 68 211 65 c 128,-1,26
 231 62 231 62 259 62 c 2,27,-1
 269 62 l 1,28,-1
 269 0 l 1,29,-1
 5 0 l 1,30,-1
 5 62 l 1,31,-1
 11 62 l 2,32,33
 32 62 32 62 49 68.5 c 128,-1,34
 66 75 66 75 81.5 89 c 128,-1,35
 97 103 97 103 111 126 c 2,36,-1
 416 612 l 1,37,38
 416 627 416 627 405 634.5 c 128,-1,39
 394 642 394 642 375 645 c 128,-1,40
 356 648 356 648 331 648 c 2,41,-1
 320 648 l 1,42,-1
 320 710 l 1,43,-1
 1012 710 l 1,44,-1
 1012 508 l 1,45,-1
 948 508 l 1,46,-1
 935 603 l 2,47,48
 933 621 933 621 919.5 630.5 c 128,-1,49
 906 640 906 640 879.5 644 c 128,-1,50
 853 648 853 648 810 648 c 2,51,-1
 640 648 l 1,52,-1
 640 62 l 1,53,-1
 825 62 l 2,54,55
 857 62 857 62 880 64 c 128,-1,56
 903 66 903 66 918 71 c 128,-1,57
 933 76 933 76 940.5 85 c 128,-1,58
 948 94 948 94 950 107 c 2,59,-1
 965 227 l 1,60,-1
 1031 227 l 1,61,-1
 1031 0 l 1,62,-1
 452 0 l 1,14,-1
EndSplineSet
EndChar

StartChar: Eth
Encoding: 208 208 223
Width: 815
GlyphClass: 1
Flags: W
LayerCount: 2
Fore
SplineSet
50 391 m 1,0,-1
 460 391 l 1,1,-1
 460 329 l 1,2,-1
 50 329 l 1,3,-1
 50 391 l 1,0,-1
60 648 m 1,4,-1
 60 710 l 1,5,-1
 369 710 l 2,6,7
 460 710 460 710 531.5 688.5 c 128,-1,8
 603 667 603 667 652.5 623.5 c 128,-1,9
 702 580 702 580 727.5 514 c 128,-1,10
 753 448 753 448 753 359 c 0,11,12
 753 271 753 271 727.5 203.5 c 128,-1,13
 702 136 702 136 652.5 91 c 128,-1,14
 603 46 603 46 531.5 23 c 128,-1,15
 460 0 460 0 369 0 c 2,16,-1
 60 0 l 1,17,-1
 60 62 l 1,18,-1
 71 62 l 2,19,20
 108 62 108 62 132 69 c 128,-1,21
 156 76 156 76 156 98 c 2,22,-1
 156 612 l 2,23,24
 156 634 156 634 132 641 c 128,-1,25
 108 648 108 648 71 648 c 2,26,-1
 60 648 l 1,4,-1
369 648 m 2,27,-1
 249 648 l 1,28,-1
 249 62 l 1,29,-1
 369 62 l 2,30,31
 441 62 441 62 494.5 79.5 c 128,-1,32
 548 97 548 97 583 133.5 c 128,-1,33
 618 170 618 170 635.5 226 c 128,-1,34
 653 282 653 282 653 359 c 256,35,36
 653 436 653 436 635.5 491 c 128,-1,37
 618 546 618 546 583 580.5 c 128,-1,38
 548 615 548 615 494.5 631.5 c 128,-1,39
 441 648 441 648 369 648 c 2,27,-1
EndSplineSet
EndChar

StartChar: Oslash
Encoding: 216 216 224
Width: 832
GlyphClass: 2
Flags: W
AnchorPoint: "Anchor-0" 415 731 basechar 0
LayerCount: 2
Fore
SplineSet
416 671 m 0,0,1
 354 671 354 671 306.5 652 c 128,-1,2
 259 633 259 633 227 594.5 c 128,-1,3
 195 556 195 556 178.5 496 c 128,-1,4
 162 436 162 436 162 355 c 0,5,6
 162 268 162 268 177.5 207.5 c 128,-1,7
 193 147 193 147 224.5 110 c 128,-1,8
 256 73 256 73 304 56 c 128,-1,9
 352 39 352 39 416 39 c 0,10,11
 478 39 478 39 525.5 58 c 128,-1,12
 573 77 573 77 605 115.5 c 128,-1,13
 637 154 637 154 653.5 214 c 128,-1,14
 670 274 670 274 670 355 c 0,15,16
 670 442 670 442 654.5 502.5 c 128,-1,17
 639 563 639 563 607.5 600 c 128,-1,18
 576 637 576 637 528 654 c 128,-1,19
 480 671 480 671 416 671 c 0,0,1
416 -25 m 0,20,21
 337 -25 337 -25 271.5 2 c 128,-1,22
 206 29 206 29 159.5 79.5 c 128,-1,23
 113 130 113 130 87.5 200 c 128,-1,24
 62 270 62 270 62 355 c 0,25,26
 62 448 62 448 87.5 518.5 c 128,-1,27
 113 589 113 589 160 637.5 c 128,-1,28
 207 686 207 686 272 710.5 c 128,-1,29
 337 735 337 735 416 735 c 0,30,31
 496 735 496 735 561 708 c 128,-1,32
 626 681 626 681 672.5 630.5 c 128,-1,33
 719 580 719 580 744.5 510 c 128,-1,34
 770 440 770 440 770 355 c 0,35,36
 770 263 770 263 744.5 192 c 128,-1,37
 719 121 719 121 672.5 72.5 c 128,-1,38
 626 24 626 24 561 -0.5 c 128,-1,39
 496 -25 496 -25 416 -25 c 0,20,21
0 -25 m 1,40,-1
 748 735 l 1,41,-1
 832 735 l 1,42,-1
 84 -25 l 1,43,-1
 0 -25 l 1,40,-1
EndSplineSet
EndChar

StartChar: Thorn
Encoding: 222 222 226
Width: 725
GlyphClass: 1
Flags: W
LayerCount: 2
Fore
SplineSet
364 710 m 1,0,-1
 60 710 l 1,1,-1
 60 648 l 1,2,-1
 71 648 l 2,3,4
 108 648 108 648 132 641 c 128,-1,5
 156 634 156 634 156 612 c 2,6,-1
 156 98 l 2,7,8
 156 76 156 76 132 69 c 128,-1,9
 108 62 108 62 71 62 c 2,10,-1
 60 62 l 1,11,-1
 60 0 l 1,12,-1
 364 0 l 1,13,-1
 364 62 l 1,14,-1
 344 62 l 2,15,16
 326 62 326 62 309 62.5 c 128,-1,17
 292 63 292 63 278.5 64.5 c 128,-1,18
 265 66 265 66 257 67.5 c 128,-1,19
 249 69 249 69 249 72 c 2,20,-1
 249 638 l 2,21,22
 249 641 249 641 257 642.5 c 128,-1,23
 265 644 265 644 278.5 645.5 c 128,-1,24
 292 647 292 647 309 647.5 c 128,-1,25
 326 648 326 648 344 648 c 2,26,-1
 364 648 l 1,27,-1
 364 710 l 1,0,-1
665 366 m 0,28,29
 665 431 665 431 635.5 472.5 c 128,-1,30
 606 514 606 514 551.5 533.5 c 128,-1,31
 497 553 497 553 420 553 c 2,32,-1
 222 553 l 1,33,-1
 222 491 l 1,34,-1
 420 491 l 2,35,36
 470 491 470 491 502.5 477.5 c 128,-1,37
 535 464 535 464 550.5 436.5 c 128,-1,38
 566 409 566 409 566 366 c 0,39,40
 566 322 566 322 550.5 293.5 c 128,-1,41
 535 265 535 265 502.5 251 c 128,-1,42
 470 237 470 237 420 237 c 2,43,-1
 222 237 l 1,44,-1
 222 175 l 1,45,-1
 420 175 l 2,46,47
 493 175 493 175 548 196.5 c 128,-1,48
 603 218 603 218 634 260.5 c 128,-1,49
 665 303 665 303 665 366 c 0,28,29
EndSplineSet
EndChar

StartChar: Hbar
Encoding: 294 294 228
Width: 873
GlyphClass: 1
Flags: W
LayerCount: 2
Fore
SplineSet
229 365 m 1,0,-1
 644 365 l 1,1,-1
 644 311 l 1,2,-1
 229 311 l 1,3,-1
 229 365 l 1,0,-1
60 0 m 1,4,-1
 60 62 l 1,5,-1
 71 62 l 2,6,7
 108 62 108 62 132 69 c 128,-1,8
 156 76 156 76 156 98 c 2,9,-1
 156 612 l 2,10,11
 156 634 156 634 132 641 c 128,-1,12
 108 648 108 648 71 648 c 2,13,-1
 60 648 l 1,14,-1
 60 710 l 1,15,-1
 345 710 l 1,16,-1
 345 648 l 1,17,-1
 336 648 l 2,18,19
 322 648 322 648 306.5 647.5 c 128,-1,20
 291 647 291 647 278 645.5 c 128,-1,21
 265 644 265 644 257 642.5 c 128,-1,22
 249 641 249 641 249 638 c 2,23,-1
 249 72 l 2,24,25
 249 69 249 69 257 67.5 c 128,-1,26
 265 66 265 66 278 64.5 c 128,-1,27
 291 63 291 63 306.5 62.5 c 128,-1,28
 322 62 322 62 336 62 c 2,29,-1
 345 62 l 1,30,-1
 345 0 l 1,31,-1
 60 0 l 1,4,-1
528 0 m 1,32,-1
 528 62 l 1,33,-1
 537 62 l 2,34,35
 551 62 551 62 566.5 62.5 c 128,-1,36
 582 63 582 63 595 64.5 c 128,-1,37
 608 66 608 66 616 67.5 c 128,-1,38
 624 69 624 69 624 72 c 2,39,-1
 624 638 l 2,40,41
 624 641 624 641 616 642.5 c 128,-1,42
 608 644 608 644 595 645.5 c 128,-1,43
 582 647 582 647 566.5 647.5 c 128,-1,44
 551 648 551 648 537 648 c 2,45,-1
 528 648 l 1,46,-1
 528 710 l 1,47,-1
 813 710 l 1,48,-1
 813 648 l 1,49,-1
 802 648 l 2,50,51
 765 648 765 648 741 641 c 128,-1,52
 717 634 717 634 717 612 c 2,53,-1
 717 98 l 2,54,55
 717 76 717 76 741 69 c 128,-1,56
 765 62 765 62 802 62 c 2,57,-1
 813 62 l 1,58,-1
 813 0 l 1,59,-1
 528 0 l 1,32,-1
50 482 m 1,60,-1
 50 536 l 1,61,-1
 823 536 l 1,62,-1
 823 482 l 1,63,-1
 50 482 l 1,60,-1
EndSplineSet
EndChar

StartChar: Ldot
Encoding: 319 319 230
Width: 664
GlyphClass: 1
Flags: W
LayerCount: 2
Fore
SplineSet
356 710 m 1,0,-1
 60 710 l 1,1,-1
 60 648 l 1,2,-1
 71 648 l 2,3,4
 108 648 108 648 132 641 c 128,-1,5
 156 634 156 634 156 612 c 2,6,-1
 156 98 l 2,7,8
 156 76 156 76 132 69 c 128,-1,9
 108 62 108 62 71 62 c 2,10,-1
 60 62 l 1,11,-1
 60 0 l 1,12,-1
 614 0 l 1,13,-1
 614 221 l 1,14,-1
 548 221 l 1,15,-1
 533 107 l 2,16,17
 531 89 531 89 517.5 79 c 128,-1,18
 504 69 504 69 477.5 65.5 c 128,-1,19
 451 62 451 62 408 62 c 2,20,-1
 249 62 l 1,21,-1
 249 612 l 2,22,23
 249 634 249 634 275 641 c 128,-1,24
 301 648 301 648 340 648 c 2,25,-1
 356 648 l 1,26,-1
 356 710 l 1,0,-1
541 348 m 0,27,28
 504 348 504 348 479.5 370.5 c 128,-1,29
 455 393 455 393 455 428 c 0,30,31
 455 464 455 464 479.5 486 c 128,-1,32
 504 508 504 508 541 508 c 0,33,34
 579 508 579 508 604 486 c 128,-1,35
 629 464 629 464 629 428 c 0,36,37
 629 393 629 393 604 370.5 c 128,-1,38
 579 348 579 348 541 348 c 0,27,28
EndSplineSet
Ligature2: "Ligature Substitution lookup 5 subtable" L periodcentered
EndChar

StartChar: Lslash
Encoding: 321 321 231
Width: 664
GlyphClass: 1
Flags: W
LayerCount: 2
Fore
SplineSet
31 188 m 1,0,-1
 520 476 l 1,1,-1
 520 546 l 1,2,-1
 31 258 l 1,3,-1
 31 188 l 1,0,-1
356 710 m 1,4,-1
 60 710 l 1,5,-1
 60 648 l 1,6,-1
 71 648 l 2,7,8
 108 648 108 648 132 641 c 128,-1,9
 156 634 156 634 156 612 c 2,10,-1
 156 98 l 2,11,12
 156 76 156 76 132 69 c 128,-1,13
 108 62 108 62 71 62 c 2,14,-1
 60 62 l 1,15,-1
 60 0 l 1,16,-1
 614 0 l 1,17,-1
 614 236 l 1,18,-1
 548 236 l 1,19,-1
 533 107 l 2,20,21
 531 89 531 89 518 79 c 128,-1,22
 505 69 505 69 478 65.5 c 128,-1,23
 451 62 451 62 408 62 c 2,24,-1
 249 62 l 1,25,-1
 249 612 l 2,26,27
 249 634 249 634 275 641 c 128,-1,28
 301 648 301 648 340 648 c 2,29,-1
 356 648 l 1,30,-1
 356 710 l 1,4,-1
EndSplineSet
EndChar

StartChar: Eng
Encoding: 330 330 232
Width: 848
GlyphClass: 1
Flags: W
LayerCount: 2
Fore
SplineSet
702 -11 m 2,0,1
 702 -75 702 -75 685 -121 c 128,-1,2
 668 -167 668 -167 637.5 -195 c 128,-1,3
 607 -223 607 -223 565 -236.5 c 128,-1,4
 523 -250 523 -250 472 -250 c 0,5,6
 429 -250 429 -250 398.5 -244.5 c 128,-1,7
 368 -239 368 -239 349 -231 c 1,8,-1
 349 -162 l 1,9,10
 364 -168 364 -168 382 -173 c 128,-1,11
 400 -178 400 -178 422 -181 c 128,-1,12
 444 -184 444 -184 469 -184 c 0,13,14
 522 -184 522 -184 558 -168 c 128,-1,15
 594 -152 594 -152 613 -112 c 128,-1,16
 632 -72 632 -72 632 0 c 2,17,-1
 632 67 l 1,18,-1
 658 -33 l 1,19,-1
 212 666 l 1,20,-1
 228 669 l 1,21,-1
 228 72 l 2,22,23
 228 69 228 69 241.5 66.5 c 128,-1,24
 255 64 255 64 274.5 63 c 128,-1,25
 294 62 294 62 310 62 c 2,26,-1
 324 62 l 1,27,-1
 324 0 l 1,28,-1
 62 0 l 1,29,-1
 62 62 l 1,30,-1
 73 62 l 2,31,32
 98 62 98 62 117 65 c 128,-1,33
 136 68 136 68 147 76 c 128,-1,34
 158 84 158 84 158 98 c 2,35,-1
 158 612 l 2,36,37
 158 627 158 627 147 634.5 c 128,-1,38
 136 642 136 642 117 645 c 128,-1,39
 98 648 98 648 73 648 c 2,40,-1
 62 648 l 1,41,-1
 62 710 l 1,42,-1
 287 710 l 1,43,-1
 685 92 l 1,44,-1
 632 86 l 1,45,-1
 632 638 l 2,46,47
 632 642 632 642 618.5 644 c 128,-1,48
 605 646 605 646 586 647 c 128,-1,49
 567 648 567 648 550 648 c 2,50,-1
 536 648 l 1,51,-1
 536 710 l 1,52,-1
 798 710 l 1,53,-1
 798 648 l 1,54,-1
 787 648 l 2,55,56
 763 648 763 648 743.5 645 c 128,-1,57
 724 642 724 642 713 634.5 c 128,-1,58
 702 627 702 627 702 612 c 2,59,-1
 702 -11 l 2,0,1
EndSplineSet
Substitution2: "'ss07' Style Set 7 lookup 67 subtable" Eng.afr
EndChar

StartChar: OE
Encoding: 338 338 233
Width: 1124
GlyphClass: 1
Flags: W
LayerCount: 2
Fore
SplineSet
642 394 m 1,0,1
 690 397 690 397 738 399.5 c 128,-1,2
 786 402 786 402 833.5 404.5 c 128,-1,3
 881 407 881 407 929 409 c 1,4,-1
 929 321 l 1,5,6
 881 324 881 324 833.5 326.5 c 128,-1,7
 786 329 786 329 738 331.5 c 128,-1,8
 690 334 690 334 642 336 c 1,9,-1
 642 394 l 1,0,1
446 62 m 2,10,-1
 566 62 l 1,11,-1
 566 648 l 1,12,-1
 446 648 l 2,13,14
 374 648 374 648 320.5 630.5 c 128,-1,15
 267 613 267 613 232 577 c 128,-1,16
 197 541 197 541 179.5 484.5 c 128,-1,17
 162 428 162 428 162 351 c 256,18,19
 162 274 162 274 179.5 219 c 128,-1,20
 197 164 197 164 232 129.5 c 128,-1,21
 267 95 267 95 320.5 78.5 c 128,-1,22
 374 62 374 62 446 62 c 2,10,-1
446 0 m 2,23,24
 355 0 355 0 283.5 21.5 c 128,-1,25
 212 43 212 43 162.5 86.5 c 128,-1,26
 113 130 113 130 87.5 196 c 128,-1,27
 62 262 62 262 62 351 c 256,28,29
 62 440 62 440 87.5 507 c 128,-1,30
 113 574 113 574 162.5 619 c 128,-1,31
 212 664 212 664 283.5 687 c 128,-1,32
 355 710 355 710 446 710 c 2,33,-1
 1030 710 l 1,34,-1
 1030 508 l 1,35,-1
 966 508 l 1,36,-1
 953 603 l 2,37,38
 951 621 951 621 937.5 630.5 c 128,-1,39
 924 640 924 640 897.5 644 c 128,-1,40
 871 648 871 648 828 648 c 2,41,-1
 659 648 l 1,42,-1
 659 62 l 1,43,-1
 843 62 l 2,44,45
 875 62 875 62 898 64 c 128,-1,46
 921 66 921 66 936 71 c 128,-1,47
 951 76 951 76 958.5 85 c 128,-1,48
 966 94 966 94 968 107 c 2,49,-1
 983 227 l 1,50,-1
 1049 227 l 1,51,-1
 1049 0 l 1,52,-1
 446 0 l 2,23,24
EndSplineSet
EndChar

StartChar: Tbar
Encoding: 358 358 234
Width: 739
GlyphClass: 1
Flags: W
LayerCount: 2
Fore
SplineSet
136 334 m 1,0,-1
 600 334 l 1,1,-1
 600 274 l 1,2,-1
 136 274 l 1,3,-1
 136 334 l 1,0,-1
323 98 m 2,4,-1
 323 648 l 1,5,-1
 267 648 l 2,6,7
 219 648 219 648 190 642.5 c 128,-1,8
 161 637 161 637 147.5 625 c 128,-1,9
 134 613 134 613 132 595 c 2,10,-1
 119 469 l 1,11,-1
 55 469 l 1,12,-1
 55 710 l 1,13,-1
 684 710 l 1,14,-1
 684 469 l 1,15,-1
 620 469 l 1,16,-1
 607 595 l 2,17,18
 605 613 605 613 591.5 625 c 128,-1,19
 578 637 578 637 549 642.5 c 128,-1,20
 520 648 520 648 472 648 c 2,21,-1
 416 648 l 1,22,-1
 416 98 l 2,23,24
 416 76 416 76 442.5 69 c 128,-1,25
 469 62 469 62 506 62 c 2,26,-1
 526 62 l 1,27,-1
 526 0 l 1,28,-1
 213 0 l 1,29,-1
 213 62 l 1,30,-1
 233 62 l 2,31,32
 270 62 270 62 296.5 69 c 128,-1,33
 323 76 323 76 323 98 c 2,4,-1
EndSplineSet
EndChar

StartChar: Bhook
Encoding: 385 385 235
Width: 781
GlyphClass: 2
Flags: W
AnchorPoint: "Anchor-1" 422 0 basechar 0
AnchorPoint: "Anchor-0" 391 741 basechar 0
LayerCount: 2
Fore
SplineSet
265 402 m 1,0,-1
 456 402 l 2,1,2
 501 402 501 402 529.5 415.5 c 128,-1,3
 558 429 558 429 571 457.5 c 128,-1,4
 584 486 584 486 584 529 c 0,5,6
 584 567 584 567 571 593.5 c 128,-1,7
 558 620 558 620 530.5 634 c 128,-1,8
 503 648 503 648 457 648 c 2,9,-1
 307 648 l 1,10,-1
 307 62 l 1,11,-1
 467 62 l 2,12,13
 518 62 518 62 550.5 78 c 128,-1,14
 583 94 583 94 598 125 c 128,-1,15
 613 156 613 156 613 200 c 0,16,17
 613 247 613 247 596.5 278.5 c 128,-1,18
 580 310 580 310 545.5 326 c 128,-1,19
 511 342 511 342 456 342 c 2,20,-1
 265 342 l 1,21,-1
 265 402 l 1,0,-1
190 710 m 2,22,-1
 460 710 l 2,23,24
 513 710 513 710 554 699 c 128,-1,25
 595 688 595 688 623 665.5 c 128,-1,26
 651 643 651 643 665.5 609 c 128,-1,27
 680 575 680 575 680 530 c 0,28,29
 680 486 680 486 659 450.5 c 128,-1,30
 638 415 638 415 595.5 395 c 128,-1,31
 553 375 553 375 489 375 c 1,32,-1
 499 392 l 1,33,-1
 499 351 l 1,34,-1
 489 371 l 1,35,36
 562 368 562 368 611 346.5 c 128,-1,37
 660 325 660 325 685.5 288 c 128,-1,38
 711 251 711 251 711 199 c 0,39,40
 711 149 711 149 695 111.5 c 128,-1,41
 679 74 679 74 648 49.5 c 128,-1,42
 617 25 617 25 572.5 12.5 c 128,-1,43
 528 0 528 0 470 0 c 2,44,-1
 118 0 l 1,45,-1
 118 62 l 1,46,-1
 129 62 l 2,47,48
 166 62 166 62 190 69 c 128,-1,49
 214 76 214 76 214 98 c 2,50,-1
 214 648 l 1,51,-1
 193 648 l 2,52,53
 159 648 159 648 137 640 c 128,-1,54
 115 632 115 632 104 610.5 c 128,-1,55
 93 589 93 589 93 547 c 0,56,57
 93 521 93 521 96 501.5 c 128,-1,58
 99 482 99 482 104 468 c 1,59,-1
 12 468 l 1,60,61
 11 479 11 479 8.5 497 c 128,-1,62
 6 515 6 515 6 533 c 0,63,64
 6 597 6 597 27 635.5 c 128,-1,65
 48 674 48 674 89 692 c 128,-1,66
 130 710 130 710 190 710 c 2,22,-1
EndSplineSet
EndChar

StartChar: Dhook
Encoding: 394 394 236
Width: 873
GlyphClass: 2
Flags: W
AnchorPoint: "Anchor-1" 437 0 basechar 0
AnchorPoint: "Anchor-0" 410 741 basechar 0
LayerCount: 2
Fore
SplineSet
190 710 m 2,0,-1
 427 710 l 2,1,2
 518 710 518 710 589.5 688.5 c 128,-1,3
 661 667 661 667 710.5 623.5 c 128,-1,4
 760 580 760 580 785.5 514 c 128,-1,5
 811 448 811 448 811 359 c 0,6,7
 811 271 811 271 785.5 203.5 c 128,-1,8
 760 136 760 136 710.5 91 c 128,-1,9
 661 46 661 46 589.5 23 c 128,-1,10
 518 0 518 0 427 0 c 2,11,-1
 118 0 l 1,12,-1
 118 62 l 1,13,-1
 129 62 l 2,14,15
 166 62 166 62 190 69 c 128,-1,16
 214 76 214 76 214 98 c 2,17,-1
 214 648 l 1,18,-1
 193 648 l 2,19,20
 159 648 159 648 137 640 c 128,-1,21
 115 632 115 632 104 610.5 c 128,-1,22
 93 589 93 589 93 547 c 0,23,24
 93 521 93 521 96 501.5 c 128,-1,25
 99 482 99 482 104 468 c 1,26,-1
 12 468 l 1,27,28
 11 479 11 479 8.5 497 c 128,-1,29
 6 515 6 515 6 533 c 0,30,31
 6 597 6 597 27 635.5 c 128,-1,32
 48 674 48 674 89 692 c 128,-1,33
 130 710 130 710 190 710 c 2,0,-1
427 648 m 2,34,-1
 307 648 l 1,35,-1
 307 62 l 1,36,-1
 427 62 l 2,37,38
 499 62 499 62 552.5 79.5 c 128,-1,39
 606 97 606 97 641 133.5 c 128,-1,40
 676 170 676 170 693.5 226 c 128,-1,41
 711 282 711 282 711 359 c 256,42,43
 711 436 711 436 693.5 491 c 128,-1,44
 676 546 676 546 641 580.5 c 128,-1,45
 606 615 606 615 552.5 631.5 c 128,-1,46
 499 648 499 648 427 648 c 2,34,-1
EndSplineSet
EndChar

StartChar: Schwa
Encoding: 399 399 237
Width: 774
GlyphClass: 1
Flags: W
LayerCount: 2
Fore
SplineSet
373 750 m 0,0,1
 476 750 476 750 552 707.5 c 128,-1,2
 628 665 628 665 670 580.5 c 128,-1,3
 712 496 712 496 712 369 c 0,4,5
 712 279 712 279 688 206.5 c 128,-1,6
 664 134 664 134 620 82.5 c 128,-1,7
 576 31 576 31 514 3 c 128,-1,8
 452 -25 452 -25 375 -25 c 0,9,10
 266 -25 266 -25 198.5 22 c 128,-1,11
 131 69 131 69 99.5 161 c 128,-1,12
 68 253 68 253 65 389 c 1,13,-1
 646 389 l 1,14,-1
 646 325 l 1,15,-1
 151 325 l 1,16,-1
 165 339 l 1,17,18
 169 253 169 253 181.5 195 c 128,-1,19
 194 137 194 137 218 103 c 128,-1,20
 242 69 242 69 280 54 c 128,-1,21
 318 39 318 39 374 39 c 256,22,23
 430 39 430 39 474 57.5 c 128,-1,24
 518 76 518 76 549 115.5 c 128,-1,25
 580 155 580 155 596 217.5 c 128,-1,26
 612 280 612 280 612 369 c 0,27,28
 612 465 612 465 594.5 527 c 128,-1,29
 577 589 577 589 545 624 c 128,-1,30
 513 659 513 659 469.5 672.5 c 128,-1,31
 426 686 426 686 373 686 c 0,32,33
 309 686 309 686 262.5 669.5 c 128,-1,34
 216 653 216 653 181.5 621.5 c 128,-1,35
 147 590 147 590 120 545 c 1,36,-1
 62 584 l 1,37,38
 92 634 92 634 136 671 c 128,-1,39
 180 708 180 708 239.5 729 c 128,-1,40
 299 750 299 750 373 750 c 0,0,1
EndSplineSet
EndChar

StartChar: Khook
Encoding: 408 408 238
Width: 793
GlyphClass: 2
Flags: W
AnchorPoint: "Anchor-1" 404 0 basechar 0
AnchorPoint: "Anchor-0" 452 741 basechar 0
LayerCount: 2
Fore
SplineSet
60 0 m 1,0,-1
 60 62 l 1,1,-1
 71 62 l 2,2,3
 108 62 108 62 132 69 c 128,-1,4
 156 76 156 76 156 98 c 2,5,-1
 156 612 l 2,6,7
 156 634 156 634 132 641 c 128,-1,8
 108 648 108 648 71 648 c 2,9,-1
 60 648 l 1,10,-1
 60 710 l 1,11,-1
 340 710 l 1,12,-1
 340 648 l 1,13,-1
 331 648 l 2,14,15
 319 648 319 648 304.5 647.5 c 128,-1,16
 290 647 290 647 277.5 645.5 c 128,-1,17
 265 644 265 644 257 642.5 c 128,-1,18
 249 641 249 641 249 638 c 2,19,-1
 249 72 l 2,20,21
 249 69 249 69 257 67.5 c 128,-1,22
 265 66 265 66 277.5 64.5 c 128,-1,23
 290 63 290 63 304.5 62.5 c 128,-1,24
 319 62 319 62 331 62 c 2,25,-1
 340 62 l 1,26,-1
 340 0 l 1,27,-1
 60 0 l 1,0,-1
707 719 m 0,28,29
 741 719 741 719 762 702.5 c 128,-1,30
 783 686 783 686 792.5 656.5 c 128,-1,31
 802 627 802 627 802 588 c 0,32,33
 802 552 802 552 796.5 519 c 128,-1,34
 791 486 791 486 783 468 c 1,35,-1
 691 468 l 1,36,37
 697 481 697 481 702.5 500 c 128,-1,38
 708 519 708 519 711.5 542 c 128,-1,39
 715 565 715 565 715 589 c 0,40,41
 715 614 715 614 708.5 628.5 c 128,-1,42
 702 643 702 643 686 643 c 0,43,44
 672 643 672 643 657.5 634.5 c 128,-1,45
 643 626 643 626 619.5 604.5 c 128,-1,46
 596 583 596 583 553 542 c 2,47,-1
 360 356 l 1,48,-1
 368 399 l 1,49,-1
 671 83 l 2,50,51
 680 74 680 74 690.5 69.5 c 128,-1,52
 701 65 701 65 714.5 63.5 c 128,-1,53
 728 62 728 62 745 62 c 2,54,-1
 763 62 l 1,55,-1
 763 0 l 1,56,-1
 463 0 l 1,57,-1
 463 62 l 1,58,-1
 472 62 l 2,59,60
 493 62 493 62 512.5 63 c 128,-1,61
 532 64 532 64 544.5 66.5 c 128,-1,62
 557 69 557 69 557 72 c 2,63,-1
 299 343 l 1,64,-1
 299 373 l 1,65,-1
 500 571 l 2,66,67
 541 612 541 612 570 640 c 128,-1,68
 599 668 599 668 621.5 685.5 c 128,-1,69
 644 703 644 703 664 711 c 128,-1,70
 684 719 684 719 707 719 c 0,28,29
EndSplineSet
EndChar

StartChar: Yhook
Encoding: 435 435 239
Width: 767
GlyphClass: 2
Flags: W
AnchorPoint: "Anchor-1" 360 0 basechar 0
AnchorPoint: "Anchor-0" 391 741 basechar 0
LayerCount: 2
Fore
SplineSet
516 576 m 2,0,1
 545 628 545 628 569.5 659 c 128,-1,2
 594 690 594 690 620 704.5 c 128,-1,3
 646 719 646 719 677 719 c 0,4,5
 719 719 719 719 743 700 c 128,-1,6
 767 681 767 681 777 650.5 c 128,-1,7
 787 620 787 620 787 584 c 0,8,9
 787 553 787 553 782 519.5 c 128,-1,10
 777 486 777 486 771 468 c 1,11,-1
 678 468 l 1,12,13
 683 481 683 481 688 499 c 128,-1,14
 693 517 693 517 696.5 537.5 c 128,-1,15
 700 558 700 558 700 577 c 0,16,17
 700 609 700 609 690.5 625 c 128,-1,18
 681 641 681 641 659 641 c 0,19,20
 645 641 645 641 632.5 631.5 c 128,-1,21
 620 622 620 622 605.5 601.5 c 128,-1,22
 591 581 591 581 571 548 c 2,23,-1
 404 263 l 1,24,-1
 411 309 l 1,25,-1
 411 98 l 2,26,27
 411 76 411 76 436 69 c 128,-1,28
 461 62 461 62 499 62 c 2,29,-1
 520 62 l 1,30,-1
 520 0 l 1,31,-1
 209 0 l 1,32,-1
 209 62 l 1,33,-1
 230 62 l 2,34,35
 268 62 268 62 293 69 c 128,-1,36
 318 76 318 76 318 98 c 2,37,-1
 318 309 l 1,38,-1
 324 264 l 1,39,-1
 116 614 l 2,40,41
 107 629 107 629 97 636.5 c 128,-1,42
 87 644 87 644 74 646 c 128,-1,43
 61 648 61 648 43 648 c 2,44,-1
 30 648 l 1,45,-1
 30 710 l 1,46,-1
 282 710 l 1,47,-1
 282 648 l 1,48,-1
 265 648 l 2,49,50
 250 648 250 648 234 646.5 c 128,-1,51
 218 645 218 645 207 643 c 128,-1,52
 196 641 196 641 196 637 c 2,53,-1
 386 308 l 1,54,-1
 367 308 l 1,55,-1
 516 576 l 2,0,1
EndSplineSet
EndChar

StartChar: Germandbls
Encoding: 7838 7838 240
Width: 887
GlyphClass: 1
Flags: W
LayerCount: 2
Fore
SplineSet
614 48 m 0,0,1
 663 48 663 48 688 62 c 128,-1,2
 713 76 713 76 722.5 106 c 128,-1,3
 732 136 732 136 732 183 c 0,4,5
 732 231 732 231 718.5 260.5 c 128,-1,6
 705 290 705 290 677 308 c 128,-1,7
 649 326 649 326 605 340 c 128,-1,8
 561 354 561 354 500 371 c 1,9,-1
 500 433 l 1,10,-1
 657 660 l 1,11,-1
 685 648 l 1,12,-1
 402 648 l 2,13,14
 349 648 349 648 317 634.5 c 128,-1,15
 285 621 285 621 268.5 597 c 128,-1,16
 252 573 252 573 246.5 539.5 c 128,-1,17
 241 506 241 506 241 465 c 2,18,-1
 241 0 l 1,19,-1
 52 0 l 1,20,-1
 52 62 l 1,21,-1
 63 62 l 2,22,23
 100 62 100 62 124 69 c 128,-1,24
 148 76 148 76 148 98 c 2,25,-1
 148 458 l 2,26,27
 148 519 148 519 161 566 c 128,-1,28
 174 613 174 613 203.5 645 c 128,-1,29
 233 677 233 677 282 693.5 c 128,-1,30
 331 710 331 710 402 710 c 2,31,-1
 734 710 l 1,32,-1
 734 630 l 1,33,-1
 575 402 l 1,34,-1
 537 422 l 1,35,36
 597 406 597 406 649.5 389.5 c 128,-1,37
 702 373 702 373 741.5 348.5 c 128,-1,38
 781 324 781 324 803 285 c 128,-1,39
 825 246 825 246 825 186 c 0,40,41
 825 125 825 125 802.5 80 c 128,-1,42
 780 35 780 35 733.5 10.5 c 128,-1,43
 687 -14 687 -14 614 -14 c 0,44,45
 553 -14 553 -14 514 7.5 c 128,-1,46
 475 29 475 29 455.5 74.5 c 128,-1,47
 436 120 436 120 431 190 c 1,48,-1
 444 139 l 1,49,-1
 434 0 l 1,50,-1
 364 0 l 1,51,-1
 364 229 l 1,52,-1
 439 229 l 1,53,54
 448 186 448 186 460.5 152 c 128,-1,55
 473 118 473 118 492 95 c 128,-1,56
 511 72 511 72 541 60 c 128,-1,57
 571 48 571 48 614 48 c 0,0,1
EndSplineSet
EndChar

StartChar: Delta
Encoding: 916 916 241
Width: 773
GlyphClass: 1
Flags: W
LayerCount: 2
Fore
SplineSet
56 0 m 1,0,-1
 56 87 l 1,1,-1
 328 710 l 1,2,-1
 445 710 l 1,3,-1
 717 87 l 1,4,-1
 717 0 l 1,5,-1
 56 0 l 1,0,-1
636 57 m 1,6,-1
 359 700 l 1,7,-1
 389 698 l 1,8,-1
 112 55 l 1,9,-1
 87 82 l 1,10,-1
 656 82 l 1,11,-1
 636 57 l 1,6,-1
EndSplineSet
EndChar

StartChar: Omega
Encoding: 937 937 242
Width: 884
GlyphClass: 1
Flags: W
LayerCount: 2
Fore
SplineSet
442 735 m 256,0,1
 369 735 369 735 308.5 718.5 c 128,-1,2
 248 702 248 702 204.5 668.5 c 128,-1,3
 161 635 161 635 137 585 c 128,-1,4
 113 535 113 535 113 468 c 0,5,6
 113 429 113 429 123 393.5 c 128,-1,7
 133 358 133 358 152.5 322 c 128,-1,8
 172 286 172 286 201 246.5 c 128,-1,9
 230 207 230 207 268.5 161 c 128,-1,10
 307 115 307 115 354 59 c 1,11,-1
 363 72 l 1,12,-1
 251 72 l 2,13,14
 208 72 208 72 181.5 77 c 128,-1,15
 155 82 155 82 142 93.5 c 128,-1,16
 129 105 129 105 126 123 c 2,17,-1
 111 216 l 1,18,-1
 50 216 l 1,19,-1
 50 0 l 1,20,-1
 386 0 l 1,21,-1
 386 102 l 1,22,23
 351 151 351 151 320 191 c 128,-1,24
 289 231 289 231 265 270 c 128,-1,25
 241 309 241 309 227 353.5 c 128,-1,26
 213 398 213 398 213 455 c 0,27,28
 213 542 213 542 240 588.5 c 128,-1,29
 267 635 267 635 318.5 653 c 128,-1,30
 370 671 370 671 442 671 c 0,31,32
 515 671 515 671 566 653 c 128,-1,33
 617 635 617 635 644 588.5 c 128,-1,34
 671 542 671 542 671 455 c 0,35,36
 671 398 671 398 657 353.5 c 128,-1,37
 643 309 643 309 619 270 c 128,-1,38
 595 231 595 231 564 191 c 128,-1,39
 533 151 533 151 498 102 c 1,40,-1
 498 0 l 1,41,-1
 834 0 l 1,42,-1
 834 216 l 1,43,-1
 773 216 l 1,44,-1
 758 123 l 2,45,46
 755 105 755 105 742 93.5 c 128,-1,47
 729 82 729 82 702.5 77 c 128,-1,48
 676 72 676 72 633 72 c 2,49,-1
 521 72 l 1,50,-1
 530 59 l 1,51,52
 577 115 577 115 615.5 161 c 128,-1,53
 654 207 654 207 683 246.5 c 128,-1,54
 712 286 712 286 731.5 322 c 128,-1,55
 751 358 751 358 761 393.5 c 128,-1,56
 771 429 771 429 771 468 c 0,57,58
 771 535 771 535 747 585 c 128,-1,59
 723 635 723 635 679.5 668.5 c 128,-1,60
 636 702 636 702 575.5 718.5 c 128,-1,61
 515 735 515 735 442 735 c 256,0,1
EndSplineSet
EndChar

StartChar: Djecyr
Encoding: 1026 1026 244
Width: 885
GlyphClass: 2
Flags: W
AnchorPoint: "Anchor-0" 345 741 basechar 0
LayerCount: 2
Fore
SplineSet
820 195 m 0,0,1
 820 142 820 142 803.5 101 c 128,-1,2
 787 60 787 60 755 32 c 128,-1,3
 723 4 723 4 677.5 -10.5 c 128,-1,4
 632 -25 632 -25 575 -25 c 1,5,-1
 575 37 l 1,6,7
 622 37 622 37 654.5 52.5 c 128,-1,8
 687 68 687 68 704 103 c 128,-1,9
 721 138 721 138 721 195 c 0,10,11
 721 263 721 263 681.5 307.5 c 128,-1,12
 642 352 642 352 563 352 c 0,13,14
 502 352 502 352 453 339 c 128,-1,15
 404 326 404 326 349 293 c 1,16,-1
 349 356 l 1,17,18
 399 384 399 384 451.5 399 c 128,-1,19
 504 414 504 414 565 414 c 0,20,21
 652 414 652 414 708.5 386 c 128,-1,22
 765 358 765 358 792.5 309 c 128,-1,23
 820 260 820 260 820 195 c 0,0,1
193 0 m 1,24,-1
 193 62 l 1,25,-1
 213 62 l 2,26,27
 250 62 250 62 276.5 69 c 128,-1,28
 303 76 303 76 303 98 c 2,29,-1
 303 648 l 1,30,-1
 267 648 l 2,31,32
 219 648 219 648 190 642.5 c 128,-1,33
 161 637 161 637 147.5 625 c 128,-1,34
 134 613 134 613 132 595 c 2,35,-1
 119 469 l 1,36,-1
 55 469 l 1,37,-1
 55 710 l 1,38,-1
 684 710 l 1,39,-1
 684 489 l 1,40,-1
 620 489 l 1,41,-1
 607 595 l 2,42,43
 605 613 605 613 591.5 625 c 128,-1,44
 578 637 578 637 549 642.5 c 128,-1,45
 520 648 520 648 472 648 c 2,46,-1
 396 648 l 1,47,-1
 396 72 l 2,48,49
 396 69 396 69 407.5 66.5 c 128,-1,50
 419 64 419 64 437 63 c 128,-1,51
 455 62 455 62 475 62 c 2,52,-1
 486 62 l 1,53,-1
 486 0 l 1,54,-1
 193 0 l 1,24,-1
EndSplineSet
EndChar

StartChar: Eukrcyr
Encoding: 1028 1028 245
Width: 794
GlyphClass: 2
Flags: W
AnchorPoint: "Anchor-1" 413 0 basechar 0
AnchorPoint: "Anchor-0" 413 741 basechar 0
LayerCount: 2
Fore
SplineSet
134 394 m 1,0,1
 165 395 165 395 196 396.5 c 128,-1,2
 227 398 227 398 258 399 c 128,-1,3
 289 400 289 400 320.5 401.5 c 128,-1,4
 352 403 352 403 383 404 c 128,-1,5
 414 405 414 405 445 406.5 c 128,-1,6
 476 408 476 408 507 409 c 1,7,-1
 507 321 l 1,8,9
 476 322 476 322 445 323.5 c 128,-1,10
 414 325 414 325 383 326 c 128,-1,11
 352 327 352 327 320.5 328.5 c 128,-1,12
 289 330 289 330 258 331 c 128,-1,13
 227 332 227 332 196 333.5 c 128,-1,14
 165 335 165 335 134 336 c 1,15,-1
 134 394 l 1,0,1
405 671 m 0,16,17
 346 671 346 671 301 652.5 c 128,-1,18
 256 634 256 634 225 596 c 128,-1,19
 194 558 194 558 178 498 c 128,-1,20
 162 438 162 438 162 355 c 256,21,22
 162 272 162 272 178 212 c 128,-1,23
 194 152 194 152 225.5 114 c 128,-1,24
 257 76 257 76 304 57.5 c 128,-1,25
 351 39 351 39 414 39 c 0,26,27
 488 39 488 39 538.5 66 c 128,-1,28
 589 93 589 93 621.5 139.5 c 128,-1,29
 654 186 654 186 674 243 c 1,30,-1
 737 217 l 1,31,32
 713 141 713 141 668.5 87 c 128,-1,33
 624 33 624 33 559.5 4 c 128,-1,34
 495 -25 495 -25 410 -25 c 0,35,36
 331 -25 331 -25 267 -1 c 128,-1,37
 203 23 203 23 157 71 c 128,-1,38
 111 119 111 119 86.5 190 c 128,-1,39
 62 261 62 261 62 355 c 0,40,41
 62 450 62 450 87 521 c 128,-1,42
 112 592 112 592 158 639.5 c 128,-1,43
 204 687 204 687 267 711 c 128,-1,44
 330 735 330 735 405 735 c 0,45,46
 475 735 475 735 528.5 708.5 c 128,-1,47
 582 682 582 682 616 629.5 c 128,-1,48
 650 577 650 577 660 498 c 1,49,-1
 639 549 l 1,50,-1
 651 720 l 1,51,-1
 721 720 l 1,52,-1
 721 458 l 1,53,-1
 648 458 l 1,54,55
 630 524 630 524 596.5 572 c 128,-1,56
 563 620 563 620 515 645.5 c 128,-1,57
 467 671 467 671 405 671 c 0,16,17
EndSplineSet
Substitution2: "'ss01' Style Set 1 lookup 61 subtable" Ieukran.alt1
EndChar

StartChar: Yukrcyr
Encoding: 1031 1031 248
Width: 423
GlyphClass: 2
Flags: W
AnchorPoint: "Anchor-1" 212 0 basechar 0
AnchorPoint: "Anchor-0" 212 911 basechar 0
LayerCount: 2
Fore
SplineSet
175 855 m 0,0,1
 175 820 175 820 155.5 804 c 128,-1,2
 136 788 136 788 106 788 c 0,3,4
 75 788 75 788 56 804 c 128,-1,5
 37 820 37 820 37 855 c 0,6,7
 37 889 37 889 56 905 c 128,-1,8
 75 921 75 921 106 921 c 0,9,10
 136 921 136 921 155.5 905 c 128,-1,11
 175 889 175 889 175 855 c 0,0,1
386 855 m 0,12,13
 386 820 386 820 366.5 804 c 128,-1,14
 347 788 347 788 317 788 c 0,15,16
 286 788 286 788 267 804 c 128,-1,17
 248 820 248 820 248 855 c 0,18,19
 248 889 248 889 267 905 c 128,-1,20
 286 921 286 921 317 921 c 0,21,22
 347 921 347 921 366.5 905 c 128,-1,23
 386 889 386 889 386 855 c 0,12,13
165 98 m 2,24,-1
 165 612 l 2,25,26
 165 634 165 634 141 641 c 128,-1,27
 117 648 117 648 80 648 c 2,28,-1
 60 648 l 1,29,-1
 60 710 l 1,30,-1
 363 710 l 1,31,-1
 363 648 l 1,32,-1
 343 648 l 2,33,34
 306 648 306 648 282 641 c 128,-1,35
 258 634 258 634 258 612 c 2,36,-1
 258 98 l 2,37,38
 258 76 258 76 282 69 c 128,-1,39
 306 62 306 62 343 62 c 2,40,-1
 363 62 l 1,41,-1
 363 0 l 1,42,-1
 60 0 l 1,43,-1
 60 62 l 1,44,-1
 80 62 l 2,45,46
 117 62 117 62 141 69 c 128,-1,47
 165 76 165 76 165 98 c 2,24,-1
EndSplineSet
EndChar

StartChar: Ljecyr
Encoding: 1033 1033 250
Width: 1082
GlyphClass: 2
Flags: W
AnchorPoint: "Anchor-0" 433 741 basechar 0
LayerCount: 2
Fore
SplineSet
229 710 m 1,0,-1
 606 710 l 1,1,-1
 606 648 l 1,2,-1
 229 648 l 1,3,-1
 229 710 l 1,0,-1
196 266 m 2,4,-1
 225 612 l 2,5,6
 227 634 227 634 202.5 641 c 128,-1,7
 178 648 178 648 141 648 c 2,8,-1
 130 648 l 1,9,-1
 130 710 l 1,10,-1
 307 710 l 1,11,-1
 270 266 l 2,12,13
 262 166 262 166 239.5 104.5 c 128,-1,14
 217 43 217 43 178.5 14 c 128,-1,15
 140 -15 140 -15 84 -15 c 0,16,17
 59 -15 59 -15 42 -10 c 128,-1,18
 25 -5 25 -5 15 0 c 1,19,-1
 15 91 l 1,20,21
 21 88 21 88 38.5 82 c 128,-1,22
 56 76 56 76 82 76 c 0,23,24
 118 76 118 76 141 95.5 c 128,-1,25
 164 115 164 115 177.5 157 c 128,-1,26
 191 199 191 199 196 266 c 2,4,-1
777 0 m 2,27,-1
 440 0 l 1,28,-1
 440 62 l 1,29,-1
 449 62 l 2,30,31
 468 62 468 62 488 63 c 128,-1,32
 508 64 508 64 522 66.5 c 128,-1,33
 536 69 536 69 536 72 c 2,34,-1
 536 710 l 1,35,-1
 734 710 l 1,36,-1
 734 648 l 1,37,-1
 714 648 l 2,38,39
 677 648 677 648 653 641 c 128,-1,40
 629 634 629 634 629 612 c 2,41,-1
 629 62 l 1,42,-1
 777 62 l 2,43,44
 827 62 827 62 859 78.5 c 128,-1,45
 891 95 891 95 906.5 129 c 128,-1,46
 922 163 922 163 922 215 c 0,47,48
 922 266 922 266 906.5 299.5 c 128,-1,49
 891 333 891 333 859 349.5 c 128,-1,50
 827 366 827 366 777 366 c 2,51,-1
 603 366 l 1,52,-1
 603 428 l 1,53,-1
 777 428 l 2,54,55
 854 428 854 428 908.5 405.5 c 128,-1,56
 963 383 963 383 992.5 336 c 128,-1,57
 1022 289 1022 289 1022 215 c 0,58,59
 1022 145 1022 145 991 97 c 128,-1,60
 960 49 960 49 905 24.5 c 128,-1,61
 850 0 850 0 777 0 c 2,27,-1
EndSplineSet
EndChar

StartChar: Njecyr
Encoding: 1034 1034 251
Width: 1125
GlyphClass: 2
Flags: W
AnchorPoint: "Anchor-0" 416 741 basechar 0
LayerCount: 2
Fore
SplineSet
229 420 m 1,0,-1
 599 420 l 1,1,-1
 599 358 l 1,2,-1
 229 358 l 1,3,-1
 229 420 l 1,0,-1
60 0 m 1,4,-1
 60 62 l 1,5,-1
 71 62 l 2,6,7
 108 62 108 62 132 69 c 128,-1,8
 156 76 156 76 156 98 c 2,9,-1
 156 612 l 2,10,11
 156 634 156 634 132 641 c 128,-1,12
 108 648 108 648 71 648 c 2,13,-1
 60 648 l 1,14,-1
 60 710 l 1,15,-1
 345 710 l 1,16,-1
 345 648 l 1,17,-1
 336 648 l 2,18,19
 317 648 317 648 297 647 c 128,-1,20
 277 646 277 646 263 644 c 128,-1,21
 249 642 249 642 249 638 c 2,22,-1
 249 72 l 2,23,24
 249 69 249 69 263 66.5 c 128,-1,25
 277 64 277 64 297 63 c 128,-1,26
 317 62 317 62 336 62 c 2,27,-1
 345 62 l 1,28,-1
 345 0 l 1,29,-1
 60 0 l 1,4,-1
483 0 m 1,30,-1
 483 62 l 1,31,-1
 492 62 l 2,32,33
 511 62 511 62 531 63 c 128,-1,34
 551 64 551 64 565 66.5 c 128,-1,35
 579 69 579 69 579 72 c 2,36,-1
 579 638 l 2,37,38
 579 642 579 642 565 644 c 128,-1,39
 551 646 551 646 531 647 c 128,-1,40
 511 648 511 648 492 648 c 2,41,-1
 483 648 l 1,42,-1
 483 710 l 1,43,-1
 788 710 l 1,44,-1
 788 648 l 1,45,-1
 757 648 l 2,46,47
 733 648 733 648 713.5 645 c 128,-1,48
 694 642 694 642 683 634.5 c 128,-1,49
 672 627 672 627 672 612 c 2,50,-1
 672 62 l 1,51,-1
 820 62 l 2,52,53
 870 62 870 62 902 78 c 128,-1,54
 934 94 934 94 949.5 127.5 c 128,-1,55
 965 161 965 161 965 211 c 256,56,57
 965 261 965 261 949.5 293.5 c 128,-1,58
 934 326 934 326 902 342 c 128,-1,59
 870 358 870 358 820 358 c 2,60,-1
 646 358 l 1,61,-1
 646 420 l 1,62,-1
 820 420 l 2,63,64
 897 420 897 420 951.5 398 c 128,-1,65
 1006 376 1006 376 1035.5 329.5 c 128,-1,66
 1065 283 1065 283 1065 211 c 0,67,68
 1065 142 1065 142 1034 95 c 128,-1,69
 1003 48 1003 48 948 24 c 128,-1,70
 893 0 893 0 820 0 c 2,71,-1
 483 0 l 1,30,-1
EndSplineSet
EndChar

StartChar: Tshecyr
Encoding: 1035 1035 252
Width: 935
GlyphClass: 2
Flags: W
AnchorPoint: "Anchor-0" 337 741 basechar 0
LayerCount: 2
Fore
SplineSet
570 414 m 0,0,1
 655 414 655 414 705 391.5 c 128,-1,2
 755 369 755 369 777 321 c 128,-1,3
 799 273 799 273 799 194 c 2,4,-1
 799 98 l 2,5,6
 799 76 799 76 823 69 c 128,-1,7
 847 62 847 62 884 62 c 2,8,-1
 895 62 l 1,9,-1
 895 0 l 1,10,-1
 706 0 l 1,11,-1
 706 189 l 2,12,13
 706 249 706 249 693.5 284.5 c 128,-1,14
 681 320 681 320 651 336 c 128,-1,15
 621 352 621 352 570 352 c 0,16,17
 515 352 515 352 458.5 339.5 c 128,-1,18
 402 327 402 327 349 293 c 1,19,-1
 349 356 l 1,20,21
 402 387 402 387 459 400.5 c 128,-1,22
 516 414 516 414 570 414 c 0,0,1
193 0 m 1,23,-1
 193 62 l 1,24,-1
 213 62 l 2,25,26
 250 62 250 62 276.5 69 c 128,-1,27
 303 76 303 76 303 98 c 2,28,-1
 303 648 l 1,29,-1
 267 648 l 2,30,31
 219 648 219 648 190 642.5 c 128,-1,32
 161 637 161 637 147.5 625 c 128,-1,33
 134 613 134 613 132 595 c 2,34,-1
 119 469 l 1,35,-1
 55 469 l 1,36,-1
 55 710 l 1,37,-1
 684 710 l 1,38,-1
 684 489 l 1,39,-1
 620 489 l 1,40,-1
 607 595 l 2,41,42
 605 613 605 613 591.5 625 c 128,-1,43
 578 637 578 637 549 642.5 c 128,-1,44
 520 648 520 648 472 648 c 2,45,-1
 396 648 l 1,46,-1
 396 72 l 2,47,48
 396 69 396 69 409 66.5 c 128,-1,49
 422 64 422 64 442.5 63 c 128,-1,50
 463 62 463 62 486 62 c 2,51,-1
 506 62 l 1,52,-1
 506 0 l 1,53,-1
 193 0 l 1,23,-1
EndSplineSet
EndChar

StartChar: Dzhecyr
Encoding: 1039 1039 253
Width: 863
GlyphClass: 2
Flags: W
AnchorPoint: "Anchor-0" 432 741 basechar 0
LayerCount: 2
Fore
SplineSet
60 710 m 1,0,-1
 345 710 l 1,1,-1
 345 648 l 1,2,-1
 336 648 l 2,3,4
 317 648 317 648 297 647 c 128,-1,5
 277 646 277 646 263 644 c 128,-1,6
 249 642 249 642 249 638 c 2,7,-1
 249 0 l 1,8,-1
 60 0 l 1,9,-1
 60 62 l 1,10,-1
 71 62 l 2,11,12
 108 62 108 62 132 69 c 128,-1,13
 156 76 156 76 156 98 c 2,14,-1
 156 612 l 2,15,16
 156 634 156 634 132 641 c 128,-1,17
 108 648 108 648 71 648 c 2,18,-1
 60 648 l 1,19,-1
 60 710 l 1,0,-1
518 710 m 1,20,-1
 803 710 l 1,21,-1
 803 648 l 1,22,-1
 792 648 l 2,23,24
 755 648 755 648 731 641 c 128,-1,25
 707 634 707 634 707 612 c 2,26,-1
 707 98 l 2,27,28
 707 76 707 76 731 69 c 128,-1,29
 755 62 755 62 792 62 c 2,30,-1
 803 62 l 1,31,-1
 803 0 l 1,32,-1
 614 0 l 1,33,-1
 614 638 l 2,34,35
 614 642 614 642 600 644 c 128,-1,36
 586 646 586 646 566 647 c 128,-1,37
 546 648 546 648 527 648 c 2,38,-1
 518 648 l 1,39,-1
 518 710 l 1,20,-1
204 0 m 1,40,-1
 204 62 l 1,41,-1
 659 62 l 1,42,-1
 659 0 l 1,43,-1
 611 0 l 2,44,45
 563 0 563 0 534 -5.5 c 128,-1,46
 505 -11 505 -11 491.5 -23 c 128,-1,47
 478 -35 478 -35 476 -53 c 2,48,-1
 463 -189 l 1,49,-1
 400 -189 l 1,50,-1
 387 -53 l 2,51,52
 386 -35 386 -35 372 -23 c 128,-1,53
 358 -11 358 -11 329 -5.5 c 128,-1,54
 300 0 300 0 252 0 c 2,55,-1
 204 0 l 1,40,-1
EndSplineSet
EndChar

StartChar: Becyr
Encoding: 1041 1041 257
Width: 707
GlyphClass: 2
Flags: W
AnchorPoint: "Anchor-0" 361 741 basechar 0
LayerCount: 2
Fore
SplineSet
60 710 m 1,0,-1
 600 710 l 1,1,-1
 600 504 l 1,2,-1
 536 504 l 1,3,-1
 523 603 l 2,4,5
 521 621 521 621 507.5 630.5 c 128,-1,6
 494 640 494 640 467.5 644 c 128,-1,7
 441 648 441 648 398 648 c 2,8,-1
 249 648 l 1,9,-1
 249 62 l 1,10,-1
 397 62 l 2,11,12
 447 62 447 62 479 78 c 128,-1,13
 511 94 511 94 526.5 127 c 128,-1,14
 542 160 542 160 542 210 c 256,15,16
 542 260 542 260 526.5 292 c 128,-1,17
 511 324 511 324 479 340 c 128,-1,18
 447 356 447 356 397 356 c 2,19,-1
 223 356 l 1,20,-1
 223 418 l 1,21,-1
 397 418 l 2,22,23
 474 418 474 418 528.5 396 c 128,-1,24
 583 374 583 374 612.5 328 c 128,-1,25
 642 282 642 282 642 210 c 0,26,27
 642 141 642 141 611 94 c 128,-1,28
 580 47 580 47 525 23.5 c 128,-1,29
 470 0 470 0 397 0 c 2,30,-1
 60 0 l 1,31,-1
 60 62 l 1,32,-1
 71 62 l 2,33,34
 108 62 108 62 132 69 c 128,-1,35
 156 76 156 76 156 98 c 2,36,-1
 156 612 l 2,37,38
 156 634 156 634 132 641 c 128,-1,39
 108 648 108 648 71 648 c 2,40,-1
 60 648 l 1,41,-1
 60 710 l 1,0,-1
EndSplineSet
EndChar

StartChar: Gecyr
Encoding: 1043 1043 259
Width: 670
GlyphClass: 2
Flags: W
AnchorPoint: "Anchor-0" 342 741 basechar 0
LayerCount: 2
Fore
SplineSet
249 648 m 1,0,-1
 249 98 l 2,1,2
 249 84 249 84 260 76 c 128,-1,3
 271 68 271 68 290.5 65 c 128,-1,4
 310 62 310 62 334 62 c 2,5,-1
 364 62 l 1,6,-1
 364 0 l 1,7,-1
 60 0 l 1,8,-1
 60 62 l 1,9,-1
 71 62 l 2,10,11
 108 62 108 62 132 69 c 128,-1,12
 156 76 156 76 156 98 c 2,13,-1
 156 612 l 2,14,15
 156 634 156 634 132 641 c 128,-1,16
 108 648 108 648 71 648 c 2,17,-1
 60 648 l 1,18,-1
 60 710 l 1,19,-1
 615 710 l 1,20,-1
 615 469 l 1,21,-1
 551 469 l 1,22,-1
 539 592 l 2,23,24
 537 614 537 614 523.5 626 c 128,-1,25
 510 638 510 638 483 643 c 128,-1,26
 456 648 456 648 413 648 c 2,27,-1
 249 648 l 1,0,-1
EndSplineSet
EndChar

StartChar: Decyr
Encoding: 1044 1044 261
Width: 842
GlyphClass: 2
Flags: W
AnchorPoint: "Anchor-0" 455 741 basechar 0
LayerCount: 2
Fore
SplineSet
245 710 m 1,0,-1
 663 710 l 1,1,-1
 663 648 l 1,2,-1
 245 648 l 1,3,-1
 245 710 l 1,0,-1
686 34 m 1,4,-1
 593 34 l 1,5,-1
 593 710 l 1,6,-1
 782 710 l 1,7,-1
 782 648 l 1,8,-1
 771 648 l 2,9,10
 734 648 734 648 710 641 c 128,-1,11
 686 634 686 634 686 612 c 2,12,-1
 686 34 l 1,4,-1
715 -53 m 2,13,14
 714 -35 714 -35 700 -23 c 128,-1,15
 686 -11 686 -11 657 -5.5 c 128,-1,16
 628 0 628 0 580 0 c 2,17,-1
 247 0 l 2,18,19
 199 0 199 0 170 -5.5 c 128,-1,20
 141 -11 141 -11 127.5 -23 c 128,-1,21
 114 -35 114 -35 112 -53 c 2,22,-1
 99 -189 l 1,23,-1
 35 -189 l 1,24,-1
 35 62 l 1,25,-1
 792 62 l 1,26,-1
 792 -189 l 1,27,-1
 728 -189 l 1,28,-1
 715 -53 l 2,13,14
182 31 m 1,29,-1
 93 31 l 1,30,31
 114 58 114 58 130.5 88 c 128,-1,32
 147 118 147 118 159 157 c 128,-1,33
 171 196 171 196 180 248.5 c 128,-1,34
 189 301 189 301 195 373 c 2,35,-1
 215 612 l 2,36,37
 217 634 217 634 192.5 641 c 128,-1,38
 168 648 168 648 131 648 c 2,39,-1
 120 648 l 1,40,-1
 120 710 l 1,41,-1
 297 710 l 1,42,-1
 269 373 l 2,43,44
 262 281 262 281 250 216.5 c 128,-1,45
 238 152 238 152 221.5 108 c 128,-1,46
 205 64 205 64 182 31 c 1,29,-1
EndSplineSet
Substitution2: "'locl' Localized Forms in Cyrillic lookup 12 subtable" De.bgr
EndChar

StartChar: Zhecyr
Encoding: 1046 1046 266
Width: 1140
GlyphClass: 2
Flags: W
AnchorPoint: "Anchor-1" 559 0 basechar 0
AnchorPoint: "Anchor-0" 559 741 basechar 0
LayerCount: 2
Fore
SplineSet
813 0 m 1,0,-1
 813 62 l 1,1,-1
 822 62 l 2,2,3
 843 62 843 62 862.5 63 c 128,-1,4
 882 64 882 64 894.5 66.5 c 128,-1,5
 907 69 907 69 907 72 c 2,6,-1
 664 343 l 1,7,-1
 664 373 l 1,8,-1
 919 637 l 2,9,10
 919 641 919 641 907 643 c 128,-1,11
 895 645 895 645 876 646.5 c 128,-1,12
 857 648 857 648 836 648 c 2,13,-1
 827 648 l 1,14,-1
 827 710 l 1,15,-1
 1085 710 l 1,16,-1
 1085 648 l 1,17,-1
 1054 648 l 2,18,19
 1038 648 1038 648 1025 645.5 c 128,-1,20
 1012 643 1012 643 1001 636.5 c 128,-1,21
 990 630 990 630 979 619 c 2,22,-1
 725 357 l 1,23,-1
 733 399 l 1,24,-1
 1018 83 l 2,25,26
 1027 74 1027 74 1037.5 69.5 c 128,-1,27
 1048 65 1048 65 1061.5 63.5 c 128,-1,28
 1075 62 1075 62 1092 62 c 2,29,-1
 1110 62 l 1,30,-1
 1110 0 l 1,31,-1
 813 0 l 1,0,-1
322 0 m 1,32,-1
 30 0 l 1,33,-1
 30 62 l 1,34,-1
 48 62 l 2,35,36
 66 62 66 62 79 63.5 c 128,-1,37
 92 65 92 65 102.5 69.5 c 128,-1,38
 113 74 113 74 122 83 c 2,39,-1
 407 399 l 1,40,-1
 408 357 l 1,41,-1
 154 619 l 2,42,43
 144 630 144 630 132.5 636.5 c 128,-1,44
 121 643 121 643 108 645.5 c 128,-1,45
 95 648 95 648 79 648 c 2,46,-1
 48 648 l 1,47,-1
 48 710 l 1,48,-1
 308 710 l 1,49,-1
 308 648 l 1,50,-1
 299 648 l 2,51,52
 278 648 278 648 259 646.5 c 128,-1,53
 240 645 240 645 228 643 c 128,-1,54
 216 641 216 641 216 637 c 2,55,-1
 471 373 l 1,56,-1
 471 343 l 1,57,-1
 228 72 l 2,58,59
 228 69 228 69 240.5 66.5 c 128,-1,60
 253 64 253 64 273 63 c 128,-1,61
 293 62 293 62 313 62 c 2,62,-1
 322 62 l 1,63,-1
 322 0 l 1,32,-1
425 0 m 1,64,-1
 425 62 l 1,65,-1
 434 62 l 2,66,67
 448 62 448 62 463.5 62.5 c 128,-1,68
 479 63 479 63 492 64.5 c 128,-1,69
 505 66 505 66 513 67.5 c 128,-1,70
 521 69 521 69 521 72 c 2,71,-1
 521 638 l 2,72,73
 521 641 521 641 513 642.5 c 128,-1,74
 505 644 505 644 492 645.5 c 128,-1,75
 479 647 479 647 463.5 647.5 c 128,-1,76
 448 648 448 648 434 648 c 2,77,-1
 425 648 l 1,78,-1
 425 710 l 1,79,-1
 710 710 l 1,80,-1
 710 648 l 1,81,-1
 701 648 l 2,82,83
 687 648 687 648 671.5 647.5 c 128,-1,84
 656 647 656 647 643 645.5 c 128,-1,85
 630 644 630 644 622 642.5 c 128,-1,86
 614 641 614 641 614 638 c 2,87,-1
 614 72 l 2,88,89
 614 69 614 69 622 67.5 c 128,-1,90
 630 66 630 66 643 64.5 c 128,-1,91
 656 63 656 63 671.5 62.5 c 128,-1,92
 687 62 687 62 701 62 c 2,93,-1
 710 62 l 1,94,-1
 710 0 l 1,95,-1
 425 0 l 1,64,-1
EndSplineSet
EndChar

StartChar: Zecyr
Encoding: 1047 1047 269
Width: 731
GlyphClass: 2
Flags: W
AnchorPoint: "Anchor-1" 395 0 basechar 0
AnchorPoint: "Anchor-0" 395 741 basechar 0
LayerCount: 2
Fore
SplineSet
410 -25 m 0,0,1
 337 -25 337 -25 283 0 c 128,-1,2
 229 25 229 25 196 75.5 c 128,-1,3
 163 126 163 126 153 202 c 1,4,-1
 174 151 l 1,5,-1
 162 -10 l 1,6,-1
 92 -10 l 1,7,-1
 92 242 l 1,8,-1
 165 242 l 1,9,10
 183 179 183 179 217 133.5 c 128,-1,11
 251 88 251 88 299 63.5 c 128,-1,12
 347 39 347 39 410 39 c 0,13,14
 463 39 463 39 497 57 c 128,-1,15
 531 75 531 75 547 108.5 c 128,-1,16
 563 142 563 142 563 188 c 0,17,18
 563 227 563 227 548 258.5 c 128,-1,19
 533 290 533 290 497.5 308.5 c 128,-1,20
 462 327 462 327 398 324 c 0,21,22
 383 323 383 323 366.5 322.5 c 128,-1,23
 350 322 350 322 334.5 321.5 c 128,-1,24
 319 321 319 321 305 320 c 1,25,-1
 305 408 l 1,26,27
 320 408 320 408 335.5 407 c 128,-1,28
 351 406 351 406 367 405.5 c 128,-1,29
 383 405 383 405 399 404 c 0,30,31
 452 402 452 402 483.5 419.5 c 128,-1,32
 515 437 515 437 529 468.5 c 128,-1,33
 543 500 543 500 543 540 c 0,34,35
 543 578 543 578 530 608 c 128,-1,36
 517 638 517 638 488 655.5 c 128,-1,37
 459 673 459 673 410 673 c 0,38,39
 350 673 350 673 303.5 648.5 c 128,-1,40
 257 624 257 624 224.5 578 c 128,-1,41
 192 532 192 532 175 468 c 1,42,-1
 102 468 l 1,43,-1
 102 720 l 1,44,-1
 172 720 l 1,45,-1
 184 559 l 1,46,-1
 163 508 l 1,47,48
 170 564 170 564 190.5 606.5 c 128,-1,49
 211 649 211 649 243 677.5 c 128,-1,50
 275 706 275 706 317 720.5 c 128,-1,51
 359 735 359 735 410 735 c 0,52,53
 488 735 488 735 539 709.5 c 128,-1,54
 590 684 590 684 615.5 641 c 128,-1,55
 641 598 641 598 641 545 c 0,56,57
 641 496 641 496 615 456 c 128,-1,58
 589 416 589 416 546 392.5 c 128,-1,59
 503 369 503 369 451 369 c 1,60,-1
 461 386 l 1,61,-1
 461 344 l 1,62,-1
 451 365 l 1,63,64
 513 365 513 365 560.5 341.5 c 128,-1,65
 608 318 608 318 634.5 277 c 128,-1,66
 661 236 661 236 661 183 c 0,67,68
 661 137 661 137 644.5 99 c 128,-1,69
 628 61 628 61 596 33 c 128,-1,70
 564 5 564 5 517 -10 c 128,-1,71
 470 -25 470 -25 410 -25 c 0,0,1
EndSplineSet
EndChar

StartChar: Icyr
Encoding: 1048 1048 270
Width: 893
GlyphClass: 2
Flags: W
AnchorPoint: "Anchor-0" 447 741 basechar 0
LayerCount: 2
Fore
SplineSet
205 155 m 1,0,-1
 644 607 l 1,1,-1
 688 566 l 1,2,-1
 249 114 l 1,3,-1
 205 155 l 1,0,-1
60 0 m 1,4,-1
 60 62 l 1,5,-1
 71 62 l 2,6,7
 108 62 108 62 132 69 c 128,-1,8
 156 76 156 76 156 98 c 2,9,-1
 156 612 l 2,10,11
 156 634 156 634 132 641 c 128,-1,12
 108 648 108 648 71 648 c 2,13,-1
 60 648 l 1,14,-1
 60 710 l 1,15,-1
 345 710 l 1,16,-1
 345 648 l 1,17,-1
 336 648 l 2,18,19
 317 648 317 648 297 647 c 128,-1,20
 277 646 277 646 263 644 c 128,-1,21
 249 642 249 642 249 638 c 2,22,-1
 249 72 l 2,23,24
 249 69 249 69 263 66.5 c 128,-1,25
 277 64 277 64 297 63 c 128,-1,26
 317 62 317 62 336 62 c 2,27,-1
 345 62 l 1,28,-1
 345 0 l 1,29,-1
 60 0 l 1,4,-1
548 0 m 1,30,-1
 548 62 l 1,31,-1
 557 62 l 2,32,33
 576 62 576 62 596 63 c 128,-1,34
 616 64 616 64 630 66.5 c 128,-1,35
 644 69 644 69 644 72 c 2,36,-1
 644 638 l 2,37,38
 644 642 644 642 630 644 c 128,-1,39
 616 646 616 646 596 647 c 128,-1,40
 576 648 576 648 557 648 c 2,41,-1
 548 648 l 1,42,-1
 548 710 l 1,43,-1
 833 710 l 1,44,-1
 833 648 l 1,45,-1
 822 648 l 2,46,47
 785 648 785 648 761 641 c 128,-1,48
 737 634 737 634 737 612 c 2,49,-1
 737 98 l 2,50,51
 737 76 737 76 761 69 c 128,-1,52
 785 62 785 62 822 62 c 2,53,-1
 833 62 l 1,54,-1
 833 0 l 1,55,-1
 548 0 l 1,30,-1
EndSplineSet
EndChar

StartChar: Elcyr
Encoding: 1051 1051 276
Width: 825
GlyphClass: 2
Flags: W
AnchorPoint: "Anchor-0" 454 741 basechar 0
LayerCount: 2
Fore
SplineSet
229 710 m 1,0,-1
 646 710 l 1,1,-1
 646 648 l 1,2,-1
 229 648 l 1,3,-1
 229 710 l 1,0,-1
480 0 m 1,4,-1
 480 62 l 1,5,-1
 489 62 l 2,6,7
 508 62 508 62 528 63 c 128,-1,8
 548 64 548 64 562 66.5 c 128,-1,9
 576 69 576 69 576 72 c 2,10,-1
 576 710 l 1,11,-1
 765 710 l 1,12,-1
 765 648 l 1,13,-1
 754 648 l 2,14,15
 717 648 717 648 693 641 c 128,-1,16
 669 634 669 634 669 612 c 2,17,-1
 669 98 l 2,18,19
 669 76 669 76 693 69 c 128,-1,20
 717 62 717 62 754 62 c 2,21,-1
 765 62 l 1,22,-1
 765 0 l 1,23,-1
 480 0 l 1,4,-1
196 266 m 2,24,-1
 225 612 l 2,25,26
 227 634 227 634 202.5 641 c 128,-1,27
 178 648 178 648 141 648 c 2,28,-1
 130 648 l 1,29,-1
 130 710 l 1,30,-1
 307 710 l 1,31,-1
 270 266 l 2,32,33
 262 166 262 166 239.5 104.5 c 128,-1,34
 217 43 217 43 178.5 14 c 128,-1,35
 140 -15 140 -15 84 -15 c 0,36,37
 59 -15 59 -15 42 -10 c 128,-1,38
 25 -5 25 -5 15 0 c 1,39,-1
 15 91 l 1,40,41
 21 88 21 88 38.5 82 c 128,-1,42
 56 76 56 76 82 76 c 0,43,44
 118 76 118 76 141 95.5 c 128,-1,45
 164 115 164 115 177.5 157 c 128,-1,46
 191 199 191 199 196 266 c 2,24,-1
EndSplineSet
Substitution2: "'locl' Localized Forms in Cyrillic lookup 12 subtable" El.bgr
EndChar

StartChar: Pecyr
Encoding: 1055 1055 281
Width: 863
GlyphClass: 2
Flags: W
AnchorPoint: "Anchor-0" 432 741 basechar 0
LayerCount: 2
Fore
SplineSet
219 710 m 1,0,-1
 644 710 l 1,1,-1
 644 648 l 1,2,-1
 219 648 l 1,3,-1
 219 710 l 1,0,-1
60 0 m 1,4,-1
 60 62 l 1,5,-1
 71 62 l 2,6,7
 108 62 108 62 132 69 c 128,-1,8
 156 76 156 76 156 98 c 2,9,-1
 156 612 l 2,10,11
 156 634 156 634 132 641 c 128,-1,12
 108 648 108 648 71 648 c 2,13,-1
 60 648 l 1,14,-1
 60 710 l 1,15,-1
 249 710 l 1,16,-1
 249 72 l 2,17,18
 249 69 249 69 263 66.5 c 128,-1,19
 277 64 277 64 297 63 c 128,-1,20
 317 62 317 62 336 62 c 2,21,-1
 345 62 l 1,22,-1
 345 0 l 1,23,-1
 60 0 l 1,4,-1
518 0 m 1,24,-1
 518 62 l 1,25,-1
 527 62 l 2,26,27
 546 62 546 62 566 63 c 128,-1,28
 586 64 586 64 600 66.5 c 128,-1,29
 614 69 614 69 614 72 c 2,30,-1
 614 710 l 1,31,-1
 803 710 l 1,32,-1
 803 648 l 1,33,-1
 792 648 l 2,34,35
 755 648 755 648 731 641 c 128,-1,36
 707 634 707 634 707 612 c 2,37,-1
 707 98 l 2,38,39
 707 76 707 76 731 69 c 128,-1,40
 755 62 755 62 792 62 c 2,41,-1
 803 62 l 1,42,-1
 803 0 l 1,43,-1
 518 0 l 1,24,-1
EndSplineSet
EndChar

StartChar: Ucyr
Encoding: 1059 1059 285
Width: 722
GlyphClass: 2
Flags: W
AnchorPoint: "Anchor-1" 238 0 basechar 0
AnchorPoint: "Anchor-0" 368 741 basechar 0
LayerCount: 2
Fore
SplineSet
416 200 m 2,0,1
 386 136 386 136 361.5 94.5 c 128,-1,2
 337 53 337 53 314.5 29 c 128,-1,3
 292 5 292 5 267.5 -5 c 128,-1,4
 243 -15 243 -15 213 -15 c 0,5,6
 186 -15 186 -15 168.5 -10 c 128,-1,7
 151 -5 151 -5 140 0 c 1,8,-1
 140 89 l 1,9,10
 146 86 146 86 164.5 80 c 128,-1,11
 183 74 183 74 208 74 c 0,12,13
 244 74 244 74 269 86 c 128,-1,14
 294 98 294 98 316.5 130.5 c 128,-1,15
 339 163 339 163 366 225 c 2,16,-1
 544 625 l 2,17,18
 544 632 544 632 532.5 637 c 128,-1,19
 521 642 521 642 504.5 645 c 128,-1,20
 488 648 488 648 473 648 c 2,21,-1
 462 648 l 1,22,-1
 462 710 l 1,23,-1
 692 710 l 1,24,-1
 692 648 l 1,25,-1
 679 648 l 2,26,27
 662 648 662 648 648 643.5 c 128,-1,28
 634 639 634 639 622.5 629 c 128,-1,29
 611 619 611 619 603 601 c 2,30,-1
 416 200 l 2,0,1
388 222 m 1,31,-1
 340 137 l 1,32,-1
 114 614 l 2,33,34
 107 629 107 629 97 636 c 128,-1,35
 87 643 87 643 74 645.5 c 128,-1,36
 61 648 61 648 43 648 c 2,37,-1
 30 648 l 1,38,-1
 30 710 l 1,39,-1
 282 710 l 1,40,-1
 282 648 l 1,41,-1
 265 648 l 2,42,43
 250 648 250 648 233.5 646.5 c 128,-1,44
 217 645 217 645 205.5 643 c 128,-1,45
 194 641 194 641 194 637 c 2,46,-1
 388 222 l 1,31,-1
EndSplineSet
EndChar

StartChar: Efcyr
Encoding: 1060 1060 290
Width: 921
GlyphClass: 2
Flags: W
AnchorPoint: "Anchor-1" 461 0 basechar 0
AnchorPoint: "Anchor-0" 461 741 basechar 0
LayerCount: 2
Fore
SplineSet
414 73 m 2,0,-1
 414 637 l 2,1,2
 414 659 414 659 390 666 c 128,-1,3
 366 673 366 673 329 673 c 2,4,-1
 309 673 l 1,5,-1
 309 735 l 1,6,-1
 612 735 l 1,7,-1
 612 673 l 1,8,-1
 592 673 l 2,9,10
 555 673 555 673 531 666 c 128,-1,11
 507 659 507 659 507 637 c 2,12,-1
 507 73 l 2,13,14
 507 51 507 51 531 44 c 128,-1,15
 555 37 555 37 592 37 c 2,16,-1
 612 37 l 1,17,-1
 612 -25 l 1,18,-1
 309 -25 l 1,19,-1
 309 37 l 1,20,-1
 329 37 l 2,21,22
 366 37 366 37 390 44 c 128,-1,23
 414 51 414 51 414 73 c 2,0,-1
430 605 m 1,24,-1
 430 541 l 1,25,26
 327 541 327 541 265.5 520.5 c 128,-1,27
 204 500 204 500 177 460 c 128,-1,28
 150 420 150 420 150 360 c 256,29,30
 150 300 150 300 177 260 c 128,-1,31
 204 220 204 220 265.5 199.5 c 128,-1,32
 327 179 327 179 430 179 c 1,33,-1
 430 115 l 1,34,35
 302 115 302 115 217.5 144 c 128,-1,36
 133 173 133 173 91.5 228 c 128,-1,37
 50 283 50 283 50 360 c 256,38,39
 50 437 50 437 91.5 492 c 128,-1,40
 133 547 133 547 217.5 576 c 128,-1,41
 302 605 302 605 430 605 c 1,24,-1
491 115 m 1,42,-1
 491 179 l 1,43,44
 594 179 594 179 655.5 199.5 c 128,-1,45
 717 220 717 220 744 260 c 128,-1,46
 771 300 771 300 771 360 c 256,47,48
 771 420 771 420 744 460 c 128,-1,49
 717 500 717 500 655.5 520.5 c 128,-1,50
 594 541 594 541 491 541 c 1,51,-1
 491 605 l 1,52,53
 619 605 619 605 703.5 576 c 128,-1,54
 788 547 788 547 829.5 492 c 128,-1,55
 871 437 871 437 871 360 c 256,56,57
 871 283 871 283 829.5 228 c 128,-1,58
 788 173 788 173 703.5 144 c 128,-1,59
 619 115 619 115 491 115 c 1,42,-1
EndSplineSet
EndChar

StartChar: Tsecyr
Encoding: 1062 1062 292
Width: 863
GlyphClass: 2
Flags: W
AnchorPoint: "Anchor-0" 432 741 basechar 0
LayerCount: 2
Fore
SplineSet
219 0 m 1,0,-1
 219 62 l 1,1,-1
 660 62 l 1,2,-1
 660 0 l 1,3,-1
 219 0 l 1,0,-1
60 710 m 1,4,-1
 345 710 l 1,5,-1
 345 648 l 1,6,-1
 336 648 l 2,7,8
 317 648 317 648 297 647 c 128,-1,9
 277 646 277 646 263 644 c 128,-1,10
 249 642 249 642 249 638 c 2,11,-1
 249 0 l 1,12,-1
 60 0 l 1,13,-1
 60 62 l 1,14,-1
 71 62 l 2,15,16
 108 62 108 62 132 69 c 128,-1,17
 156 76 156 76 156 98 c 2,18,-1
 156 612 l 2,19,20
 156 634 156 634 132 641 c 128,-1,21
 108 648 108 648 71 648 c 2,22,-1
 60 648 l 1,23,-1
 60 710 l 1,4,-1
518 710 m 1,24,-1
 803 710 l 1,25,-1
 803 648 l 1,26,-1
 792 648 l 2,27,28
 755 648 755 648 731 641 c 128,-1,29
 707 634 707 634 707 612 c 2,30,-1
 707 0 l 1,31,-1
 614 0 l 1,32,-1
 614 638 l 2,33,34
 614 642 614 642 600 644 c 128,-1,35
 586 646 586 646 566 647 c 128,-1,36
 546 648 546 648 527 648 c 2,37,-1
 518 648 l 1,38,-1
 518 710 l 1,24,-1
554 0 m 1,39,-1
 554 62 l 1,40,-1
 813 62 l 1,41,-1
 813 -189 l 1,42,-1
 749 -189 l 1,43,-1
 736 -53 l 2,44,45
 735 -35 735 -35 721 -23 c 128,-1,46
 707 -11 707 -11 678 -5.5 c 128,-1,47
 649 0 649 0 601 0 c 2,48,-1
 554 0 l 1,39,-1
EndSplineSet
EndChar

StartChar: Checyr
Encoding: 1063 1063 293
Width: 813
GlyphClass: 2
Flags: W
AnchorPoint: "Anchor-0" 398 741 basechar 0
LayerCount: 2
Fore
SplineSet
468 0 m 1,0,-1
 468 62 l 1,1,-1
 477 62 l 2,2,3
 496 62 496 62 516 63 c 128,-1,4
 536 64 536 64 550 66.5 c 128,-1,5
 564 69 564 69 564 72 c 2,6,-1
 564 638 l 2,7,8
 564 642 564 642 550 644 c 128,-1,9
 536 646 536 646 516 647 c 128,-1,10
 496 648 496 648 477 648 c 2,11,-1
 468 648 l 1,12,-1
 468 710 l 1,13,-1
 753 710 l 1,14,-1
 753 648 l 1,15,-1
 742 648 l 2,16,17
 705 648 705 648 681 641 c 128,-1,18
 657 634 657 634 657 612 c 2,19,-1
 657 98 l 2,20,21
 657 76 657 76 681 69 c 128,-1,22
 705 62 705 62 742 62 c 2,23,-1
 753 62 l 1,24,-1
 753 0 l 1,25,-1
 468 0 l 1,0,-1
375 280 m 0,26,27
 287 280 287 280 234.5 302.5 c 128,-1,28
 182 325 182 325 159 373.5 c 128,-1,29
 136 422 136 422 136 500 c 2,30,-1
 136 612 l 2,31,32
 136 634 136 634 112 641 c 128,-1,33
 88 648 88 648 51 648 c 2,34,-1
 40 648 l 1,35,-1
 40 710 l 1,36,-1
 325 710 l 1,37,-1
 325 648 l 1,38,-1
 316 648 l 2,39,40
 297 648 297 648 277 647 c 128,-1,41
 257 646 257 646 243 644 c 128,-1,42
 229 642 229 642 229 638 c 2,43,-1
 229 505 l 2,44,45
 229 445 229 445 243 409.5 c 128,-1,46
 257 374 257 374 289 358 c 128,-1,47
 321 342 321 342 375 342 c 0,48,49
 433 342 433 342 495 354.5 c 128,-1,50
 557 367 557 367 611 400 c 1,51,-1
 611 337 l 1,52,53
 557 307 557 307 495 293.5 c 128,-1,54
 433 280 433 280 375 280 c 0,26,27
EndSplineSet
EndChar

StartChar: Shacyr
Encoding: 1064 1064 294
Width: 1191
GlyphClass: 2
Flags: W
AnchorPoint: "Anchor-0" 584 741 basechar 0
LayerCount: 2
Fore
SplineSet
972 0 m 1,0,-1
 219 0 l 1,1,-1
 219 62 l 1,2,-1
 972 62 l 1,3,-1
 972 0 l 1,0,-1
1131 710 m 1,4,-1
 1131 648 l 1,5,-1
 1120 648 l 2,6,7
 1083 648 1083 648 1059 641 c 128,-1,8
 1035 634 1035 634 1035 612 c 2,9,-1
 1035 98 l 2,10,11
 1035 76 1035 76 1059 69 c 128,-1,12
 1083 62 1083 62 1120 62 c 2,13,-1
 1131 62 l 1,14,-1
 1131 0 l 1,15,-1
 942 0 l 1,16,-1
 942 638 l 2,17,18
 942 642 942 642 928 644 c 128,-1,19
 914 646 914 646 894 647 c 128,-1,20
 874 648 874 648 855 648 c 2,21,-1
 846 648 l 1,22,-1
 846 710 l 1,23,-1
 1131 710 l 1,4,-1
345 710 m 1,24,-1
 345 648 l 1,25,-1
 336 648 l 2,26,27
 317 648 317 648 297 647 c 128,-1,28
 277 646 277 646 263 644 c 128,-1,29
 249 642 249 642 249 638 c 2,30,-1
 249 0 l 1,31,-1
 60 0 l 1,32,-1
 60 62 l 1,33,-1
 71 62 l 2,34,35
 108 62 108 62 132 69 c 128,-1,36
 156 76 156 76 156 98 c 2,37,-1
 156 612 l 2,38,39
 156 634 156 634 132 641 c 128,-1,40
 108 648 108 648 71 648 c 2,41,-1
 60 648 l 1,42,-1
 60 710 l 1,43,-1
 345 710 l 1,24,-1
453 710 m 1,44,-1
 738 710 l 1,45,-1
 738 648 l 1,46,-1
 729 648 l 2,47,48
 710 648 710 648 690 647 c 128,-1,49
 670 646 670 646 656 644 c 128,-1,50
 642 642 642 642 642 638 c 2,51,-1
 642 0 l 1,52,-1
 549 0 l 1,53,-1
 549 638 l 2,54,55
 549 642 549 642 535 644 c 128,-1,56
 521 646 521 646 501 647 c 128,-1,57
 481 648 481 648 462 648 c 2,58,-1
 453 648 l 1,59,-1
 453 710 l 1,44,-1
EndSplineSet
EndChar

StartChar: Shchacyr
Encoding: 1065 1065 295
Width: 1191
GlyphClass: 2
Flags: W
AnchorPoint: "Anchor-0" 584 741 basechar 0
LayerCount: 2
Fore
SplineSet
989 0 m 1,0,-1
 219 0 l 1,1,-1
 219 62 l 1,2,-1
 989 62 l 1,3,-1
 989 0 l 1,0,-1
345 710 m 1,4,-1
 345 648 l 1,5,-1
 336 648 l 2,6,7
 317 648 317 648 297 647 c 128,-1,8
 277 646 277 646 263 644 c 128,-1,9
 249 642 249 642 249 638 c 2,10,-1
 249 0 l 1,11,-1
 60 0 l 1,12,-1
 60 62 l 1,13,-1
 71 62 l 2,14,15
 108 62 108 62 132 69 c 128,-1,16
 156 76 156 76 156 98 c 2,17,-1
 156 612 l 2,18,19
 156 634 156 634 132 641 c 128,-1,20
 108 648 108 648 71 648 c 2,21,-1
 60 648 l 1,22,-1
 60 710 l 1,23,-1
 345 710 l 1,4,-1
846 710 m 1,24,-1
 1131 710 l 1,25,-1
 1131 648 l 1,26,-1
 1120 648 l 2,27,28
 1083 648 1083 648 1059 641 c 128,-1,29
 1035 634 1035 634 1035 612 c 2,30,-1
 1035 0 l 1,31,-1
 942 0 l 1,32,-1
 942 638 l 2,33,34
 942 642 942 642 928 644 c 128,-1,35
 914 646 914 646 894 647 c 128,-1,36
 874 648 874 648 855 648 c 2,37,-1
 846 648 l 1,38,-1
 846 710 l 1,24,-1
929 0 m 2,39,-1
 882 0 l 1,40,-1
 882 62 l 1,41,-1
 1141 62 l 1,42,-1
 1141 -189 l 1,43,-1
 1077 -189 l 1,44,-1
 1064 -53 l 2,45,46
 1063 -35 1063 -35 1049 -23 c 128,-1,47
 1035 -11 1035 -11 1006 -5.5 c 128,-1,48
 977 0 977 0 929 0 c 2,39,-1
453 710 m 1,49,-1
 738 710 l 1,50,-1
 738 648 l 1,51,-1
 729 648 l 2,52,53
 710 648 710 648 690 647 c 128,-1,54
 670 646 670 646 656 644 c 128,-1,55
 642 642 642 642 642 638 c 2,56,-1
 642 0 l 1,57,-1
 549 0 l 1,58,-1
 549 638 l 2,59,60
 549 642 549 642 535 644 c 128,-1,61
 521 646 521 646 501 647 c 128,-1,62
 481 648 481 648 462 648 c 2,63,-1
 453 648 l 1,64,-1
 453 710 l 1,49,-1
EndSplineSet
EndChar

StartChar: Hardcyr
Encoding: 1066 1066 296
Width: 829
GlyphClass: 2
Flags: W
AnchorPoint: "Anchor-0" 290 741 basechar 0
LayerCount: 2
Fore
SplineSet
524 0 m 2,0,-1
 187 0 l 1,1,-1
 187 62 l 1,2,-1
 198 62 l 2,3,4
 235 62 235 62 259 69 c 128,-1,5
 283 76 283 76 283 98 c 2,6,-1
 283 648 l 1,7,-1
 267 648 l 2,8,9
 219 648 219 648 190 642.5 c 128,-1,10
 161 637 161 637 147.5 625 c 128,-1,11
 134 613 134 613 132 595 c 2,12,-1
 119 469 l 1,13,-1
 55 469 l 1,14,-1
 55 710 l 1,15,-1
 491 710 l 1,16,-1
 491 648 l 1,17,-1
 471 648 l 2,18,19
 447 648 447 648 425.5 647 c 128,-1,20
 404 646 404 646 390 644 c 128,-1,21
 376 642 376 642 376 638 c 2,22,-1
 376 62 l 1,23,-1
 524 62 l 2,24,25
 574 62 574 62 606 78.5 c 128,-1,26
 638 95 638 95 653.5 129 c 128,-1,27
 669 163 669 163 669 215 c 0,28,29
 669 266 669 266 653.5 299.5 c 128,-1,30
 638 333 638 333 606 349.5 c 128,-1,31
 574 366 574 366 524 366 c 2,32,-1
 350 366 l 1,33,-1
 350 428 l 1,34,-1
 524 428 l 2,35,36
 601 428 601 428 655.5 405.5 c 128,-1,37
 710 383 710 383 739.5 336 c 128,-1,38
 769 289 769 289 769 215 c 0,39,40
 769 145 769 145 738 97 c 128,-1,41
 707 49 707 49 652 24.5 c 128,-1,42
 597 0 597 0 524 0 c 2,0,-1
EndSplineSet
EndChar

StartChar: Ylongcyr
Encoding: 1067 1067 297
Width: 1027
GlyphClass: 2
Flags: W
AnchorPoint: "Anchor-1" 503 0 basechar 0
AnchorPoint: "Anchor-0" 503 741 basechar 0
LayerCount: 2
Fore
SplineSet
778 72 m 2,0,-1
 778 638 l 2,1,2
 778 642 778 642 764 644 c 128,-1,3
 750 646 750 646 730 647 c 128,-1,4
 710 648 710 648 691 648 c 2,5,-1
 682 648 l 1,6,-1
 682 710 l 1,7,-1
 967 710 l 1,8,-1
 967 648 l 1,9,-1
 956 648 l 2,10,11
 919 648 919 648 895 641 c 128,-1,12
 871 634 871 634 871 612 c 2,13,-1
 871 98 l 2,14,15
 871 76 871 76 895 69 c 128,-1,16
 919 62 919 62 956 62 c 2,17,-1
 967 62 l 1,18,-1
 967 0 l 1,19,-1
 682 0 l 1,20,-1
 682 62 l 1,21,-1
 691 62 l 2,22,23
 710 62 710 62 730 63 c 128,-1,24
 750 64 750 64 764 66.5 c 128,-1,25
 778 69 778 69 778 72 c 2,0,-1
397 0 m 2,26,-1
 60 0 l 1,27,-1
 60 62 l 1,28,-1
 71 62 l 2,29,30
 108 62 108 62 132 69 c 128,-1,31
 156 76 156 76 156 98 c 2,32,-1
 156 612 l 2,33,34
 156 634 156 634 132 641 c 128,-1,35
 108 648 108 648 71 648 c 2,36,-1
 60 648 l 1,37,-1
 60 710 l 1,38,-1
 364 710 l 1,39,-1
 364 648 l 1,40,-1
 344 648 l 2,41,42
 320 648 320 648 298.5 647 c 128,-1,43
 277 646 277 646 263 644 c 128,-1,44
 249 642 249 642 249 638 c 2,45,-1
 249 62 l 1,46,-1
 397 62 l 2,47,48
 447 62 447 62 479.5 78.5 c 128,-1,49
 512 95 512 95 527.5 129 c 128,-1,50
 543 163 543 163 543 215 c 0,51,52
 543 266 543 266 527.5 299.5 c 128,-1,53
 512 333 512 333 479.5 349.5 c 128,-1,54
 447 366 447 366 397 366 c 2,55,-1
 223 366 l 1,56,-1
 223 428 l 1,57,-1
 397 428 l 2,58,59
 474 428 474 428 528.5 405.5 c 128,-1,60
 583 383 583 383 612.5 336 c 128,-1,61
 642 289 642 289 642 215 c 0,62,63
 642 145 642 145 611 97 c 128,-1,64
 580 49 580 49 525 24.5 c 128,-1,65
 470 0 470 0 397 0 c 2,26,-1
EndSplineSet
EndChar

StartChar: Softcyr
Encoding: 1068 1068 298
Width: 702
GlyphClass: 2
Flags: W
AnchorPoint: "Anchor-0" 204 741 basechar 0
LayerCount: 2
Fore
SplineSet
397 0 m 2,0,-1
 60 0 l 1,1,-1
 60 62 l 1,2,-1
 71 62 l 2,3,4
 108 62 108 62 132 69 c 128,-1,5
 156 76 156 76 156 98 c 2,6,-1
 156 612 l 2,7,8
 156 634 156 634 132 641 c 128,-1,9
 108 648 108 648 71 648 c 2,10,-1
 60 648 l 1,11,-1
 60 710 l 1,12,-1
 364 710 l 1,13,-1
 364 648 l 1,14,-1
 344 648 l 2,15,16
 320 648 320 648 298.5 647 c 128,-1,17
 277 646 277 646 263 644 c 128,-1,18
 249 642 249 642 249 638 c 2,19,-1
 249 62 l 1,20,-1
 397 62 l 2,21,22
 447 62 447 62 479.5 78.5 c 128,-1,23
 512 95 512 95 527.5 129 c 128,-1,24
 543 163 543 163 543 215 c 0,25,26
 543 266 543 266 527.5 299.5 c 128,-1,27
 512 333 512 333 479.5 349.5 c 128,-1,28
 447 366 447 366 397 366 c 2,29,-1
 223 366 l 1,30,-1
 223 428 l 1,31,-1
 397 428 l 2,32,33
 474 428 474 428 528.5 405.5 c 128,-1,34
 583 383 583 383 612.5 336 c 128,-1,35
 642 289 642 289 642 215 c 0,36,37
 642 145 642 145 611 97 c 128,-1,38
 580 49 580 49 525 24.5 c 128,-1,39
 470 0 470 0 397 0 c 2,0,-1
EndSplineSet
EndChar

StartChar: Ereversedcyr
Encoding: 1069 1069 299
Width: 813
GlyphClass: 2
Flags: W
AnchorPoint: "Anchor-1" 390 0 basechar 0
AnchorPoint: "Anchor-0" 390 741 basechar 0
LayerCount: 2
Fore
SplineSet
679 393 m 1,0,-1
 679 335 l 1,1,2
 633 333 633 333 586.5 331 c 128,-1,3
 540 329 540 329 494 327.5 c 128,-1,4
 448 326 448 326 401.5 324 c 128,-1,5
 355 322 355 322 309 320 c 1,6,-1
 309 408 l 1,7,8
 355 406 355 406 401.5 404 c 128,-1,9
 448 402 448 402 494 400.5 c 128,-1,10
 540 399 540 399 586.5 397 c 128,-1,11
 633 395 633 395 679 393 c 1,0,-1
415 -25 m 0,12,13
 341 -25 341 -25 285.5 0.5 c 128,-1,14
 230 26 230 26 196.5 76 c 128,-1,15
 163 126 163 126 153 202 c 1,16,-1
 174 151 l 1,17,-1
 162 -10 l 1,18,-1
 92 -10 l 1,19,-1
 92 242 l 1,20,-1
 165 242 l 1,21,22
 183 179 183 179 217.5 133.5 c 128,-1,23
 252 88 252 88 301.5 63.5 c 128,-1,24
 351 39 351 39 415 39 c 0,25,26
 472 39 472 39 516 57.5 c 128,-1,27
 560 76 560 76 590 114 c 128,-1,28
 620 152 620 152 635.5 212 c 128,-1,29
 651 272 651 272 651 355 c 256,30,31
 651 438 651 438 635.5 498 c 128,-1,32
 620 558 620 558 590 596 c 128,-1,33
 560 634 560 634 516 652.5 c 128,-1,34
 472 671 472 671 415 671 c 0,35,36
 351 671 351 671 301 646.5 c 128,-1,37
 251 622 251 622 216.5 576.5 c 128,-1,38
 182 531 182 531 165 468 c 1,39,-1
 92 468 l 1,40,-1
 92 720 l 1,41,-1
 162 720 l 1,42,-1
 174 559 l 1,43,-1
 153 508 l 1,44,45
 163 584 163 584 197.5 634 c 128,-1,46
 232 684 232 684 288 709.5 c 128,-1,47
 344 735 344 735 415 735 c 0,48,49
 489 735 489 735 550.5 711.5 c 128,-1,50
 612 688 612 688 657 640.5 c 128,-1,51
 702 593 702 593 726.5 522 c 128,-1,52
 751 451 751 451 751 355 c 0,53,54
 751 263 751 263 726 192.5 c 128,-1,55
 701 122 701 122 655.5 73.5 c 128,-1,56
 610 25 610 25 548.5 0 c 128,-1,57
 487 -25 487 -25 415 -25 c 0,12,13
EndSplineSet
Substitution2: "'ss01' Style Set 1 lookup 61 subtable" Ecyr.alt1
EndChar

StartChar: Yucyr
Encoding: 1070 1070 300
Width: 1145
GlyphClass: 2
Flags: W
AnchorPoint: "Anchor-1" 595 0 basechar 0
AnchorPoint: "Anchor-0" 595 741 basechar 0
LayerCount: 2
Fore
SplineSet
219 397 m 1,0,-1
 433 397 l 1,1,-1
 433 335 l 1,2,-1
 219 335 l 1,3,-1
 219 397 l 1,0,-1
60 0 m 1,4,-1
 60 62 l 1,5,-1
 71 62 l 2,6,7
 108 62 108 62 132 69 c 128,-1,8
 156 76 156 76 156 98 c 2,9,-1
 156 612 l 2,10,11
 156 634 156 634 132 641 c 128,-1,12
 108 648 108 648 71 648 c 2,13,-1
 60 648 l 1,14,-1
 60 710 l 1,15,-1
 345 710 l 1,16,-1
 345 648 l 1,17,-1
 336 648 l 2,18,19
 322 648 322 648 306.5 647.5 c 128,-1,20
 291 647 291 647 278 645.5 c 128,-1,21
 265 644 265 644 257 642.5 c 128,-1,22
 249 641 249 641 249 638 c 2,23,-1
 249 72 l 2,24,25
 249 69 249 69 257 67.5 c 128,-1,26
 265 66 265 66 278 64.5 c 128,-1,27
 291 63 291 63 306.5 62.5 c 128,-1,28
 322 62 322 62 336 62 c 2,29,-1
 345 62 l 1,30,-1
 345 0 l 1,31,-1
 60 0 l 1,4,-1
739 -25 m 256,32,33
 662 -25 662 -25 599 -0.5 c 128,-1,34
 536 24 536 24 490 72.5 c 128,-1,35
 444 121 444 121 419.5 192 c 128,-1,36
 395 263 395 263 395 356 c 0,37,38
 395 448 395 448 419.5 518.5 c 128,-1,39
 444 589 444 589 490 637.5 c 128,-1,40
 536 686 536 686 599 710.5 c 128,-1,41
 662 735 662 735 739 735 c 256,42,43
 816 735 816 735 879.5 710.5 c 128,-1,44
 943 686 943 686 988.5 637.5 c 128,-1,45
 1034 589 1034 589 1058.5 518.5 c 128,-1,46
 1083 448 1083 448 1083 356 c 0,47,48
 1083 263 1083 263 1058.5 192 c 128,-1,49
 1034 121 1034 121 988.5 72.5 c 128,-1,50
 943 24 943 24 879.5 -0.5 c 128,-1,51
 816 -25 816 -25 739 -25 c 256,32,33
739 39 m 256,52,53
 799 39 799 39 844.5 58 c 128,-1,54
 890 77 890 77 921 115.5 c 128,-1,55
 952 154 952 154 967.5 214 c 128,-1,56
 983 274 983 274 983 355 c 256,57,58
 983 436 983 436 967.5 496 c 128,-1,59
 952 556 952 556 921 594.5 c 128,-1,60
 890 633 890 633 844.5 652 c 128,-1,61
 799 671 799 671 739 671 c 256,62,63
 679 671 679 671 633.5 652 c 128,-1,64
 588 633 588 633 557 594.5 c 128,-1,65
 526 556 526 556 510.5 496 c 128,-1,66
 495 436 495 436 495 355 c 256,67,68
 495 274 495 274 510.5 214 c 128,-1,69
 526 154 526 154 557 115.5 c 128,-1,70
 588 77 588 77 633.5 58 c 128,-1,71
 679 39 679 39 739 39 c 256,52,53
EndSplineSet
EndChar

StartChar: Yacyr
Encoding: 1071 1071 301
Width: 769
GlyphClass: 2
Flags: W
AnchorPoint: "Anchor-1" 385 0 basechar 0
AnchorPoint: "Anchor-0" 423 741 basechar 0
LayerCount: 2
Fore
SplineSet
368 321 m 1,0,-1
 185 0 l 1,1,-1
 35 0 l 1,2,-1
 35 62 l 1,3,-1
 45 62 l 2,4,5
 68 62 68 62 87 66.5 c 128,-1,6
 106 71 106 71 122 84.5 c 128,-1,7
 138 98 138 98 153 123 c 2,8,-1
 286 349 l 1,9,-1
 368 321 l 1,0,-1
520 72 m 2,10,-1
 520 648 l 1,11,-1
 375 648 l 2,12,13
 325 648 325 648 292 632 c 128,-1,14
 259 616 259 616 242 584 c 128,-1,15
 225 552 225 552 225 505 c 0,16,17
 225 459 225 459 241.5 426.5 c 128,-1,18
 258 394 258 394 292 377 c 128,-1,19
 326 360 326 360 378 360 c 2,20,-1
 530 360 l 1,21,-1
 530 298 l 1,22,-1
 337 298 l 1,23,-1
 312 305 l 1,24,25
 256 313 256 313 214 340.5 c 128,-1,26
 172 368 172 368 148.5 410 c 128,-1,27
 125 452 125 452 125 505 c 0,28,29
 125 571 125 571 154.5 616.5 c 128,-1,30
 184 662 184 662 239 686 c 128,-1,31
 294 710 294 710 370 710 c 2,32,-1
 709 710 l 1,33,-1
 709 648 l 1,34,-1
 698 648 l 2,35,36
 661 648 661 648 637 641 c 128,-1,37
 613 634 613 634 613 612 c 2,38,-1
 613 98 l 2,39,40
 613 76 613 76 637 69 c 128,-1,41
 661 62 661 62 698 62 c 2,42,-1
 709 62 l 1,43,-1
 709 0 l 1,44,-1
 405 0 l 1,45,-1
 405 62 l 1,46,-1
 425 62 l 2,47,48
 443 62 443 62 460 62.5 c 128,-1,49
 477 63 477 63 490.5 64.5 c 128,-1,50
 504 66 504 66 512 67.5 c 128,-1,51
 520 69 520 69 520 72 c 2,10,-1
EndSplineSet
EndChar

StartChar: Geupcyr
Encoding: 1168 1168 302
Width: 665
GlyphClass: 2
Flags: W
AnchorPoint: "Anchor-0" 313 741 basechar 0
LayerCount: 2
Fore
SplineSet
249 648 m 1,0,-1
 249 98 l 2,1,2
 249 84 249 84 260 76 c 128,-1,3
 271 68 271 68 290.5 65 c 128,-1,4
 310 62 310 62 334 62 c 2,5,-1
 364 62 l 1,6,-1
 364 0 l 1,7,-1
 60 0 l 1,8,-1
 60 62 l 1,9,-1
 71 62 l 2,10,11
 108 62 108 62 132 69 c 128,-1,12
 156 76 156 76 156 98 c 2,13,-1
 156 612 l 2,14,15
 156 634 156 634 132 641 c 128,-1,16
 108 648 108 648 71 648 c 2,17,-1
 60 648 l 1,18,-1
 60 710 l 1,19,-1
 403 710 l 2,20,21
 451 710 451 710 480 715.5 c 128,-1,22
 509 721 509 721 522.5 733 c 128,-1,23
 536 745 536 745 538 763 c 2,24,-1
 551 899 l 1,25,-1
 615 899 l 1,26,-1
 615 648 l 1,27,-1
 249 648 l 1,0,-1
EndSplineSet
EndChar

StartChar: Gestrokecyr
Encoding: 1170 1170 303
Width: 670
GlyphClass: 2
Flags: W
AnchorPoint: "Anchor-0" 342 741 basechar 0
LayerCount: 2
Fore
SplineSet
60 391 m 1,0,-1
 430 391 l 1,1,-1
 430 329 l 1,2,-1
 60 329 l 1,3,-1
 60 391 l 1,0,-1
249 648 m 1,4,-1
 249 98 l 2,5,6
 249 84 249 84 260 76 c 128,-1,7
 271 68 271 68 290.5 65 c 128,-1,8
 310 62 310 62 334 62 c 2,9,-1
 364 62 l 1,10,-1
 364 0 l 1,11,-1
 60 0 l 1,12,-1
 60 62 l 1,13,-1
 71 62 l 2,14,15
 108 62 108 62 132 69 c 128,-1,16
 156 76 156 76 156 98 c 2,17,-1
 156 612 l 2,18,19
 156 634 156 634 132 641 c 128,-1,20
 108 648 108 648 71 648 c 2,21,-1
 60 648 l 1,22,-1
 60 710 l 1,23,-1
 615 710 l 1,24,-1
 615 484 l 1,25,-1
 551 484 l 1,26,-1
 538 603 l 2,27,28
 536 621 536 621 523 630.5 c 128,-1,29
 510 640 510 640 483 644 c 128,-1,30
 456 648 456 648 413 648 c 2,31,-1
 249 648 l 1,4,-1
EndSplineSet
EndChar

StartChar: Zhetailcyr
Encoding: 1174 1174 304
Width: 1140
GlyphClass: 2
Flags: W
AnchorPoint: "Anchor-0" 559 741 basechar 0
LayerCount: 2
Fore
SplineSet
813 0 m 1,0,-1
 813 62 l 1,1,-1
 822 62 l 2,2,3
 843 62 843 62 862.5 63 c 128,-1,4
 882 64 882 64 894.5 66.5 c 128,-1,5
 907 69 907 69 907 72 c 2,6,-1
 664 343 l 1,7,-1
 664 373 l 1,8,-1
 919 637 l 2,9,10
 919 641 919 641 907 643 c 128,-1,11
 895 645 895 645 876 646.5 c 128,-1,12
 857 648 857 648 836 648 c 2,13,-1
 827 648 l 1,14,-1
 827 710 l 1,15,-1
 1085 710 l 1,16,-1
 1085 648 l 1,17,-1
 1054 648 l 2,18,19
 1038 648 1038 648 1025 645.5 c 128,-1,20
 1012 643 1012 643 1001 636.5 c 128,-1,21
 990 630 990 630 979 619 c 2,22,-1
 725 357 l 1,23,-1
 733 399 l 1,24,-1
 1037 62 l 1,25,-1
 1037 0 l 1,26,-1
 813 0 l 1,0,-1
322 0 m 1,27,-1
 30 0 l 1,28,-1
 30 62 l 1,29,-1
 48 62 l 2,30,31
 66 62 66 62 79 63.5 c 128,-1,32
 92 65 92 65 102.5 69.5 c 128,-1,33
 113 74 113 74 122 83 c 2,34,-1
 407 399 l 1,35,-1
 408 357 l 1,36,-1
 154 619 l 2,37,38
 144 630 144 630 132.5 636.5 c 128,-1,39
 121 643 121 643 108 645.5 c 128,-1,40
 95 648 95 648 79 648 c 2,41,-1
 48 648 l 1,42,-1
 48 710 l 1,43,-1
 308 710 l 1,44,-1
 308 648 l 1,45,-1
 299 648 l 2,46,47
 278 648 278 648 259 646.5 c 128,-1,48
 240 645 240 645 228 643 c 128,-1,49
 216 641 216 641 216 637 c 2,50,-1
 471 373 l 1,51,-1
 471 343 l 1,52,-1
 228 72 l 2,53,54
 228 69 228 69 240.5 66.5 c 128,-1,55
 253 64 253 64 273 63 c 128,-1,56
 293 62 293 62 313 62 c 2,57,-1
 322 62 l 1,58,-1
 322 0 l 1,27,-1
918 0 m 2,59,-1
 909 0 l 1,60,-1
 909 62 l 1,61,-1
 1130 62 l 1,62,-1
 1130 -189 l 1,63,-1
 1066 -189 l 1,64,-1
 1053 -53 l 2,65,66
 1052 -35 1052 -35 1038 -23 c 128,-1,67
 1024 -11 1024 -11 995 -5.5 c 128,-1,68
 966 0 966 0 918 0 c 2,59,-1
425 0 m 1,69,-1
 425 62 l 1,70,-1
 434 62 l 2,71,72
 448 62 448 62 463.5 62.5 c 128,-1,73
 479 63 479 63 492 64.5 c 128,-1,74
 505 66 505 66 513 67.5 c 128,-1,75
 521 69 521 69 521 72 c 2,76,-1
 521 638 l 2,77,78
 521 641 521 641 513 642.5 c 128,-1,79
 505 644 505 644 492 645.5 c 128,-1,80
 479 647 479 647 463.5 647.5 c 128,-1,81
 448 648 448 648 434 648 c 2,82,-1
 425 648 l 1,83,-1
 425 710 l 1,84,-1
 710 710 l 1,85,-1
 710 648 l 1,86,-1
 701 648 l 2,87,88
 687 648 687 648 671.5 647.5 c 128,-1,89
 656 647 656 647 643 645.5 c 128,-1,90
 630 644 630 644 622 642.5 c 128,-1,91
 614 641 614 641 614 638 c 2,92,-1
 614 72 l 2,93,94
 614 69 614 69 622 67.5 c 128,-1,95
 630 66 630 66 643 64.5 c 128,-1,96
 656 63 656 63 671.5 62.5 c 128,-1,97
 687 62 687 62 701 62 c 2,98,-1
 710 62 l 1,99,-1
 710 0 l 1,100,-1
 425 0 l 1,69,-1
EndSplineSet
EndChar

StartChar: Katailcyr
Encoding: 1178 1178 306
Width: 793
GlyphClass: 2
Flags: W
AnchorPoint: "Anchor-0" 404 741 basechar 0
LayerCount: 2
Fore
SplineSet
60 0 m 1,0,-1
 60 62 l 1,1,-1
 71 62 l 2,2,3
 108 62 108 62 132 69 c 128,-1,4
 156 76 156 76 156 98 c 2,5,-1
 156 612 l 2,6,7
 156 634 156 634 132 641 c 128,-1,8
 108 648 108 648 71 648 c 2,9,-1
 60 648 l 1,10,-1
 60 710 l 1,11,-1
 340 710 l 1,12,-1
 340 648 l 1,13,-1
 331 648 l 2,14,15
 319 648 319 648 304.5 647.5 c 128,-1,16
 290 647 290 647 277.5 645.5 c 128,-1,17
 265 644 265 644 257 642.5 c 128,-1,18
 249 641 249 641 249 638 c 2,19,-1
 249 72 l 2,20,21
 249 69 249 69 257 67.5 c 128,-1,22
 265 66 265 66 277.5 64.5 c 128,-1,23
 290 63 290 63 304.5 62.5 c 128,-1,24
 319 62 319 62 331 62 c 2,25,-1
 340 62 l 1,26,-1
 340 0 l 1,27,-1
 60 0 l 1,0,-1
463 0 m 1,28,-1
 463 62 l 1,29,-1
 472 62 l 2,30,31
 493 62 493 62 512.5 63 c 128,-1,32
 532 64 532 64 544.5 66.5 c 128,-1,33
 557 69 557 69 557 72 c 2,34,-1
 299 343 l 1,35,-1
 299 373 l 1,36,-1
 569 637 l 2,37,38
 569 641 569 641 557 643 c 128,-1,39
 545 645 545 645 526 646.5 c 128,-1,40
 507 648 507 648 486 648 c 2,41,-1
 477 648 l 1,42,-1
 477 710 l 1,43,-1
 737 710 l 1,44,-1
 737 648 l 1,45,-1
 706 648 l 2,46,47
 690 648 690 648 677 645 c 128,-1,48
 664 642 664 642 653 636.5 c 128,-1,49
 642 631 642 631 631 619 c 2,50,-1
 360 356 l 1,51,-1
 368 399 l 1,52,-1
 691 62 l 1,53,-1
 691 0 l 1,54,-1
 463 0 l 1,28,-1
571 0 m 2,55,-1
 562 0 l 1,56,-1
 562 62 l 1,57,-1
 783 62 l 1,58,-1
 783 -189 l 1,59,-1
 719 -189 l 1,60,-1
 706 -53 l 2,61,62
 705 -35 705 -35 691 -23 c 128,-1,63
 677 -11 677 -11 648 -5.5 c 128,-1,64
 619 0 619 0 571 0 c 2,55,-1
EndSplineSet
EndChar

StartChar: Kaverticalstrokecyr
Encoding: 1180 1180 307
Width: 870
GlyphClass: 2
Flags: W
AnchorPoint: "Anchor-0" 452 741 basechar 0
LayerCount: 2
Fore
SplineSet
336 171 m 1,0,-1
 336 544 l 1,1,-1
 398 544 l 1,2,-1
 398 171 l 1,3,-1
 336 171 l 1,0,-1
60 0 m 1,4,-1
 60 62 l 1,5,-1
 71 62 l 2,6,7
 108 62 108 62 132 69 c 128,-1,8
 156 76 156 76 156 98 c 2,9,-1
 156 612 l 2,10,11
 156 634 156 634 132 641 c 128,-1,12
 108 648 108 648 71 648 c 2,13,-1
 60 648 l 1,14,-1
 60 710 l 1,15,-1
 340 710 l 1,16,-1
 340 648 l 1,17,-1
 331 648 l 2,18,19
 319 648 319 648 304.5 647.5 c 128,-1,20
 290 647 290 647 277.5 645.5 c 128,-1,21
 265 644 265 644 257 642.5 c 128,-1,22
 249 641 249 641 249 638 c 2,23,-1
 249 72 l 2,24,25
 249 69 249 69 257 67.5 c 128,-1,26
 265 66 265 66 277.5 64.5 c 128,-1,27
 290 63 290 63 304.5 62.5 c 128,-1,28
 319 62 319 62 331 62 c 2,29,-1
 340 62 l 1,30,-1
 340 0 l 1,31,-1
 60 0 l 1,4,-1
550 0 m 1,32,-1
 550 62 l 1,33,-1
 559 62 l 2,34,35
 580 62 580 62 599.5 63 c 128,-1,36
 619 64 619 64 631.5 66.5 c 128,-1,37
 644 69 644 69 644 72 c 2,38,-1
 446 343 l 1,39,-1
 446 373 l 1,40,-1
 656 637 l 2,41,42
 656 641 656 641 644 643 c 128,-1,43
 632 645 632 645 613 646.5 c 128,-1,44
 594 648 594 648 573 648 c 2,45,-1
 564 648 l 1,46,-1
 564 710 l 1,47,-1
 820 710 l 1,48,-1
 820 648 l 1,49,-1
 789 648 l 2,50,51
 765 648 765 648 746.5 642.5 c 128,-1,52
 728 637 728 637 714 619 c 2,53,-1
 503 356 l 1,54,-1
 515 399 l 1,55,-1
 748 83 l 2,56,57
 756 73 756 73 766.5 68.5 c 128,-1,58
 777 64 777 64 791 63 c 128,-1,59
 805 62 805 62 822 62 c 2,60,-1
 840 62 l 1,61,-1
 840 0 l 1,62,-1
 550 0 l 1,32,-1
EndSplineSet
EndChar

StartChar: Kabashkcyr
Encoding: 1184 1184 308
Width: 940
GlyphClass: 2
Flags: W
AnchorPoint: "Anchor-0" 555 741 basechar 0
LayerCount: 2
Fore
SplineSet
610 0 m 1,0,-1
 610 62 l 1,1,-1
 619 62 l 2,2,3
 640 62 640 62 659.5 63 c 128,-1,4
 679 64 679 64 691.5 66.5 c 128,-1,5
 704 69 704 69 704 72 c 2,6,-1
 446 343 l 1,7,-1
 446 373 l 1,8,-1
 716 637 l 2,9,10
 716 641 716 641 704 643 c 128,-1,11
 692 645 692 645 673 646.5 c 128,-1,12
 654 648 654 648 633 648 c 2,13,-1
 624 648 l 1,14,-1
 624 710 l 1,15,-1
 884 710 l 1,16,-1
 884 648 l 1,17,-1
 853 648 l 2,18,19
 837 648 837 648 824 645 c 128,-1,20
 811 642 811 642 800 636.5 c 128,-1,21
 789 631 789 631 778 619 c 2,22,-1
 507 356 l 1,23,-1
 515 399 l 1,24,-1
 818 83 l 2,25,26
 827 74 827 74 837.5 69.5 c 128,-1,27
 848 65 848 65 861.5 63.5 c 128,-1,28
 875 62 875 62 892 62 c 2,29,-1
 910 62 l 1,30,-1
 910 0 l 1,31,-1
 610 0 l 1,0,-1
207 0 m 1,32,-1
 207 62 l 1,33,-1
 218 62 l 2,34,35
 255 62 255 62 279 69 c 128,-1,36
 303 76 303 76 303 98 c 2,37,-1
 303 648 l 1,38,-1
 267 648 l 2,39,40
 219 648 219 648 190 642.5 c 128,-1,41
 161 637 161 637 147.5 625 c 128,-1,42
 134 613 134 613 132 595 c 2,43,-1
 119 469 l 1,44,-1
 55 469 l 1,45,-1
 55 710 l 1,46,-1
 487 710 l 1,47,-1
 487 648 l 1,48,-1
 478 648 l 2,49,50
 462 648 462 648 442.5 647 c 128,-1,51
 423 646 423 646 409.5 644 c 128,-1,52
 396 642 396 642 396 638 c 2,53,-1
 396 72 l 2,54,55
 396 69 396 69 409.5 66.5 c 128,-1,56
 423 64 423 64 442.5 63 c 128,-1,57
 462 62 462 62 478 62 c 2,58,-1
 487 62 l 1,59,-1
 487 0 l 1,60,-1
 207 0 l 1,32,-1
EndSplineSet
EndChar

StartChar: Entailcyr
Encoding: 1186 1186 309
Width: 873
GlyphClass: 2
Flags: W
AnchorPoint: "Anchor-0" 437 741 basechar 0
LayerCount: 2
Fore
SplineSet
229 397 m 1,0,-1
 644 397 l 1,1,-1
 644 335 l 1,2,-1
 229 335 l 1,3,-1
 229 397 l 1,0,-1
60 0 m 1,4,-1
 60 62 l 1,5,-1
 71 62 l 2,6,7
 108 62 108 62 132 69 c 128,-1,8
 156 76 156 76 156 98 c 2,9,-1
 156 612 l 2,10,11
 156 634 156 634 132 641 c 128,-1,12
 108 648 108 648 71 648 c 2,13,-1
 60 648 l 1,14,-1
 60 710 l 1,15,-1
 345 710 l 1,16,-1
 345 648 l 1,17,-1
 336 648 l 2,18,19
 322 648 322 648 306.5 647.5 c 128,-1,20
 291 647 291 647 278 645.5 c 128,-1,21
 265 644 265 644 257 642.5 c 128,-1,22
 249 641 249 641 249 638 c 2,23,-1
 249 72 l 2,24,25
 249 69 249 69 257 67.5 c 128,-1,26
 265 66 265 66 278 64.5 c 128,-1,27
 291 63 291 63 306.5 62.5 c 128,-1,28
 322 62 322 62 336 62 c 2,29,-1
 345 62 l 1,30,-1
 345 0 l 1,31,-1
 60 0 l 1,4,-1
528 0 m 1,32,-1
 528 62 l 1,33,-1
 537 62 l 2,34,35
 551 62 551 62 566.5 62.5 c 128,-1,36
 582 63 582 63 595 64.5 c 128,-1,37
 608 66 608 66 616 67.5 c 128,-1,38
 624 69 624 69 624 72 c 2,39,-1
 624 638 l 2,40,41
 624 641 624 641 616 642.5 c 128,-1,42
 608 644 608 644 595 645.5 c 128,-1,43
 582 647 582 647 566.5 647.5 c 128,-1,44
 551 648 551 648 537 648 c 2,45,-1
 528 648 l 1,46,-1
 528 710 l 1,47,-1
 813 710 l 1,48,-1
 813 648 l 1,49,-1
 802 648 l 2,50,51
 765 648 765 648 741 641 c 128,-1,52
 717 634 717 634 717 612 c 2,53,-1
 717 0 l 1,54,-1
 528 0 l 1,32,-1
611 0 m 2,55,-1
 602 0 l 1,56,-1
 602 62 l 1,57,-1
 823 62 l 1,58,-1
 823 -189 l 1,59,-1
 759 -189 l 1,60,-1
 746 -53 l 2,61,62
 745 -35 745 -35 731 -23 c 128,-1,63
 717 -11 717 -11 688 -5.5 c 128,-1,64
 659 0 659 0 611 0 c 2,55,-1
EndSplineSet
EndChar

StartChar: Tetailcyr
Encoding: 1196 1196 311
Width: 739
GlyphClass: 2
Flags: W
AnchorPoint: "Anchor-0" 362 741 basechar 0
LayerCount: 2
Fore
SplineSet
323 98 m 2,0,-1
 323 648 l 1,1,-1
 267 648 l 2,2,3
 219 648 219 648 190 642.5 c 128,-1,4
 161 637 161 637 147.5 625 c 128,-1,5
 134 613 134 613 132 595 c 2,6,-1
 119 469 l 1,7,-1
 55 469 l 1,8,-1
 55 710 l 1,9,-1
 684 710 l 1,10,-1
 684 469 l 1,11,-1
 620 469 l 1,12,-1
 607 595 l 2,13,14
 605 613 605 613 591.5 625 c 128,-1,15
 578 637 578 637 549 642.5 c 128,-1,16
 520 648 520 648 472 648 c 2,17,-1
 416 648 l 1,18,-1
 416 0 l 1,19,-1
 213 0 l 1,20,-1
 213 62 l 1,21,-1
 233 62 l 2,22,23
 270 62 270 62 296.5 69 c 128,-1,24
 323 76 323 76 323 98 c 2,0,-1
320 0 m 2,25,-1
 273 0 l 1,26,-1
 273 62 l 1,27,-1
 532 62 l 1,28,-1
 532 -189 l 1,29,-1
 468 -189 l 1,30,-1
 455 -53 l 2,31,32
 454 -35 454 -35 440 -23 c 128,-1,33
 426 -11 426 -11 397 -5.5 c 128,-1,34
 368 0 368 0 320 0 c 2,25,-1
EndSplineSet
EndChar

StartChar: Ustraightstrokecyr
Encoding: 1200 1200 313
Width: 722
GlyphClass: 2
Flags: W
AnchorPoint: "Anchor-1" 361 0 basechar 0
AnchorPoint: "Anchor-0" 361 741 basechar 0
LayerCount: 2
Fore
SplineSet
173 274 m 1,0,-1
 556 274 l 1,1,-1
 556 212 l 1,2,-1
 173 212 l 1,3,-1
 173 274 l 1,0,-1
318 309 m 1,4,-1
 324 264 l 1,5,-1
 116 614 l 2,6,7
 107 629 107 629 97 636.5 c 128,-1,8
 87 644 87 644 74 646 c 128,-1,9
 61 648 61 648 43 648 c 2,10,-1
 30 648 l 1,11,-1
 30 710 l 1,12,-1
 282 710 l 1,13,-1
 282 648 l 1,14,-1
 265 648 l 2,15,16
 250 648 250 648 234 646.5 c 128,-1,17
 218 645 218 645 207 643 c 128,-1,18
 196 641 196 641 196 637 c 2,19,-1
 386 308 l 1,20,-1
 367 308 l 1,21,-1
 543 625 l 2,22,23
 543 632 543 632 532 637 c 128,-1,24
 521 642 521 642 504.5 645 c 128,-1,25
 488 648 488 648 473 648 c 2,26,-1
 462 648 l 1,27,-1
 462 710 l 1,28,-1
 692 710 l 1,29,-1
 692 648 l 1,30,-1
 679 648 l 2,31,32
 662 648 662 648 648.5 643.5 c 128,-1,33
 635 639 635 639 624 629 c 128,-1,34
 613 619 613 619 602 601 c 2,35,-1
 404 263 l 1,36,-1
 411 309 l 1,37,-1
 411 98 l 2,38,39
 411 76 411 76 436 69 c 128,-1,40
 461 62 461 62 499 62 c 2,41,-1
 520 62 l 1,42,-1
 520 0 l 1,43,-1
 209 0 l 1,44,-1
 209 62 l 1,45,-1
 230 62 l 2,46,47
 268 62 268 62 293 69 c 128,-1,48
 318 76 318 76 318 98 c 2,49,-1
 318 309 l 1,4,-1
EndSplineSet
EndChar

StartChar: Xatailcyr
Encoding: 1202 1202 314
Width: 772
GlyphClass: 2
Flags: W
AnchorPoint: "Anchor-0" 394 741 basechar 0
LayerCount: 2
Fore
SplineSet
44 648 m 1,0,-1
 44 710 l 1,1,-1
 326 710 l 1,2,-1
 326 648 l 1,3,-1
 309 648 l 2,4,5
 291 648 291 648 272 647 c 128,-1,6
 253 646 253 646 240 644 c 128,-1,7
 227 642 227 642 227 639 c 2,8,-1
 413 391 l 1,9,-1
 422 389 l 1,10,-1
 666 63 l 1,11,-1
 666 0 l 1,12,-1
 454 0 l 1,13,-1
 454 62 l 1,14,-1
 471 62 l 2,15,16
 489 62 489 62 508 63 c 128,-1,17
 527 64 527 64 540 66.5 c 128,-1,18
 553 69 553 69 553 72 c 2,19,-1
 354 338 l 1,20,-1
 345 341 l 1,21,-1
 140 614 l 2,22,23
 123 637 123 637 105 642.5 c 128,-1,24
 87 648 87 648 59 648 c 2,25,-1
 44 648 l 1,0,-1
30 0 m 1,26,-1
 30 62 l 1,27,-1
 50 62 l 2,28,29
 77 62 77 62 96.5 71 c 128,-1,30
 116 80 116 80 136 108 c 2,31,-1
 335 379 l 1,32,-1
 377 334 l 1,33,-1
 192 79 l 2,34,35
 192 75 192 75 204.5 71 c 128,-1,36
 217 67 217 67 236 64.5 c 128,-1,37
 255 62 255 62 273 62 c 2,38,-1
 292 62 l 1,39,-1
 292 0 l 1,40,-1
 30 0 l 1,26,-1
434 355 m 1,41,-1
 391 397 l 1,42,-1
 567 631 l 2,43,44
 567 636 567 636 554 640 c 128,-1,45
 541 644 541 644 522 646 c 128,-1,46
 503 648 503 648 484 648 c 2,47,-1
 469 648 l 1,48,-1
 469 710 l 1,49,-1
 727 710 l 1,50,-1
 727 648 l 1,51,-1
 712 648 l 2,52,53
 684 648 684 648 664 639.5 c 128,-1,54
 644 631 644 631 623 603 c 2,55,-1
 434 355 l 1,41,-1
550 0 m 2,56,-1
 540 0 l 1,57,-1
 540 62 l 1,58,-1
 762 62 l 1,59,-1
 762 -189 l 1,60,-1
 698 -189 l 1,61,-1
 685 -53 l 2,62,63
 684 -35 684 -35 670 -23 c 128,-1,64
 656 -11 656 -11 627 -5.5 c 128,-1,65
 598 0 598 0 550 0 c 2,56,-1
EndSplineSet
EndChar

StartChar: Chetailcyr
Encoding: 1206 1206 315
Width: 813
GlyphClass: 2
Flags: W
AnchorPoint: "Anchor-0" 398 741 basechar 0
LayerCount: 2
Fore
SplineSet
375 280 m 0,0,1
 287 280 287 280 234.5 302.5 c 128,-1,2
 182 325 182 325 159 373.5 c 128,-1,3
 136 422 136 422 136 500 c 2,4,-1
 136 612 l 2,5,6
 136 634 136 634 112 641 c 128,-1,7
 88 648 88 648 51 648 c 2,8,-1
 40 648 l 1,9,-1
 40 710 l 1,10,-1
 325 710 l 1,11,-1
 325 648 l 1,12,-1
 316 648 l 2,13,14
 297 648 297 648 277 647 c 128,-1,15
 257 646 257 646 243 644 c 128,-1,16
 229 642 229 642 229 638 c 2,17,-1
 229 505 l 2,18,19
 229 445 229 445 243 409.5 c 128,-1,20
 257 374 257 374 289 358 c 128,-1,21
 321 342 321 342 375 342 c 0,22,23
 434 342 434 342 495 354.5 c 128,-1,24
 556 367 556 367 611 402 c 1,25,-1
 611 339 l 1,26,27
 556 308 556 308 494.5 294 c 128,-1,28
 433 280 433 280 375 280 c 0,0,1
468 0 m 1,29,-1
 468 62 l 1,30,-1
 477 62 l 2,31,32
 496 62 496 62 516 63 c 128,-1,33
 536 64 536 64 550 66.5 c 128,-1,34
 564 69 564 69 564 72 c 2,35,-1
 564 638 l 2,36,37
 564 642 564 642 550 644 c 128,-1,38
 536 646 536 646 516 647 c 128,-1,39
 496 648 496 648 477 648 c 2,40,-1
 468 648 l 1,41,-1
 468 710 l 1,42,-1
 753 710 l 1,43,-1
 753 648 l 1,44,-1
 742 648 l 2,45,46
 705 648 705 648 681 641 c 128,-1,47
 657 634 657 634 657 612 c 2,48,-1
 657 0 l 1,49,-1
 468 0 l 1,29,-1
551 0 m 2,50,-1
 542 0 l 1,51,-1
 582 62 l 1,52,-1
 763 62 l 1,53,-1
 763 -189 l 1,54,-1
 699 -189 l 1,55,-1
 686 -53 l 2,56,57
 685 -35 685 -35 671 -23 c 128,-1,58
 657 -11 657 -11 628 -5.5 c 128,-1,59
 599 0 599 0 551 0 c 2,50,-1
EndSplineSet
EndChar

StartChar: Chevertcyr
Encoding: 1208 1208 316
Width: 833
GlyphClass: 2
Flags: W
AnchorPoint: "Anchor-0" 408 741 basechar 0
LayerCount: 2
Fore
SplineSet
488 0 m 1,0,-1
 488 62 l 1,1,-1
 497 62 l 2,2,3
 516 62 516 62 536 63 c 128,-1,4
 556 64 556 64 570 66.5 c 128,-1,5
 584 69 584 69 584 72 c 2,6,-1
 584 638 l 2,7,8
 584 642 584 642 570 644 c 128,-1,9
 556 646 556 646 536 647 c 128,-1,10
 516 648 516 648 497 648 c 2,11,-1
 488 648 l 1,12,-1
 488 710 l 1,13,-1
 773 710 l 1,14,-1
 773 648 l 1,15,-1
 762 648 l 2,16,17
 725 648 725 648 701 641 c 128,-1,18
 677 634 677 634 677 612 c 2,19,-1
 677 98 l 2,20,21
 677 76 677 76 701 69 c 128,-1,22
 725 62 725 62 762 62 c 2,23,-1
 773 62 l 1,24,-1
 773 0 l 1,25,-1
 488 0 l 1,0,-1
385 280 m 0,26,27
 293 280 293 280 238.5 302.5 c 128,-1,28
 184 325 184 325 160 373.5 c 128,-1,29
 136 422 136 422 136 500 c 2,30,-1
 136 612 l 2,31,32
 136 634 136 634 112 641 c 128,-1,33
 88 648 88 648 51 648 c 2,34,-1
 40 648 l 1,35,-1
 40 710 l 1,36,-1
 325 710 l 1,37,-1
 325 648 l 1,38,-1
 316 648 l 2,39,40
 297 648 297 648 277 647 c 128,-1,41
 257 646 257 646 243 644 c 128,-1,42
 229 642 229 642 229 638 c 2,43,-1
 229 505 l 2,44,45
 229 445 229 445 244 409.5 c 128,-1,46
 259 374 259 374 293 358 c 128,-1,47
 327 342 327 342 385 342 c 0,48,49
 446 342 446 342 510.5 354 c 128,-1,50
 575 366 575 366 631 402 c 1,51,-1
 631 339 l 1,52,53
 575 306 575 306 510 293 c 128,-1,54
 445 280 445 280 385 280 c 0,26,27
377 158 m 1,55,-1
 377 531 l 1,56,-1
 439 531 l 1,57,-1
 439 158 l 1,58,-1
 377 158 l 1,55,-1
EndSplineSet
EndChar

StartChar: Shhacyr
Encoding: 1210 1210 317
Width: 813
GlyphClass: 1
Flags: W
LayerCount: 2
Fore
SplineSet
345 710 m 1,0,-1
 345 648 l 1,1,-1
 336 648 l 2,2,3
 317 648 317 648 297 647 c 128,-1,4
 277 646 277 646 263 644 c 128,-1,5
 249 642 249 642 249 638 c 2,6,-1
 249 72 l 2,7,8
 249 69 249 69 263 66.5 c 128,-1,9
 277 64 277 64 297 63 c 128,-1,10
 317 62 317 62 336 62 c 2,11,-1
 345 62 l 1,12,-1
 345 0 l 1,13,-1
 60 0 l 1,14,-1
 60 62 l 1,15,-1
 71 62 l 2,16,17
 108 62 108 62 132 69 c 128,-1,18
 156 76 156 76 156 98 c 2,19,-1
 156 612 l 2,20,21
 156 634 156 634 132 641 c 128,-1,22
 108 648 108 648 71 648 c 2,23,-1
 60 648 l 1,24,-1
 60 710 l 1,25,-1
 345 710 l 1,0,-1
438 430 m 0,26,27
 527 430 527 430 579 407.5 c 128,-1,28
 631 385 631 385 654 336.5 c 128,-1,29
 677 288 677 288 677 210 c 2,30,-1
 677 98 l 2,31,32
 677 76 677 76 701 69 c 128,-1,33
 725 62 725 62 762 62 c 2,34,-1
 773 62 l 1,35,-1
 773 0 l 1,36,-1
 488 0 l 1,37,-1
 488 62 l 1,38,-1
 497 62 l 2,39,40
 516 62 516 62 536 63 c 128,-1,41
 556 64 556 64 570 66.5 c 128,-1,42
 584 69 584 69 584 72 c 2,43,-1
 584 205 l 2,44,45
 584 265 584 265 570 300.5 c 128,-1,46
 556 336 556 336 524.5 352 c 128,-1,47
 493 368 493 368 438 368 c 0,48,49
 380 368 380 368 318 355.5 c 128,-1,50
 256 343 256 343 202 310 c 1,51,-1
 202 373 l 1,52,53
 256 403 256 403 318 416.5 c 128,-1,54
 380 430 380 430 438 430 c 0,26,27
EndSplineSet
EndChar

StartChar: Obarcyr
Encoding: 1256 1256 320
Width: 832
GlyphClass: 2
Flags: W
AnchorPoint: "Anchor-1" 408 0 basechar 0
AnchorPoint: "Anchor-0" 408 741 basechar 0
LayerCount: 2
Fore
SplineSet
108 397 m 1,0,-1
 724 397 l 1,1,-1
 724 335 l 1,2,-1
 108 335 l 1,3,-1
 108 397 l 1,0,-1
416 -25 m 0,4,5
 337 -25 337 -25 272 -0.5 c 128,-1,6
 207 24 207 24 160 72.5 c 128,-1,7
 113 121 113 121 87.5 192 c 128,-1,8
 62 263 62 263 62 355 c 0,9,10
 62 448 62 448 87.5 518.5 c 128,-1,11
 113 589 113 589 160 637.5 c 128,-1,12
 207 686 207 686 272 710.5 c 128,-1,13
 337 735 337 735 416 735 c 0,14,15
 496 735 496 735 561 710.5 c 128,-1,16
 626 686 626 686 672.5 637.5 c 128,-1,17
 719 589 719 589 744.5 518.5 c 128,-1,18
 770 448 770 448 770 355 c 0,19,20
 770 263 770 263 744.5 192 c 128,-1,21
 719 121 719 121 672.5 72.5 c 128,-1,22
 626 24 626 24 561 -0.5 c 128,-1,23
 496 -25 496 -25 416 -25 c 0,4,5
416 39 m 256,24,25
 478 39 478 39 525.5 58 c 128,-1,26
 573 77 573 77 605 115.5 c 128,-1,27
 637 154 637 154 653.5 214 c 128,-1,28
 670 274 670 274 670 355 c 256,29,30
 670 436 670 436 653.5 496 c 128,-1,31
 637 556 637 556 605 594.5 c 128,-1,32
 573 633 573 633 525.5 652 c 128,-1,33
 478 671 478 671 416 671 c 256,34,35
 354 671 354 671 306.5 652 c 128,-1,36
 259 633 259 633 227 594.5 c 128,-1,37
 195 556 195 556 178.5 496 c 128,-1,38
 162 436 162 436 162 355 c 256,39,40
 162 274 162 274 178.5 214 c 128,-1,41
 195 154 195 154 227 115.5 c 128,-1,42
 259 77 259 77 306.5 58 c 128,-1,43
 354 39 354 39 416 39 c 256,24,25
EndSplineSet
EndChar

StartChar: Hastrokecyr
Encoding: 1278 1278 321
Width: 772
GlyphClass: 2
Flags: W
AnchorPoint: "Anchor-1" 363 0 basechar 0
AnchorPoint: "Anchor-0" 394 741 basechar 0
LayerCount: 2
Fore
SplineSet
176 399 m 1,0,-1
 592 399 l 1,1,-1
 592 337 l 1,2,-1
 176 337 l 1,3,-1
 176 399 l 1,0,-1
44 648 m 1,4,-1
 44 710 l 1,5,-1
 326 710 l 1,6,-1
 326 648 l 1,7,-1
 309 648 l 2,8,9
 291 648 291 648 272 647 c 128,-1,10
 253 646 253 646 240 644 c 128,-1,11
 227 642 227 642 227 639 c 2,12,-1
 413 391 l 1,13,-1
 421 389 l 1,14,-1
 641 96 l 2,15,16
 658 74 658 74 675.5 68 c 128,-1,17
 693 62 693 62 721 62 c 2,18,-1
 742 62 l 1,19,-1
 742 0 l 1,20,-1
 454 0 l 1,21,-1
 454 62 l 1,22,-1
 471 62 l 2,23,24
 489 62 489 62 508 63 c 128,-1,25
 527 64 527 64 540 66.5 c 128,-1,26
 553 69 553 69 553 72 c 2,27,-1
 354 338 l 1,28,-1
 346 341 l 1,29,-1
 140 614 l 2,30,31
 123 637 123 637 105 642.5 c 128,-1,32
 87 648 87 648 59 648 c 2,33,-1
 44 648 l 1,4,-1
30 0 m 1,34,-1
 30 62 l 1,35,-1
 50 62 l 2,36,37
 77 62 77 62 96.5 71 c 128,-1,38
 116 80 116 80 136 108 c 2,39,-1
 336 379 l 1,40,-1
 377 334 l 1,41,-1
 192 79 l 2,42,43
 192 75 192 75 204.5 71 c 128,-1,44
 217 67 217 67 236 64.5 c 128,-1,45
 255 62 255 62 273 62 c 2,46,-1
 292 62 l 1,47,-1
 292 0 l 1,48,-1
 30 0 l 1,34,-1
433 355 m 1,49,-1
 391 397 l 1,50,-1
 567 631 l 2,51,52
 567 636 567 636 554 640 c 128,-1,53
 541 644 541 644 522 646 c 128,-1,54
 503 648 503 648 484 648 c 2,55,-1
 469 648 l 1,56,-1
 469 710 l 1,57,-1
 727 710 l 1,58,-1
 727 648 l 1,59,-1
 712 648 l 2,60,61
 684 648 684 648 664 639.5 c 128,-1,62
 644 631 644 631 623 603 c 2,63,-1
 433 355 l 1,49,-1
EndSplineSet
EndChar

StartChar: a
Encoding: 97 97 322
Width: 623
GlyphClass: 2
Flags: W
AnchorPoint: "Anchor-2" 468 -10 basechar 0
AnchorPoint: "Anchor-1" 321 0 basechar 0
AnchorPoint: "Anchor-0" 289 565 basechar 0
LayerCount: 2
Fore
SplineSet
429 346 m 1,0,-1
 429 289 l 1,1,2
 357 278 357 278 308 266 c 128,-1,3
 259 254 259 254 229 241 c 128,-1,4
 199 228 199 228 183.5 212.5 c 128,-1,5
 168 197 168 197 162.5 178.5 c 128,-1,6
 157 160 157 160 157 138 c 0,7,8
 157 106 157 106 169 86.5 c 128,-1,9
 181 67 181 67 203 58 c 128,-1,10
 225 49 225 49 255 49 c 0,11,12
 284 49 284 49 310.5 62 c 128,-1,13
 337 75 337 75 365.5 104 c 128,-1,14
 394 133 394 133 427 181 c 1,15,-1
 429 133 l 1,16,17
 404 88 404 88 375.5 55.5 c 128,-1,18
 347 23 347 23 313.5 5.5 c 128,-1,19
 280 -12 280 -12 238 -12 c 0,20,21
 184 -12 184 -12 145.5 4.5 c 128,-1,22
 107 21 107 21 87 54.5 c 128,-1,23
 67 88 67 88 67 138 c 0,24,25
 67 180 67 180 84 211.5 c 128,-1,26
 101 243 101 243 141.5 267 c 128,-1,27
 182 291 182 291 252 310.5 c 128,-1,28
 322 330 322 330 429 346 c 1,0,-1
442 0 m 1,29,-1
 418 124 l 1,30,-1
 418 133 l 1,31,-1
 418 416 l 2,32,33
 418 450 418 450 409 471 c 128,-1,34
 400 492 400 492 375 502 c 128,-1,35
 350 512 350 512 302 512 c 0,36,37
 232 512 232 512 187 498.5 c 128,-1,38
 142 485 142 485 124 473 c 1,39,40
 125 478 125 478 130 485 c 128,-1,41
 135 492 135 492 143 498.5 c 128,-1,42
 151 505 151 505 162 509.5 c 128,-1,43
 173 514 173 514 187 514 c 1,44,-1
 187 385 l 1,45,-1
 97 385 l 1,46,-1
 97 526 l 1,47,48
 111 536 111 536 138.5 547 c 128,-1,49
 166 558 166 558 207.5 566.5 c 128,-1,50
 249 575 249 575 304 575 c 0,51,52
 350 575 350 575 387.5 567 c 128,-1,53
 425 559 425 559 451.5 542 c 128,-1,54
 478 525 478 525 492.5 497.5 c 128,-1,55
 507 470 507 470 507 431 c 2,56,-1
 507 105 l 2,57,58
 507 91 507 91 516 83 c 128,-1,59
 525 75 525 75 543 70.5 c 128,-1,60
 561 66 561 66 588 60 c 2,61,-1
 598 58 l 1,62,-1
 598 0 l 1,63,-1
 442 0 l 1,29,-1
EndSplineSet
Substitution2: "'ss06' Style Set 6 lookup 66 subtable" a.alt
EndChar

StartChar: aogonek
Encoding: 261 261 331
Width: 623
GlyphClass: 1
Flags: W
LayerCount: 2
Fore
SplineSet
275 -162 m 0,0,1
 275 -138 275 -138 283.5 -119.5 c 128,-1,2
 292 -101 292 -101 313.5 -81 c 128,-1,3
 335 -61 335 -61 373.5 -33 c 128,-1,4
 412 -5 412 -5 471 37 c 1,5,-1
 498 6 l 1,6,7
 460 -26 460 -26 436 -49 c 128,-1,8
 412 -72 412 -72 399 -89.5 c 128,-1,9
 386 -107 386 -107 381.5 -121 c 128,-1,10
 377 -135 377 -135 377 -150 c 0,11,12
 377 -172 377 -172 390 -183.5 c 128,-1,13
 403 -195 403 -195 427 -195 c 0,14,15
 459 -195 459 -195 481.5 -179 c 128,-1,16
 504 -163 504 -163 517 -147 c 1,17,-1
 555 -182 l 1,18,19
 529 -213 529 -213 494 -232.5 c 128,-1,20
 459 -252 459 -252 404 -252 c 256,21,22
 349 -252 349 -252 312 -230.5 c 128,-1,23
 275 -209 275 -209 275 -162 c 0,0,1
598 0 m 1,24,-1
 442 0 l 1,25,-1
 418 124 l 1,26,-1
 418 133 l 1,27,-1
 418 416 l 2,28,29
 418 450 418 450 409 471 c 128,-1,30
 400 492 400 492 375 502 c 128,-1,31
 350 512 350 512 302 512 c 0,32,33
 232 512 232 512 187 498.5 c 128,-1,34
 142 485 142 485 124 473 c 1,35,36
 125 478 125 478 130 485 c 128,-1,37
 135 492 135 492 143 498.5 c 128,-1,38
 151 505 151 505 162 509.5 c 128,-1,39
 173 514 173 514 187 514 c 1,40,-1
 187 385 l 1,41,-1
 97 385 l 1,42,-1
 97 526 l 1,43,44
 111 536 111 536 138.5 547 c 128,-1,45
 166 558 166 558 207.5 566.5 c 128,-1,46
 249 575 249 575 304 575 c 0,47,48
 350 575 350 575 387.5 567 c 128,-1,49
 425 559 425 559 451.5 542 c 128,-1,50
 478 525 478 525 492.5 497.5 c 128,-1,51
 507 470 507 470 507 431 c 2,52,-1
 507 105 l 2,53,54
 507 91 507 91 516 83 c 128,-1,55
 525 75 525 75 543 70.5 c 128,-1,56
 561 66 561 66 588 60 c 2,57,-1
 598 58 l 1,58,-1
 598 0 l 1,24,-1
67 138 m 0,59,60
 67 180 67 180 84 211.5 c 128,-1,61
 101 243 101 243 141.5 267 c 128,-1,62
 182 291 182 291 252 310.5 c 128,-1,63
 322 330 322 330 429 346 c 1,64,-1
 429 289 l 1,65,66
 357 278 357 278 308 266 c 128,-1,67
 259 254 259 254 229 241 c 128,-1,68
 199 228 199 228 183.5 212.5 c 128,-1,69
 168 197 168 197 162.5 178.5 c 128,-1,70
 157 160 157 160 157 138 c 0,71,72
 157 106 157 106 169 86.5 c 128,-1,73
 181 67 181 67 203 58 c 128,-1,74
 225 49 225 49 255 49 c 0,75,76
 284 49 284 49 310.5 62 c 128,-1,77
 337 75 337 75 365.5 104 c 128,-1,78
 394 133 394 133 427 181 c 1,79,-1
 429 133 l 1,80,81
 404 88 404 88 375.5 55.5 c 128,-1,82
 347 23 347 23 313.5 5.5 c 128,-1,83
 280 -12 280 -12 238 -12 c 0,84,85
 184 -12 184 -12 145.5 4.5 c 128,-1,86
 107 21 107 21 87 54.5 c 128,-1,87
 67 88 67 88 67 138 c 0,59,60
EndSplineSet
Substitution2: "'ss06' Style Set 6 lookup 66 subtable" aogonek.alt
EndChar

StartChar: acaron
Encoding: 462 462 332
Width: 623
GlyphClass: 1
Flags: W
LayerCount: 2
Fore
SplineSet
266 651 m 1,0,-1
 334 651 l 1,1,-1
 469 824 l 1,2,-1
 469 844 l 1,3,-1
 432 844 l 1,4,-1
 243 687 l 1,5,-1
 362 692 l 1,6,-1
 177 844 l 1,7,-1
 130 844 l 1,8,-1
 130 824 l 1,9,-1
 266 651 l 1,0,-1
429 346 m 1,10,-1
 429 289 l 1,11,12
 357 278 357 278 308 266 c 128,-1,13
 259 254 259 254 229 241 c 128,-1,14
 199 228 199 228 183.5 212.5 c 128,-1,15
 168 197 168 197 162.5 178.5 c 128,-1,16
 157 160 157 160 157 138 c 0,17,18
 157 106 157 106 169 86.5 c 128,-1,19
 181 67 181 67 203 58 c 128,-1,20
 225 49 225 49 255 49 c 0,21,22
 284 49 284 49 310.5 62 c 128,-1,23
 337 75 337 75 365.5 104 c 128,-1,24
 394 133 394 133 427 181 c 1,25,-1
 429 133 l 1,26,27
 404 88 404 88 375.5 55.5 c 128,-1,28
 347 23 347 23 313.5 5.5 c 128,-1,29
 280 -12 280 -12 238 -12 c 0,30,31
 184 -12 184 -12 145.5 4.5 c 128,-1,32
 107 21 107 21 87 54.5 c 128,-1,33
 67 88 67 88 67 138 c 0,34,35
 67 180 67 180 84 211.5 c 128,-1,36
 101 243 101 243 141.5 267 c 128,-1,37
 182 291 182 291 252 310.5 c 128,-1,38
 322 330 322 330 429 346 c 1,10,-1
442 0 m 1,39,-1
 418 124 l 1,40,-1
 418 133 l 1,41,-1
 418 416 l 2,42,43
 418 450 418 450 409 471 c 128,-1,44
 400 492 400 492 375 502 c 128,-1,45
 350 512 350 512 302 512 c 0,46,47
 232 512 232 512 187 498.5 c 128,-1,48
 142 485 142 485 124 473 c 1,49,50
 125 478 125 478 130 485 c 128,-1,51
 135 492 135 492 143 498.5 c 128,-1,52
 151 505 151 505 162 509.5 c 128,-1,53
 173 514 173 514 187 514 c 1,54,-1
 187 385 l 1,55,-1
 97 385 l 1,56,-1
 97 526 l 1,57,58
 111 536 111 536 138.5 547 c 128,-1,59
 166 558 166 558 207.5 566.5 c 128,-1,60
 249 575 249 575 304 575 c 0,61,62
 350 575 350 575 387.5 567 c 128,-1,63
 425 559 425 559 451.5 542 c 128,-1,64
 478 525 478 525 492.5 497.5 c 128,-1,65
 507 470 507 470 507 431 c 2,66,-1
 507 105 l 2,67,68
 507 91 507 91 516 83 c 128,-1,69
 525 75 525 75 543 70.5 c 128,-1,70
 561 66 561 66 588 60 c 2,71,-1
 598 58 l 1,72,-1
 598 0 l 1,73,-1
 442 0 l 1,39,-1
EndSplineSet
Substitution2: "'ss06' Style Set 6 lookup 66 subtable" acaron.alt
EndChar

StartChar: adblgrave
Encoding: 513 513 334
Width: 623
GlyphClass: 1
Flags: W
LayerCount: 2
Fore
SplineSet
407 809 m 2,0,-1
 438 687 l 1,1,-1
 438 661 l 1,2,-1
 408 661 l 1,3,-1
 322 752 l 2,4,5
 305 771 305 771 295.5 786.5 c 128,-1,6
 286 802 286 802 286 821 c 0,7,8
 286 841 286 841 300.5 856 c 128,-1,9
 315 871 315 871 340 871 c 0,10,11
 369 871 369 871 384.5 854 c 128,-1,12
 400 837 400 837 407 809 c 2,0,-1
206 809 m 2,13,-1
 238 687 l 1,14,-1
 238 661 l 1,15,-1
 207 661 l 1,16,-1
 121 752 l 2,17,18
 104 771 104 771 94.5 786.5 c 128,-1,19
 85 802 85 802 85 821 c 0,20,21
 85 841 85 841 99.5 856 c 128,-1,22
 114 871 114 871 139 871 c 0,23,24
 168 871 168 871 183.5 854 c 128,-1,25
 199 837 199 837 206 809 c 2,13,-1
429 346 m 1,26,-1
 429 289 l 1,27,28
 357 278 357 278 308 266 c 128,-1,29
 259 254 259 254 229 241 c 128,-1,30
 199 228 199 228 183.5 212.5 c 128,-1,31
 168 197 168 197 162.5 178.5 c 128,-1,32
 157 160 157 160 157 138 c 0,33,34
 157 106 157 106 169 86.5 c 128,-1,35
 181 67 181 67 203 58 c 128,-1,36
 225 49 225 49 255 49 c 0,37,38
 284 49 284 49 310.5 62 c 128,-1,39
 337 75 337 75 365.5 104 c 128,-1,40
 394 133 394 133 427 181 c 1,41,-1
 429 133 l 1,42,43
 404 88 404 88 375.5 55.5 c 128,-1,44
 347 23 347 23 313.5 5.5 c 128,-1,45
 280 -12 280 -12 238 -12 c 0,46,47
 184 -12 184 -12 145.5 4.5 c 128,-1,48
 107 21 107 21 87 54.5 c 128,-1,49
 67 88 67 88 67 138 c 0,50,51
 67 180 67 180 84 211.5 c 128,-1,52
 101 243 101 243 141.5 267 c 128,-1,53
 182 291 182 291 252 310.5 c 128,-1,54
 322 330 322 330 429 346 c 1,26,-1
442 0 m 1,55,-1
 418 124 l 1,56,-1
 418 133 l 1,57,-1
 418 416 l 2,58,59
 418 450 418 450 409 471 c 128,-1,60
 400 492 400 492 375 502 c 128,-1,61
 350 512 350 512 302 512 c 0,62,63
 232 512 232 512 187 498.5 c 128,-1,64
 142 485 142 485 124 473 c 1,65,66
 125 478 125 478 130 485 c 128,-1,67
 135 492 135 492 143 498.5 c 128,-1,68
 151 505 151 505 162 509.5 c 128,-1,69
 173 514 173 514 187 514 c 1,70,-1
 187 385 l 1,71,-1
 97 385 l 1,72,-1
 97 526 l 1,73,74
 111 536 111 536 138.5 547 c 128,-1,75
 166 558 166 558 207.5 566.5 c 128,-1,76
 249 575 249 575 304 575 c 0,77,78
 350 575 350 575 387.5 567 c 128,-1,79
 425 559 425 559 451.5 542 c 128,-1,80
 478 525 478 525 492.5 497.5 c 128,-1,81
 507 470 507 470 507 431 c 2,82,-1
 507 105 l 2,83,84
 507 91 507 91 516 83 c 128,-1,85
 525 75 525 75 543 70.5 c 128,-1,86
 561 66 561 66 588 60 c 2,87,-1
 598 58 l 1,88,-1
 598 0 l 1,89,-1
 442 0 l 1,55,-1
EndSplineSet
Substitution2: "'ss06' Style Set 6 lookup 66 subtable" adblgrave.alt
EndChar

StartChar: ainvertedbreve
Encoding: 515 515 335
Width: 623
GlyphClass: 1
Flags: W
LayerCount: 2
Fore
SplineSet
294 833 m 0,0,1
 240 833 240 833 205 817.5 c 128,-1,2
 170 802 170 802 153.5 765.5 c 128,-1,3
 137 729 137 729 137 665 c 1,4,-1
 202 665 l 1,5,6
 203 707 203 707 210 727 c 128,-1,7
 217 747 217 747 236 753 c 128,-1,8
 255 759 255 759 291 759 c 0,9,10
 328 759 328 759 347 753 c 128,-1,11
 366 747 366 747 373.5 727 c 128,-1,12
 381 707 381 707 381 665 c 1,13,-1
 451 665 l 1,14,15
 452 729 452 729 435 765.5 c 128,-1,16
 418 802 418 802 383.5 817.5 c 128,-1,17
 349 833 349 833 294 833 c 0,0,1
429 346 m 1,18,-1
 429 289 l 1,19,20
 357 278 357 278 308 266 c 128,-1,21
 259 254 259 254 229 241 c 128,-1,22
 199 228 199 228 183.5 212.5 c 128,-1,23
 168 197 168 197 162.5 178.5 c 128,-1,24
 157 160 157 160 157 138 c 0,25,26
 157 106 157 106 169 86.5 c 128,-1,27
 181 67 181 67 203 58 c 128,-1,28
 225 49 225 49 255 49 c 0,29,30
 284 49 284 49 310.5 62 c 128,-1,31
 337 75 337 75 365.5 104 c 128,-1,32
 394 133 394 133 427 181 c 1,33,-1
 429 133 l 1,34,35
 404 88 404 88 375.5 55.5 c 128,-1,36
 347 23 347 23 313.5 5.5 c 128,-1,37
 280 -12 280 -12 238 -12 c 0,38,39
 184 -12 184 -12 145.5 4.5 c 128,-1,40
 107 21 107 21 87 54.5 c 128,-1,41
 67 88 67 88 67 138 c 0,42,43
 67 180 67 180 84 211.5 c 128,-1,44
 101 243 101 243 141.5 267 c 128,-1,45
 182 291 182 291 252 310.5 c 128,-1,46
 322 330 322 330 429 346 c 1,18,-1
442 0 m 1,47,-1
 418 124 l 1,48,-1
 418 133 l 1,49,-1
 418 416 l 2,50,51
 418 450 418 450 409 471 c 128,-1,52
 400 492 400 492 375 502 c 128,-1,53
 350 512 350 512 302 512 c 0,54,55
 232 512 232 512 187 498.5 c 128,-1,56
 142 485 142 485 124 473 c 1,57,58
 125 478 125 478 130 485 c 128,-1,59
 135 492 135 492 143 498.5 c 128,-1,60
 151 505 151 505 162 509.5 c 128,-1,61
 173 514 173 514 187 514 c 1,62,-1
 187 385 l 1,63,-1
 97 385 l 1,64,-1
 97 526 l 1,65,66
 111 536 111 536 138.5 547 c 128,-1,67
 166 558 166 558 207.5 566.5 c 128,-1,68
 249 575 249 575 304 575 c 0,69,70
 350 575 350 575 387.5 567 c 128,-1,71
 425 559 425 559 451.5 542 c 128,-1,72
 478 525 478 525 492.5 497.5 c 128,-1,73
 507 470 507 470 507 431 c 2,74,-1
 507 105 l 2,75,76
 507 91 507 91 516 83 c 128,-1,77
 525 75 525 75 543 70.5 c 128,-1,78
 561 66 561 66 588 60 c 2,79,-1
 598 58 l 1,80,-1
 598 0 l 1,81,-1
 442 0 l 1,47,-1
EndSplineSet
Substitution2: "'ss06' Style Set 6 lookup 66 subtable" ainvertedbreve.alt
EndChar

StartChar: b
Encoding: 98 98 348
Width: 695
GlyphClass: 2
Flags: W
AnchorPoint: "Anchor-1" 349 0 basechar 0
AnchorPoint: "Anchor-0" 329 755 basechar 0
LayerCount: 2
Fore
SplineSet
390 -13 m 0,0,1
 342 -13 342 -13 304 5.5 c 128,-1,2
 266 24 266 24 235.5 57.5 c 128,-1,3
 205 91 205 91 180 136 c 1,4,-1
 186 178 l 1,5,6
 215 137 215 137 244.5 109 c 128,-1,7
 274 81 274 81 307.5 67 c 128,-1,8
 341 53 341 53 383 53 c 256,9,10
 425 53 425 53 456.5 67 c 128,-1,11
 488 81 488 81 509 109.5 c 128,-1,12
 530 138 530 138 540.5 182 c 128,-1,13
 551 226 551 226 551 285 c 0,14,15
 551 341 551 341 542 383 c 128,-1,16
 533 425 533 425 514 453 c 128,-1,17
 495 481 495 481 464.5 495 c 128,-1,18
 434 509 434 509 391 509 c 0,19,20
 347 509 347 509 311.5 496.5 c 128,-1,21
 276 484 276 484 245 457.5 c 128,-1,22
 214 431 214 431 183 389 c 1,23,-1
 180 428 l 1,24,25
 206 473 206 473 237.5 506 c 128,-1,26
 269 539 269 539 309.5 557 c 128,-1,27
 350 575 350 575 402 575 c 0,28,29
 483 575 483 575 537 538 c 128,-1,30
 591 501 591 501 618 436 c 128,-1,31
 645 371 645 371 645 285 c 0,32,33
 645 200 645 200 616 132.5 c 128,-1,34
 587 65 587 65 530 26 c 128,-1,35
 473 -13 473 -13 390 -13 c 0,0,1
111 675 m 2,36,37
 111 690 111 690 102 697.5 c 128,-1,38
 93 705 93 705 75 710 c 128,-1,39
 57 715 57 715 30 720 c 2,40,-1
 20 722 l 1,41,-1
 20 780 l 1,42,-1
 200 780 l 1,43,-1
 200 121 l 1,44,-1
 200 121 l 1,45,-1
 171 -21 l 1,46,-1
 111 -21 l 1,47,-1
 111 675 l 2,36,37
EndSplineSet
EndChar

StartChar: c
Encoding: 99 99 349
Width: 593
GlyphClass: 2
Flags: W
AnchorPoint: "Anchor-1" 328 0 basechar 0
AnchorPoint: "Anchor-0" 317 565 basechar 0
LayerCount: 2
Fore
SplineSet
335 51 m 0,0,1
 378 51 378 51 409 63.5 c 128,-1,2
 440 76 440 76 463 98.5 c 128,-1,3
 486 121 486 121 503 150 c 1,4,-1
 553 113 l 1,5,6
 535 74 535 74 502 45.5 c 128,-1,7
 469 17 469 17 426 2 c 128,-1,8
 383 -13 383 -13 334 -13 c 0,9,10
 244 -13 244 -13 180.5 22 c 128,-1,11
 117 57 117 57 83.5 123 c 128,-1,12
 50 189 50 189 50 282 c 256,13,14
 50 375 50 375 83.5 440.5 c 128,-1,15
 117 506 117 506 180.5 540.5 c 128,-1,16
 244 575 244 575 334 575 c 0,17,18
 389 575 389 575 429.5 569 c 128,-1,19
 470 563 470 563 496 555 c 128,-1,20
 522 547 522 547 533 541 c 1,21,-1
 533 362 l 1,22,-1
 441 362 l 1,23,-1
 441 506 l 1,24,25
 451 506 451 506 459.5 503.5 c 128,-1,26
 468 501 468 501 474 496.5 c 128,-1,27
 480 492 480 492 483.5 488 c 128,-1,28
 487 484 487 484 488 482 c 1,29,30
 463 494 463 494 424 502.5 c 128,-1,31
 385 511 385 511 335 511 c 0,32,33
 267 511 267 511 225 486 c 128,-1,34
 183 461 183 461 163.5 410 c 128,-1,35
 144 359 144 359 144 282 c 0,36,37
 144 221 144 221 154.5 177 c 128,-1,38
 165 133 165 133 187.5 105 c 128,-1,39
 210 77 210 77 246.5 64 c 128,-1,40
 283 51 283 51 335 51 c 0,0,1
EndSplineSet
EndChar

StartChar: ccaron
Encoding: 269 269 354
Width: 593
GlyphClass: 1
Flags: W
LayerCount: 2
Fore
SplineSet
284 651 m 1,0,-1
 352 651 l 1,1,-1
 487 824 l 1,2,-1
 487 844 l 1,3,-1
 450 844 l 1,4,-1
 261 687 l 1,5,-1
 380 692 l 1,6,-1
 195 844 l 1,7,-1
 148 844 l 1,8,-1
 148 824 l 1,9,-1
 284 651 l 1,0,-1
335 51 m 0,10,11
 378 51 378 51 409 63.5 c 128,-1,12
 440 76 440 76 463 98.5 c 128,-1,13
 486 121 486 121 503 150 c 1,14,-1
 553 113 l 1,15,16
 535 74 535 74 502 45.5 c 128,-1,17
 469 17 469 17 426 2 c 128,-1,18
 383 -13 383 -13 334 -13 c 0,19,20
 244 -13 244 -13 180.5 22 c 128,-1,21
 117 57 117 57 83.5 123 c 128,-1,22
 50 189 50 189 50 282 c 256,23,24
 50 375 50 375 83.5 440.5 c 128,-1,25
 117 506 117 506 180.5 540.5 c 128,-1,26
 244 575 244 575 334 575 c 0,27,28
 389 575 389 575 429.5 569 c 128,-1,29
 470 563 470 563 496 555 c 128,-1,30
 522 547 522 547 533 541 c 1,31,-1
 533 362 l 1,32,-1
 441 362 l 1,33,-1
 441 506 l 1,34,35
 451 506 451 506 459.5 503.5 c 128,-1,36
 468 501 468 501 474 496.5 c 128,-1,37
 480 492 480 492 483.5 488 c 128,-1,38
 487 484 487 484 488 482 c 1,39,40
 463 494 463 494 424 502.5 c 128,-1,41
 385 511 385 511 335 511 c 0,42,43
 267 511 267 511 225 486 c 128,-1,44
 183 461 183 461 163.5 410 c 128,-1,45
 144 359 144 359 144 282 c 0,46,47
 144 221 144 221 154.5 177 c 128,-1,48
 165 133 165 133 187.5 105 c 128,-1,49
 210 77 210 77 246.5 64 c 128,-1,50
 283 51 283 51 335 51 c 0,10,11
EndSplineSet
EndChar

StartChar: d
Encoding: 100 100 356
Width: 705
GlyphClass: 2
Flags: W
AnchorPoint: "Anchor-2" 668 735 basechar 0
AnchorPoint: "Anchor-1" 329 0 basechar 0
LayerCount: 2
Fore
SplineSet
584 105 m 2,0,1
 584 83 584 83 605.5 75.5 c 128,-1,2
 627 68 627 68 665 60 c 2,3,-1
 675 58 l 1,4,-1
 675 0 l 1,5,-1
 519 0 l 1,6,-1
 495 121 l 1,7,-1
 495 121 l 1,8,-1
 495 675 l 2,9,10
 495 690 495 690 486 697.5 c 128,-1,11
 477 705 477 705 459 710 c 128,-1,12
 441 715 441 715 414 720 c 2,13,-1
 404 722 l 1,14,-1
 404 780 l 1,15,-1
 584 780 l 1,16,-1
 584 105 l 2,0,1
305 575 m 0,17,18
 353 575 353 575 391 556.5 c 128,-1,19
 429 538 429 538 459.5 505 c 128,-1,20
 490 472 490 472 515 426 c 1,21,-1
 509 384 l 1,22,23
 480 426 480 426 450.5 453.5 c 128,-1,24
 421 481 421 481 387.5 495 c 128,-1,25
 354 509 354 509 312 509 c 256,26,27
 270 509 270 509 238.5 495 c 128,-1,28
 207 481 207 481 186 452.5 c 128,-1,29
 165 424 165 424 154.5 380 c 128,-1,30
 144 336 144 336 144 277 c 0,31,32
 144 221 144 221 153 179 c 128,-1,33
 162 137 162 137 181 109 c 128,-1,34
 200 81 200 81 230.5 67 c 128,-1,35
 261 53 261 53 304 53 c 0,36,37
 348 53 348 53 383.5 65.5 c 128,-1,38
 419 78 419 78 450.5 105 c 128,-1,39
 482 132 482 132 512 173 c 1,40,-1
 515 134 l 1,41,42
 489 90 489 90 457.5 56.5 c 128,-1,43
 426 23 426 23 385.5 5 c 128,-1,44
 345 -13 345 -13 293 -13 c 0,45,46
 212 -13 212 -13 158 24 c 128,-1,47
 104 61 104 61 77 126.5 c 128,-1,48
 50 192 50 192 50 277 c 0,49,50
 50 363 50 363 79 430 c 128,-1,51
 108 497 108 497 165 536 c 128,-1,52
 222 575 222 575 305 575 c 0,17,18
EndSplineSet
EndChar

StartChar: e
Encoding: 101 101 360
Width: 603
GlyphClass: 2
Flags: W
AnchorPoint: "Anchor-2" 477 1 basechar 0
AnchorPoint: "Anchor-1" 331 0 basechar 0
AnchorPoint: "Anchor-0" 308 565 basechar 0
LayerCount: 2
Fore
SplineSet
140 276 m 0,0,1
 140 208 140 208 155 164 c 128,-1,2
 170 120 170 120 196.5 95.5 c 128,-1,3
 223 71 223 71 257.5 61 c 128,-1,4
 292 51 292 51 332 51 c 0,5,6
 375 51 375 51 407.5 64.5 c 128,-1,7
 440 78 440 78 464.5 101 c 128,-1,8
 489 124 489 124 506 153 c 1,9,-1
 556 116 l 1,10,11
 537 78 537 78 502.5 48.5 c 128,-1,12
 468 19 468 19 424 3 c 128,-1,13
 380 -13 380 -13 330 -13 c 0,14,15
 251 -13 251 -13 187.5 19.5 c 128,-1,16
 124 52 124 52 87 116.5 c 128,-1,17
 50 181 50 181 50 276 c 0,18,19
 50 367 50 367 82.5 434 c 128,-1,20
 115 501 115 501 174 538 c 128,-1,21
 233 575 233 575 312 575 c 0,22,23
 374 575 374 575 419 555 c 128,-1,24
 464 535 464 535 493 494.5 c 128,-1,25
 522 454 522 454 537 394.5 c 128,-1,26
 552 335 552 335 553 255 c 1,27,-1
 116 255 l 1,28,-1
 116 315 l 1,29,-1
 488 315 l 1,30,-1
 463 293 l 1,31,32
 460 356 460 356 451 398.5 c 128,-1,33
 442 441 442 441 425 465.5 c 128,-1,34
 408 490 408 490 380.5 500.5 c 128,-1,35
 353 511 353 511 312 511 c 0,36,37
 272 511 272 511 240 498 c 128,-1,38
 208 485 208 485 186 457 c 128,-1,39
 164 429 164 429 152 384 c 128,-1,40
 140 339 140 339 140 276 c 0,0,1
EndSplineSet
EndChar

StartChar: eogonek
Encoding: 281 281 368
Width: 603
GlyphClass: 1
Flags: W
LayerCount: 2
Fore
SplineSet
413 37 m 1,0,-1
 415 0 l 1,1,2
 395 -6 395 -6 374 -9.5 c 128,-1,3
 353 -13 353 -13 330 -13 c 0,4,5
 251 -13 251 -13 187.5 19.5 c 128,-1,6
 124 52 124 52 87 116.5 c 128,-1,7
 50 181 50 181 50 276 c 0,8,9
 50 367 50 367 82.5 434 c 128,-1,10
 115 501 115 501 174 538 c 128,-1,11
 233 575 233 575 312 575 c 0,12,13
 374 575 374 575 419 555 c 128,-1,14
 464 535 464 535 493 494.5 c 128,-1,15
 522 454 522 454 537 394.5 c 128,-1,16
 552 335 552 335 553 255 c 1,17,-1
 116 255 l 1,18,-1
 116 315 l 1,19,-1
 488 315 l 1,20,-1
 463 293 l 1,21,22
 460 356 460 356 451 398.5 c 128,-1,23
 442 441 442 441 425 465.5 c 128,-1,24
 408 490 408 490 380.5 500.5 c 128,-1,25
 353 511 353 511 312 511 c 0,26,27
 272 511 272 511 240 498 c 128,-1,28
 208 485 208 485 186 457 c 128,-1,29
 164 429 164 429 152 384 c 128,-1,30
 140 339 140 339 140 276 c 0,31,32
 140 208 140 208 155 164 c 128,-1,33
 170 120 170 120 196.5 95.5 c 128,-1,34
 223 71 223 71 257.5 61 c 128,-1,35
 292 51 292 51 332 51 c 0,36,37
 375 51 375 51 407.5 64.5 c 128,-1,38
 440 78 440 78 464.5 101 c 128,-1,39
 489 124 489 124 506 153 c 1,40,-1
 556 116 l 1,41,42
 544 92 544 92 525 71 c 128,-1,43
 506 50 506 50 478 30 c 0,44,45
 453 13 453 13 425.5 -8 c 128,-1,46
 398 -29 398 -29 373.5 -52.5 c 128,-1,47
 349 -76 349 -76 334 -101 c 128,-1,48
 319 -126 319 -126 319 -150 c 0,49,50
 319 -172 319 -172 332 -183.5 c 128,-1,51
 345 -195 345 -195 369 -195 c 0,52,53
 401 -195 401 -195 423.5 -179 c 128,-1,54
 446 -163 446 -163 459 -147 c 1,55,-1
 497 -182 l 1,56,57
 471 -213 471 -213 436 -232.5 c 128,-1,58
 401 -252 401 -252 346 -252 c 0,59,60
 310 -252 310 -252 280.5 -242.5 c 128,-1,61
 251 -233 251 -233 234 -213 c 128,-1,62
 217 -193 217 -193 217 -162 c 0,63,64
 217 -138 217 -138 225.5 -119.5 c 128,-1,65
 234 -101 234 -101 255.5 -81 c 128,-1,66
 277 -61 277 -61 315.5 -33 c 128,-1,67
 354 -5 354 -5 413 37 c 1,0,-1
EndSplineSet
EndChar

